<?xml version="1.0" encoding="utf-8"?>
<!-- Generator: Adobe Illustrator 16.0.0, SVG Export Plug-In . SVG Version: 6.00 Build 0)  -->
<!DOCTYPE svg PUBLIC "-//W3C//DTD SVG 1.1//EN" "http://www.w3.org/Graphics/SVG/1.1/DTD/svg11.dtd">
<svg version="1.1" id="Capa_1" xmlns="http://www.w3.org/2000/svg" xmlns:xlink="http://www.w3.org/1999/xlink" x="0px" y="0px"
	 width="87.754px" height="41.169px" viewBox="0 0 87.754 41.169" enable-background="new 0 0 87.754 41.169" xml:space="preserve">
<g>
	<path d="M25.516,19.487c0.062-0.01,0.131-0.071,0.131-0.137c-0.004-0.025-0.062-0.065-0.131-0.073
		c-0.082-0.035-0.137,0.021-0.137,0.073C25.39,19.422,25.445,19.498,25.516,19.487"/>
	<path d="M21.286,30.302c0.646-0.647,0.765-1.577,0.744-1.729l-0.123,0.066c-0.059,0.203-0.211,0.514-0.699,0.75
		c0,0,0.467-0.016,0.684-0.465c-0.01,0.051-0.11,0.541-0.736,1.353C21.155,30.277,21.17,30.403,21.286,30.302"/>
	<path d="M27.557,15.848c0.164,0.021,0.25-0.118,0.25-0.24c0-0.086-0.113-0.232-0.251-0.211c-0.137,0.059-0.249,0.104-0.249,0.301
		C27.309,15.805,27.447,15.865,27.557,15.848"/>
	<path d="M4.628,20.676c-0.177-0.139-1.11-0.186-1.347-0.209c-0.23-0.013-0.789-0.056-0.83-0.056
		c-0.067-0.009-0.127-0.009-0.174-0.067l-0.101-0.082l-0.098,0.041H2.073l-0.031,0.17c0.005,0.12-0.003,0.232-0.01,0.353
		c-0.003,0.077,0.056,0.083,0.109,0.065c-0.003,0.004,0.156-0.15,0.258-0.15c0.431,0.013,1.652,0.02,1.827,0.069
		c0.305,0.081,0.348,0.502,0.133,0.69l-0.006,0.009c-0.004,0-0.149,0.042-0.215,0.042c-0.543,0-1.081-0.003-1.623-0.003
		c-0.07-0.004-0.125-0.017-0.178-0.064l-0.149-0.06v-0.005l-0.007,0.007l-0.048,0.029c-0.102,0.076-0.05,0.271-0.05,0.382
		c0.004,0.072-0.027,0.565,0.068,0.594l0.194-0.162c0.13-0.038,0.99-0.038,1.26-0.044c0.336-0.015,0.747,0.01,1.026-0.201
		c0.2-0.142,0.186-0.394,0.186-0.604C4.818,21.161,4.85,20.855,4.628,20.676 M4.278,22.159c0.116-0.021,0.2-0.047,0.268-0.084
		C4.477,22.123,4.377,22.145,4.278,22.159z"/>
	<path d="M4.615,18.054c-0.048,0-0.573-0.09-0.797-0.122C3.43,17.87,3.029,17.828,2.646,17.74c-0.077-0.01-0.107-0.045-0.14-0.103
		L2.36,17.52H2.355l-0.054,0.035l0.012-0.005v0.005c-0.06,0.059-0.056,0.143-0.075,0.242c-0.017,0.118-0.026,0.242-0.05,0.355
		c-0.009,0.064,0.011,0.134,0.087,0.097v0.005l0.01-0.01l0.044-0.02l0.116-0.086c0.068-0.015,1.008,0.073,0.94,0.105
		c0.062-0.032-0.681,0.396-0.914,0.533c-0.111,0.057-0.236,0.114-0.333,0.199c-0.067,0.057-0.1,0.463-0.117,0.57
		c-0.038,0.158,0.039,0.158,0.063,0.158h0.01l0.244-0.158c0.087-0.038,0.184-0.027,0.277-0.019c0.476,0.032,1.828,0.123,1.854,0.157
		l0.046,0.088c0.011,0.131,0.114,0.143,0.114,0.143c0.098,0.034,0.098-0.141,0.107-0.199c0.02-0.166,0.053-0.341,0.046-0.504
		c-0.013-0.078-0.135-0.006-0.135-0.006c-0.015,0.012-0.042,0.133-0.116,0.145c-0.07,0.019-0.172,0.019-0.265,0.007
		c-0.165-0.019-1.176-0.104-1.216-0.194c0.33-0.188,1.774-0.989,1.774-0.989l0.018-0.017C4.955,18.072,4.638,18.054,4.615,18.054
		 M2.347,18.187l0.019-0.012l0.08-0.043L2.347,18.187z"/>
	<path d="M33.979,6.775l0.169-0.061l-0.011-0.134c-0.123-0.129-0.303-0.205-0.402-0.356c-0.048-0.066-0.13-0.08-0.125-0.084
		c-0.005,0.01-0.162-0.021-0.097,0.173c0.038,0.126-0.019,0.294-0.093,0.402c-0.141,0.188-0.272,0.381-0.414,0.568
		c-0.053-0.073,0.05-0.908,0.064-1.167c0.01-0.159,0.069-0.385-0.06-0.5c-0.088-0.086-0.461-0.355-0.563-0.375l-0.09,0.043
		l-0.019,0.146c-0.004,0.079-0.016,0.16-0.035,0.239c-0.022,0.104-0.08,0.187-0.15,0.272c-0.139,0.163-0.728,0.891-0.883,1.08
		c-0.115,0.15-0.241,0.211-0.411,0.307h-0.001c-0.009,0.01-0.116,0.081,0.11,0.192c0.112,0.057,0.215,0.139,0.313,0.22
		c0.198,0.175,0.229-0.02,0.238-0.063c0.026-0.141,0.006-0.288,0.098-0.408c0.25-0.35,0.5-0.692,0.745-1.041
		c0.03,0.006,0.011,0.209,0.007,0.282c-0.029,0.243-0.168,1.488-0.204,1.87c-0.013,0.152,0.117,0.242,0.226,0.227l0.072-0.049
		c0.074-0.117,0.076-0.275,0.15-0.399l0.104-0.119c0.315-0.349,0.631-0.702,0.944-1.06C33.753,6.879,33.834,6.797,33.979,6.775"/>
	<path d="M5.102,16.636c-0.008,0-0.238,0.102-0.508,0.029c-0.268-0.063-1.425-0.278-1.635-0.45
		c-0.065-0.055-0.188-0.242-0.285-0.213c-0.003,0-0.047-0.026-0.129,0.335c-0.039,0.189-0.082,0.381-0.102,0.573
		c-0.007,0.078,0.055,0.064,0.083,0.053l0.093-0.064l0.014-0.002H2.627l0.068-0.027c0.075,0.005,1.6,0.264,1.916,0.402
		c0.117,0.054,0.198,0.165,0.291,0.248c0.083,0.068,0.141-0.148,0.15-0.199c0.018-0.14,0.042-0.261,0.079-0.389l0.067-0.189
		C5.232,16.615,5.166,16.61,5.102,16.636"/>
	<path d="M37.319,15.584l0.186-0.076c0,0,1.427-0.514,1.67-0.574c0.076-0.021,0.118,0.037,0.185,0.026
		c0,0.008,0.124,0.013,0.036-0.209c-0.041-0.124-0.09-0.246-0.128-0.37c-0.025-0.1-0.017-0.346-0.18-0.267v-0.005l-0.119,0.123
		l-0.302,0.167c-0.267,0.099-1.406,0.526-1.406,0.526c-0.119,0.025-0.119,0.025-0.167,0.042c-0.039,0.02-0.393,0.01-0.322,0.173
		c0.055,0.114,0.089,0.241,0.119,0.359c0.02,0.068,0.098,0.378,0.19,0.328C37.176,15.778,37.221,15.661,37.319,15.584
		 M37.297,15.596L37.297,15.596l-0.03,0.019L37.297,15.596z"/>
	<path d="M10.851,7.771h-0.005c-0.13-0.002-0.238-0.054-0.341-0.14C10.227,7.33,9.417,6.492,9.323,6.36
		C9.239,6.249,9.237,6.111,9.178,5.993L9.104,5.961l0.001-0.003C9.104,5.961,8.805,6.126,8.454,6.492L8.365,6.61l0.178,0.066
		C8.641,6.686,8.71,6.753,8.769,6.819c0.376,0.354,0.795,0.699,1.099,1.123c0.08,0.117,0.143,0.253,0.174,0.395
		c0.044,0.206,0.206,0.046,0.206,0.039v0.007c0.202-0.199,0.542-0.418,0.563-0.434C10.843,7.931,10.965,7.832,10.851,7.771"/>
	<path d="M35.591,8.449c0.071-0.39-0.188-0.736-0.526-0.918c-0.523-0.285-1.124,0.114-1.485,0.459
		c-0.261,0.252-0.458,0.57-0.499,0.92c-0.047,0.361,0.177,0.719,0.51,0.885c0.496,0.256,1.104-0.125,1.455-0.455
		C35.299,9.088,35.522,8.799,35.591,8.449 M34.404,9.061c-0.061,0.055-0.129,0.131-0.197,0.193c-0.07,0.063-0.135,0.108-0.192,0.147
		c-0.05,0.033-0.11,0.059-0.177,0.065c-0.147,0.027-0.283-0.114-0.335-0.234c-0.068-0.151,0.048-0.308,0.135-0.421
		c0.158-0.193,0.364-0.353,0.553-0.521c0.15-0.13,0.983-0.848,1.039-0.316c0.019,0.176-0.165,0.369-0.259,0.493
		C34.795,8.678,34.595,8.865,34.404,9.061z"/>
	<path d="M8.111,10.163c-0.109,0.003-0.827-0.078-1.072-0.118c-0.119-0.02-0.15-0.014-0.143-0.124
		c0.012-0.157-0.058-0.292-0.18-0.397C6.484,9.303,6.143,9.281,5.874,9.436c-0.005,0.004-0.229,0.134-0.685,0.831
		c-0.071,0.109-0.139,0.218-0.213,0.319c-0.121,0.195,0.066,0.129,0.197,0.126c0.203-0.007,0.4,0.173,0.558,0.276
		c0.353,0.24,0.701,0.479,1.047,0.725c0.071,0.081,0.134,0.163,0.164,0.268c0.006,0.024,0.009,0.179,0.085,0.146H7.03v-0.01
		c0.049,0.005,0.373-0.49,0.499-0.689c0.107-0.179-0.158-0.139-0.254-0.179c-0.103-0.042-0.196-0.117-0.295-0.168
		c-0.155-0.089-0.512-0.249-0.274-0.431c0.159-0.064,0.398-0.036,0.569-0.039c0.271-0.015,0.56-0.036,0.822-0.116
		c0.105-0.035,0.256-0.097,0.289-0.21C8.435,10.128,8.188,10.163,8.111,10.163 M6.297,10.625c-0.097,0-0.225-0.12-0.295-0.168
		c-0.112-0.074-0.221-0.146-0.328-0.216c-0.068-0.07-0.119-0.117-0.057-0.204C5.665,9.961,5.72,9.885,5.794,9.825
		c0.198-0.057,0.433,0.15,0.565,0.263C6.532,10.231,6.422,10.476,6.297,10.625z"/>
	<polyline points="39.534,15.618 39.536,15.614 39.534,15.618 	"/>
	<polyline points="39.589,15.586 39.59,15.586 39.596,15.581 39.589,15.586 	"/>
	<path d="M37.719,18.16l0.004-0.002v0.002l0.993-0.71l0.235,0.122c0.201,0.079,0.439,0.041,0.626-0.041
		c0.243-0.111,0.394-0.32,0.42-0.577c0.021-0.244-0.078-0.497-0.14-0.727c-0.052-0.179-0.09-0.35-0.138-0.523
		c-0.034-0.094-0.054-0.14-0.12-0.118h-0.01l-0.008,0.003l-0.02,0.011h-0.004l-0.008,0.002l-0.015,0.013L39.5,15.671l-0.146,0.157
		l-0.187,0.069c-0.083,0.021-1.271,0.3-1.537,0.362c-0.109-0.002-0.241,0.014-0.312-0.068c-0.047-0.062-0.288-0.006-0.205,0.133
		c0.138,0.221,0.101,0.519,0.172,0.757c0.018,0.052,0.123,0.019,0.203-0.063c0.072-0.071,0.164-0.115,0.261-0.145
		c0.108-0.036,0.489-0.168,0.587-0.149c0.284,0.079-0.116,0.362-0.211,0.449c-0.228,0.201-0.439,0.439-0.571,0.709
		c-0.047,0.102-0.126,0.324,0.061,0.334L37.719,18.16 M39.462,16.379c0.127-0.006,0.169,0.015,0.192,0.134
		c0.033,0.134,0.069,0.279-0.046,0.376l-0.174,0.066l-0.114,0.03c-0.113,0.021-0.227,0.021-0.316-0.011
		c-0.109-0.04-0.275-0.339-0.197-0.453C39.02,16.47,39.242,16.426,39.462,16.379z M38.802,16.509l-0.008,0.004l-0.019,0.009
		L38.802,16.509z M38.769,16.526h0.007l-0.012,0.008L38.769,16.526z"/>
	<path d="M8.66,8.008C8.354,8.011,7.57,8.436,7.512,8.459C7.358,8.521,7.195,8.543,7.084,8.41C6.97,8.271,7.114,8.024,7.256,7.957
		c0.148-0.07,0.338-0.088,0.506-0.112c0.141-0.017,0.33-0.008,0.446-0.103c0.146-0.113-0.306-0.279-0.383-0.314
		C7.742,7.392,7.618,7.353,7.618,7.355c-0.068-0.04-0.114,0.201-0.22,0.254C7.364,7.631,6.979,7.881,6.907,7.95
		C6.686,8.213,6.575,8.628,6.856,8.886C7.112,9.121,7.515,9.1,7.819,8.984c0.02-0.009,0.437-0.234,0.591-0.32
		c0.295-0.146,0.585-0.218,0.611,0.114c0.016,0.194-0.152,0.372-0.284,0.49C8.499,9.467,8.196,9.527,7.902,9.591L7.73,9.644V9.639
		C7.717,9.644,7.646,9.695,7.742,9.75C7.88,9.829,8.037,9.879,8.189,9.939l0.271,0.086l0.073-0.05
		c0.089-0.156,0.201-0.288,0.34-0.405c0.164-0.135,0.299-0.25,0.396-0.432c0.093-0.172,0.128-0.36,0.102-0.551
		C9.329,8.242,9.01,7.997,8.66,8.008"/>
	<path d="M36.355,10.557c-0.047-0.254-0.188-0.506-0.195-0.764l0.07-0.154c0.326-0.125,0.447,0.393,0.454,0.616
		c0.003,0.146-0.018,0.297-0.061,0.433l-0.001,0.113c0.135,0.018,0.542-0.363,0.563-0.379c0.149-0.113-0.101-0.272-0.162-0.382
		c-0.036-0.079-0.057-0.161-0.108-0.237l-0.098-0.156c-0.17-0.284-0.6-0.586-0.944-0.396l-0.099,0.062
		c-0.008,0.005-0.276,0.227-0.291,0.452c-0.015,0.311,0.086,0.631,0.158,0.929c0.066,0.261,0.094,0.546-0.149,0.728
		c-0.448,0.197-0.635-0.511-0.646-0.816c-0.009-0.203,0.078-0.386,0.096-0.591c0.002-0.086-0.072-0.115-0.141-0.079
		c-0.031,0.029-0.349,0.321-0.459,0.473c-0.077,0.101-0.188,0.19-0.068,0.288c0.188,0.153,0.271,0.298,0.344,0.526
		c0.117,0.367,0.465,0.591,0.859,0.568c0.225-0.02,0.438-0.147,0.602-0.293C36.349,11.245,36.419,10.903,36.355,10.557"/>
	<polyline points="34.802,9.934 34.803,9.934 34.806,9.929 34.802,9.934 	"/>
	<path d="M39.797,20.496c-0.006,0-0.395-0.016-0.529,0.116c-0.232,0.222-0.401,0.618-0.516,0.936
		c-0.088,0.251-0.226,0.486-0.531,0.502c-0.673-0.246-0.302-0.94-0.054-1.133c0.188-0.144,0.289-0.234,0.413-0.316
		c0,0,0.104-0.12-0.017-0.085l-0.845,0.154c0.07,0.136,0.039,0.395-0.047,0.619c-0.133,0.358-0.023,0.836,0.31,1.042
		c0.188,0.119,0.438,0.141,0.659,0.113c0.375-0.042,0.566-0.297,0.725-0.607c0.193-0.393,0.129-0.636,0.373-0.85l0.177-0.05
		c0.337,0.084,0.181,0.633,0.048,0.812c-0.086,0.121-0.463,0.363-0.427,0.367c0.017,0.005-0.074,0.121,0.06,0.108
		c0.138-0.022,0.551-0.142,0.578-0.153c0.102-0.053,0.047-0.155,0.072-0.278c0.014-0.084,0.061-0.372,0.069-0.433
		C40.357,21.034,40.199,20.543,39.797,20.496"/>
	<path d="M11.664,4.929c-0.313-0.198-0.665-0.138-0.99,0.009h0.017c-0.116,0.046-0.882,0.489-0.93,0.557L9.89,5.617
		c0.207,0.072,0.339,0.186,0.457,0.357c0.138,0.206,0.28,0.412,0.428,0.618c0.116,0.168,0.231,0.333,0.346,0.504
		c0.029,0.078,0.044,0.161,0.046,0.247c0.002,0.06-0.034,0.13,0.04,0.169l0.059-0.031c0.091-0.058,0.179-0.14,0.268-0.205
		c0.145-0.097,0.64-0.457,0.702-0.578c0.141-0.192,0.193-0.414,0.158-0.684C12.34,5.59,12.029,5.167,11.664,4.929 M11.807,6.765
		c-0.13,0.037-0.178-0.077-0.249-0.169c-0.106-0.159-0.216-0.318-0.326-0.479c-0.177-0.258-0.351-0.506-0.525-0.762
		c-0.104-0.109-0.065-0.14,0.032-0.209c0.229-0.102,0.418,0.079,0.552,0.252c0.177,0.219,0.318,0.465,0.464,0.701
		C11.89,6.309,12.048,6.574,11.807,6.765z"/>
	<path d="M16.182,2.534c-0.346-0.074-0.741,0.058-1.068,0.15c-0.142,0.044-0.303,0.095-0.423,0.194l0.016,0.122
		c0.104,0.077,0.217,0.157,0.252,0.285c0.144,0.517,0.293,1.035,0.442,1.55c0.032,0.084,0.025,0.173,0.002,0.254
		c-0.013,0.066-0.074,0.123-0.026,0.188c0.056,0.074,0.377-0.07,0.438-0.097c0.239-0.081,0.489-0.146,0.715-0.273
		c0.688-0.403,0.574-1.241,0.265-1.842C16.666,2.81,16.471,2.6,16.182,2.534 M16.271,4.748c-0.181,0.06-0.191-0.105-0.227-0.239
		c-0.057-0.188-0.115-0.373-0.173-0.563c-0.101-0.306-0.196-0.613-0.296-0.916c-0.02-0.074-0.021-0.132,0.033-0.181
		c0.523-0.193,0.678,0.791,0.754,1.097C16.425,4.215,16.528,4.561,16.271,4.748z"/>
	<path d="M20.105,1.787c-0.369-0.045-0.786,0-1.159,0.054c-0.059,0.007-0.308,0.063-0.246,0.171l0.12,0.14
		c0.046,0.064,0.064,0.145,0.079,0.222c0.051,0.211,0.089,0.425,0.119,0.64c0.044,0.308,0.057,0.618,0.07,0.934
		c0.002,0.08,0.005,0.157,0.011,0.239l-0.074,0.148c-0.055,0.094,0.1,0.115,0.158,0.108c0.341-0.04,0.713-0.041,1.033-0.155
		c0.094-0.03,0.174-0.067,0.25-0.122l0.15-0.116c0.26-0.246,0.346-0.615,0.349-0.954c0-0.312-0.058-0.678-0.229-0.96
		C20.604,1.914,20.362,1.817,20.105,1.787 M19.606,2.055l0.007-0.016l0.004-0.003L19.606,2.055z M20.007,4.061
		c-0.164,0.054-0.188-0.124-0.2-0.249c-0.021-0.206-0.043-0.407-0.066-0.613c-0.034-0.355-0.072-0.707-0.112-1.063l0.009-0.101
		c0.586-0.171,0.539,0.976,0.542,1.267C20.185,3.564,20.227,3.879,20.007,4.061z"/>
	<path d="M14.89,5.179c-0.12-0.096-0.997-1.054-1.288-1.434c-0.063-0.086-0.074-0.209-0.082-0.317l-0.543,0.115l-0.361,0.205
		l0.072,0.165c0.068,0.108,0.075,0.263,0.098,0.378c0.051,0.29,0.081,0.581,0.106,0.873c0.019,0.223,0.03,0.445,0.042,0.666
		c0.006,0.135,0.008,0.265-0.043,0.393c-0.029,0.068-0.108,0.147-0.09,0.223h0.14l0.025-0.017c0.042-0.04,0.112-0.09,0.195-0.138
		L12.98,6.416l0.008-0.001c0.136-0.113,0.51-0.261,0.541-0.271l0.106-0.117c-0.015-0.08-0.2-0.153-0.246-0.221
		c-0.053-0.084-0.083-0.277-0.015-0.35c0.113-0.053,0.495-0.215,0.578-0.227l0.229,0.249l0.02,0.147
		c-0.01,0.069,0.01,0.135,0.094,0.118c0.073-0.013,0.81-0.358,0.818-0.36C15.264,5.294,14.937,5.216,14.89,5.179 M13.67,5.04
		l-0.298,0.116h-0.138l-0.035-0.193c-0.02-0.202-0.059-0.619-0.059-0.636c0.129,0.041,0.431,0.465,0.495,0.532
		C13.688,4.924,13.739,4.98,13.67,5.04z"/>
	<polyline points="12.961,6.437 12.98,6.416 12.966,6.429 12.961,6.437 	"/>
	<path d="M37.148,14.203c0.368-0.35,1.174-1.063,1.195-1.08L38.33,13.13l0.014-0.007l0.338-0.094l0.007-0.003l0.008-0.005h-0.008
		c0.14-0.102-0.312-0.65-0.315-0.776c0-0.093-0.105-0.081-0.094-0.086c-0.021,0.008-0.1,0.019-0.241,0.221l-0.173,0.038
		c-0.459,0.099-1.62,0.207-1.734,0.218c-0.16,0.017-0.291-0.054-0.436-0.019l-0.083,0.019c-0.069,0.043,0.046,0.157,0.067,0.186
		l0.137,0.289c0.027,0.083,0.119,0.069,0.19,0.02l0.165-0.147c0.107-0.048,0.22-0.079,0.331-0.102
		c0.104-0.019,0.146,0.014,0.185,0.096c0.052,0.117,0.114,0.235,0.166,0.354c0.037,0.076,0.072,0.137,0.061,0.217
		c-0.011,0.063-0.372,0.288-0.447,0.309l-0.134,0.018h-0.004c0,0-0.075,0.027-0.063,0.1c0.014,0.075,0.072,0.142,0.11,0.206
		c0.066,0.114,0.091,0.267,0.132,0.387c0.092,0.25,0.213,0.154,0.207,0.154l0.068-0.128C36.86,14.441,37.023,14.319,37.148,14.203
		 M38.353,13.115l0.009-0.005h0.006l0.013-0.007l-0.027,0.016V13.115z M37.324,13.233h-0.005l-0.005,0.003l0.016-0.01L37.324,13.233
		z M37.072,12.786c0.076-0.021,0.576-0.018,0.579-0.021c-0.003,0.003,0.116,0.03,0.042,0.108l-0.396,0.373l0.021-0.014l-0.023,0.018
		l0.002-0.004L37.2,13.245c-0.063-0.07-0.081-0.192-0.114-0.279L37.072,12.786z M36.147,12.997v-0.005h0.005L36.147,12.997z"/>
	<path d="M6.104,12.089c-0.053,0.089,0.087,0.257,0.115,0.335c0.048,0.124,0.052,0.257,0.044,0.383
		c-0.005,0.121-0.021,0.373-0.112,0.487c-0.079-0.003-0.802-0.406-0.843-0.421c-0.013-0.006,0.068-0.253,0.238-0.294
		c0.082-0.018,0.23-0.025,0.265-0.067c0.096-0.128-0.55-0.38-0.715-0.423c-0.142-0.036-0.044,0.286-0.024,0.335
		c0.017,0.038,0.055,0.183-0.041,0.319c-0.182-0.09-0.67-0.331-0.73-0.359c-0.055-0.022,0.165-0.473,0.285-0.498
		c0.131-0.026,0.362-0.074,0.437-0.118c0.106-0.07-0.021-0.147-0.088-0.154c-0.12-0.023-0.239-0.031-0.359-0.059
		c-0.071-0.019-0.139,0.021-0.139,0.021c-0.131,0.09-0.475,0.849-0.57,1.053c-0.03,0.06-0.26,0.406-0.089,0.391l0.089-0.042
		c0.049-0.033,0.076-0.042,0.159-0.033c0.201,0.021,0.396,0.154,0.568,0.25c0.304,0.169,0.613,0.34,0.924,0.508H5.512
		c0.073,0.051,0.3,0.19,0.33,0.229c0.047,0.06,0.024,0.142,0.109,0.161l0.081-0.039l0.807-1.418
		C6.839,12.635,6.264,11.81,6.104,12.089"/>
	<path d="M31.061,6.472c-0.12,0.01-0.235,0.103-0.345,0.132c-0.233,0.05-0.511,0-0.713-0.104c-0.187-0.095-0.136-0.181-0.052-0.311
		c0.127-0.222,0.265-0.439,0.396-0.66c0.076,0.023,0.131,0.068,0.19,0.129c0.115,0.116,0.146,0.216,0.163,0.369
		c0.004,0.097,0.08,0.15,0.158,0.075c0.1-0.105,0.143-0.293,0.205-0.422c0.035-0.069,0.163-0.321,0.074-0.339l-0.248,0.062
		l-0.151-0.021c-0.111-0.034-0.179-0.03-0.246-0.126c0.128-0.193,0.249-0.396,0.397-0.582c0.139-0.012,0.3,0.198,0.361,0.295
		c0.08,0.116,0.138,0.247,0.174,0.379c0.039,0.125,0.164,0.1,0.166,0.1l0.101-0.101c0.038-0.104,0.141-0.389,0.143-0.437
		l-0.229-0.156c-0.35-0.221-0.695-0.45-1.049-0.66c-0.055-0.033-0.369-0.193-0.36,0.002c-0.005,0.069,0.028,0.134,0.02,0.193
		c-0.015,0.143-0.096,0.283-0.163,0.409c-0.188,0.313-0.791,1.279-0.928,1.385c-0.254,0.034-0.232,0.095-0.244,0.103
		c-0.1,0.099,0.217,0.18,0.271,0.203c0.277,0.132,1.018,0.576,1.123,0.647c0.068,0.035,0.127,0.094,0.195,0.117
		c0.008,0,0.15-0.011,0.582-0.501C31.1,6.596,31.22,6.452,31.061,6.472 M29.109,6.1l-0.046,0.018l0.052-0.025L29.109,6.1z"/>
	<path d="M37.663,19.953l0.03,0.119l0.064,0.023c0.006,0,0.536,0.073,0.638,0.092c0.152,0.028,0.196-0.074,0.097-0.115
		c-0.361-0.159-0.584-0.574-0.605-0.795c-0.025-0.196,0.072-0.207,0.227-0.218c0.267-0.022,0.527-0.041,0.794-0.062
		c0.023,0.074,0.015,0.141,0,0.227c-0.041,0.154-0.094,0.197-0.219,0.295c-0.076,0.068-0.057,0.158,0.052,0.134
		c0.149-0.028,0.462-0.125,0.6-0.137c0.144-0.013,0.063-0.089,0.063-0.095c-0.262-0.215-0.208-0.328-0.216-0.362
		c-0.049-0.108-0.012-0.097,0.1-0.101c0.239-0.008,0.472-0.041,0.715-0.035c0.086,0.102,0.018,0.507-0.029,0.612
		c-0.048,0.129-0.19,0.188-0.265,0.308c0,0-0.13,0.161,0.102,0.137l0.451-0.129l0.004-0.174c-0.01-0.41-0.035-0.794-0.064-1.203
		c-0.006-0.196-0.035-0.288-0.038-0.29l-0.136-0.003c-0.058,0.035-0.096,0.09-0.162,0.123c-0.121,0.068-0.707,0.014-0.828,0.095
		c-0.149,0.097-1.04,0.152-1.209,0.104c-0.052-0.035-0.045-0.069-0.14-0.104l0.003,0.002l-0.01-0.002h0.007l-0.007-0.005
		c-0.143-0.023-0.109,0.237-0.102,0.306c0.042,0.284,0.085,0.555,0.097,0.838C37.68,19.678,37.661,19.822,37.663,19.953
		 M37.814,18.499l-0.018-0.003l-0.031-0.027L37.814,18.499z"/>
	<path d="M5.505,14.909c-0.113,0.007-0.185-0.013-0.277-0.076c-0.48-0.338-1.003-0.677-1.419-1.088l-0.112-0.142
		c-0.04-0.066-0.076-0.261-0.15-0.221c-0.166,0.092-0.303,0.605-0.303,0.695c0,0.078,0.141,0,0.141-0.001
		c0.21-0.059,0.587,0.271,0.726,0.374c0.078,0.054,0.627,0.383,0.52,0.52c-0.068,0.023-1.087-0.011-1.197-0.019
		c-0.144-0.004-0.227-0.056-0.341-0.119c-0.07-0.044-0.11,0.019-0.122,0.023v0.005C2.934,14.885,2.771,15.5,2.736,15.6
		c-0.013,0.039,0.05,0.113,0.121,0.056l0.05-0.06l0.198-0.012c0.124,0,2.053-0.063,2.107,0.026c0.139,0.198,0.217,0.058,0.221,0.051
		c0.084-0.134,0.121-0.317,0.174-0.464l0.08-0.291L5.505,14.909"/>
	<path d="M24.089,6.158c-0.285-0.161-0.501-0.418-0.734-0.643c-0.111-0.115-0.229-0.228-0.349-0.337l-0.168-0.134
		c-0.002,0.023,0.227,0.32,0.33,0.446c0.265,0.293,0.56,0.55,0.9,0.758L24.089,6.158"/>
	<path d="M25.962,6.438c-0.548-0.242-0.959-0.647-1.406-0.996c-0.215-0.178-0.44-0.355-0.674-0.527l-0.318-0.205
		c-0.003,0.032,0.434,0.499,0.636,0.694c0.499,0.459,1.075,0.856,1.725,1.181C25.93,6.584,26.066,6.487,25.962,6.438"/>
	<path d="M22.756,6.838c-0.105-0.105-0.205-0.207-0.338-0.288c-0.082-0.054-0.337-0.165-0.422-0.048v0.004
		c0.082,0.081,0.162,0.255,0.168,0.359c0.01,0.137,0.006,0.31,0.167,0.34c0.101,0.019,0.31-0.066,0.317-0.072l0.005-0.003
		c-0.206,0.081-0.354-0.027-0.324-0.23c0.019-0.195-0.123-0.289-0.132-0.303c0.156,0.104,0.184,0.068,0.451,0.384
		c0.072,0.083,0.251,0.168,0.374,0.105l0.119-0.09C22.98,7.057,22.861,6.943,22.756,6.838"/>
	<path d="M26.982,16.874c0.326,0.163,0.724,0.172,1.045,0.014c0.525-0.257,0.645-0.83,0.713-1.122l-0.105,0.059
		c-0.07,0.244-0.352,0.882-1.143,0.913c-0.748,0.034-1.191-0.387-1.199-0.378C26.499,16.561,26.725,16.742,26.982,16.874"/>
	<path d="M27.733,18.855c0.274,0.094,0.666,0.215,0.833,0.449c0,0.008,0.007,0.466,0.023,0.771c0.02,0.328-0.09,0.708-0.374,0.916
		l0.115-0.063c0.417-0.311,0.417-0.953,0.368-1.408c-0.027-0.291,0.178-0.512,0.431-0.675c-0.158,0.099-0.348,0.218-0.462,0.38
		C28.466,18.996,27.758,18.862,27.733,18.855"/>
	<path d="M30.33,23.313l0.049-0.157c-0.222-1.061-1.806-1.098-1.842-1.102C29.364,22.248,29.967,22.532,30.33,23.313"/>
	<path d="M19.398,20.896c0.279-0.06,0.586,0.244,0.753,0.442c0.351,0.421,0.699,0.849,0.997,1.304
		c0.063,0.1,0.124,0.201,0.172,0.307l0.066,0.064c0.117-0.007,0.354,0.057,0.473,0.054c0.49-0.015,0.917-0.01,1.403-0.024
		c0.786-0.017,1.67,0.019,2.384-0.105l0.048-0.098c-0.794,0.023-1.577,0-2.381,0.023c-0.485,0.009-0.912,0-1.398,0.014
		c-0.12,0-0.454,0.047-0.475,0.004c-0.054-0.114-0.124-0.226-0.19-0.338c-0.311-0.455-0.658-0.892-1.015-1.312
		c-0.227-0.271-0.644-0.563-1.01-0.381c-0.112,0.053-0.155,0.162-0.231,0.26C19.017,21.075,19.297,20.922,19.398,20.896"/>
	<path d="M18.328,28.528c0.574,0.262,1.294,0.416,1.903,0.196l0.117-0.068c-0.606,0.22-1.323,0.063-1.897-0.192
		c-0.702-0.316-1.354-0.785-1.908-1.307c-0.57-0.547-1.426-1.967-1.426-1.967c0.267,0.729,0.719,1.462,1.275,2
		C16.951,27.734,17.615,28.2,18.328,28.528"/>
	<path d="M20.945,30.367c-0.086-0.077-0.199-0.017-0.305-0.034c-1.851-0.137-3.21-1.098-3.217-1.091
		c0.646,0.692,1.551,1.137,2.493,1.328C20.779,30.739,21.013,30.431,20.945,30.367"/>
	<path d="M22.815,30.515c-0.137,0.635-0.885,0.954-0.893,0.956C22.657,31.471,22.849,30.879,22.815,30.515"/>
	<path d="M16.046,27.42c0.193,0.52,0.665,1.396,1.108,2.021c0.24,0.351,0.544,0.653,0.807,0.989
		c0.221,0.289,0.528,0.644,0.552,1.028l0.14,0.188c0.004,0.004,0.098-0.541-0.555-1.265C17.074,29.256,16.045,27.409,16.046,27.42"
		/>
	<path d="M16.113,30.29c-0.018-0.251-0.051-0.506-0.098-0.761c-0.086-0.473-0.215-0.963-0.457-1.388l-0.012,0.004l-0.166,0.098
		c0.166,0.193,0.243,0.43,0.323,0.664c0.088,0.296,0.154,0.6,0.206,0.904c0.07,0.385,0.104,0.77,0.158,1.153l0.045-0.021l0.014-0.01
		l0.005-0.258C16.127,30.546,16.12,30.418,16.113,30.29"/>
	<path d="M27.389,23.283l0.064-0.028c0.084-0.063-0.832-1.018-1.435-1.258l-0.046,0.023C26.987,22.621,27.393,23.28,27.389,23.283"
		/>
	<path d="M36.701,22.902c0.011,0-0.28-0.192-0.248-0.281l-0.091-0.007C36.279,22.7,36.533,22.874,36.701,22.902"/>
	<path d="M25.73,4.555l-0.007,0.006c-0.012,0.082,0.229,0.279,0.274,0.332c0.2,0.264,0.36,0.553,0.486,0.851
		c0.113,0.271,0.191,0.57,0.201,0.867c-0.18-0.319-0.443-0.596-0.688-0.857L25.94,5.796c0.32,0.401,0.544,0.725,0.714,1.152v0.003
		l-0.025,0.104l0.115,0.084l0.074-0.063c0.081-0.145,0.119-0.301,0.123-0.466c0.01-0.332-0.138-0.658-0.306-0.944
		C26.477,5.394,25.762,4.555,25.73,4.555 M26.652,7.042l-0.008,0.006l0.008-0.01V7.042z"/>
	<path d="M6.677,30.839l0.024-0.26c0.146,0.029,0.461,0.005,0.555-0.033c0.299-0.128,0.398-0.439,0.344-0.743l-0.001-0.019
		c-0.057-0.286-0.445-0.811-0.458-0.84l-0.229-0.337l-0.173,0.122c-0.112,0.061-0.267,0.074-0.392,0.1
		c-0.291,0.065-1.354,0.154-1.586,0.172c-0.14,0.01-0.266,0.02-0.402-0.025c-0.076-0.027-0.117-0.119-0.196-0.093l-0.024,0.091
		c-0.005-0.007,0.232,0.248,0.289,0.541c0.009,0.015,0.383-0.26,0.69-0.101c0.056,0.106,0.38,0.662,0.362,0.831
		c-0.066,0.138-0.375,0.363-0.375,0.363l0.007,0.064l0.006-0.008l0.259,0.451c0.006,0.019,0.111,0.164,0.144-0.029
		c0.026-0.143,0.192-0.481,0.306-0.583c0.102-0.099,0.204-0.193,0.298-0.289l0.118,0.114c0.096,0.119,0.195,0.195,0.099,0.424
		c-0.101,0.249-0.417,0.64-0.483,0.823c-0.037,0.099,0.199,0.412,0.199,0.412c0.064,0.061,0.078,0,0.121-0.077
		C6.353,31.51,6.703,31.074,6.677,30.839 M5.994,29.661c-0.101,0.063-0.161,0.178-0.263,0.237l-0.273-0.561l0.206-0.042
		c0.202-0.03,0.595-0.078,0.593-0.024C6.211,29.397,6.016,29.642,5.994,29.661z M6.271,29.991c0.161-0.146,0.641-0.861,0.704-0.777
		c0.06,0.076,0.207,0.23,0.213,0.381c-0.016,0.197-0.209,0.485-0.37,0.561C6.638,30.235,6.377,30.139,6.271,29.991z"/>
	<path d="M9.318,32.698c0,0,0.25-0.312,0.271-0.066c0,0,0.041,0.422,0.206,0.215c0,0,0.106-0.176,0.215-0.234
		c0,0,0.182-0.011-0.018-0.188l-0.839-0.809c0,0-0.083-0.215-0.265-0.012l-0.134,0.133c0,0-0.171,0.146,0.068,0.18
		c0,0,0.22,0.021,0.29,0.238l-0.77,0.733c0,0-0.08,0.147-0.187-0.016l-0.41-0.486c0,0-0.156-0.208-0.218,0.049
		c0,0-0.033,0.296-0.417,0.376c0,0-0.209,0.041-0.331-0.236c0,0-0.072-0.146,0.249-0.458l0.913-0.853c0,0,0.166-0.195,0.347-0.074
		c0,0.006,0.17,0.155-0.104,0.426l0.225,0.196c0,0,0.176-0.138,0.25-0.271c0.02-0.065,0.196-0.399-0.195-0.619
		c0,0-0.389-0.408-1.033,0.092c0,0-1.117,0.699-0.936,1.464c0,0,0.263,0.728,0.951,0.642c0,0,0.266,0.01,0.378-0.203
		c0,0,0.029-0.123,0.146,0.053c0,0,0.144,0.1-0.003,0.225c0,0-0.166,0.279-0.413,0.303c0,0-0.184,0.001-0.043,0.18l0.308,0.325
		c0,0,0.169,0.148,0.213-0.041C8.032,33.961,8.507,33.323,9.318,32.698"/>
	<path d="M11.646,33.769c0,0-0.14-0.052-0.38,0.114l-0.9,0.61c0,0-0.139,0.024-0.127-0.127c0,0,0.186-0.606,0.22-0.734
		c0,0,0.199-0.605,0.046-0.727c0,0-0.167-0.226-0.324-0.047l-1.596,1.496c0,0-0.204,0.167-0.047,0.293l0.202,0.201
		c0,0,0.138,0.143,0.192-0.047c0,0,0.02-0.133,0.174-0.3l0.644-0.622c0,0,0.069-0.108,0.082,0.033l-0.315,1.282
		c0,0-0.084,0.357,0.178,0.261l1.279-0.839c0,0,0.153-0.134,0.103,0.103l-0.555,1.251c0,0-0.087,0.129,0.052,0.226l0.177,0.131
		c0,0,0.186,0.131,0.217-0.04l0.813-2.102C11.778,34.186,11.922,33.886,11.646,33.769"/>
	<path d="M13.664,34.989l-0.205-0.102c0,0-0.214-0.131-0.318,0.115c0,0-0.017,0.169-0.299,0.404l-0.502,0.427
		c0,0-0.112,0.079-0.077-0.065l0.332-1.025c0,0,0.176-0.271-0.181-0.418c0,0-0.212-0.193-0.289,0.068l-0.626,2.129
		c0,0-0.138,0.188,0.069,0.274l0.154,0.111c0,0,0.209,0.073,0.312-0.062l1.669-1.63C13.703,35.217,13.885,35.084,13.664,34.989"/>
	<path d="M14.283,35.28c-0.153-0.101-0.082-0.047-0.082-0.047s-0.199-0.149-0.334,0.105l-0.977,1.865c0,0-0.253,0.227-0.04,0.275
		l0.191,0.099c0,0,0.146,0.109,0.245-0.059l0.957-1.887C14.244,35.633,14.433,35.375,14.283,35.28"/>
	<path d="M18.875,36.897c0,0-0.258-0.133-0.348,0.003l-0.801,1.128c0,0-0.111,0.188-0.052-0.608c0,0,0.205-0.368-0.111-0.343
		c0,0-0.374-0.107-0.421,0.305c0,0,0.012,0.188,0.062,0.32l0.122,1.134c0,0-0.016,0.164,0.141,0.183c0,0,0.154,0.066,0.309-0.147
		l1.166-1.758C18.941,37.113,19.125,36.96,18.875,36.897"/>
	<path d="M19.607,37.541c0.135-0.259,0.354-0.026,0.354-0.026c0.162,0.153,0.22-0.051,0.22-0.051
		c0.112-0.199-0.029-0.242-0.029-0.242c-0.241-0.167-0.629-0.089-0.629-0.089c-0.713,0.207-0.164,1.031-0.164,1.031
		c0.601,0.745,0.072,0.831,0.072,0.836c-0.473,0.012-0.537-0.343-0.537-0.343c-0.173-0.254-0.301-0.016-0.301-0.016l-0.143,0.211
		c-0.104,0.214,0.13,0.28,0.13,0.28c0.926,0.538,1.33,0.136,1.33,0.136c0.665-0.589,0.118-1.11,0.118-1.11
		C19.455,37.63,19.607,37.541,19.607,37.541"/>
	<path d="M17.456,36.626c0,0,0.052-0.204-0.194-0.231c0,0-0.146-0.01-0.502-0.149c0,0-0.361-0.228-0.524-0.034
		c0,0-0.246,0.355-0.002,0.365c0,0,0.191-0.096,0.277-0.061c0,0,0.089-0.058,0.032,0.174l-0.568,1.487c0,0-0.047,0.265-0.342,0.016
		c0,0-0.115-0.103-0.146-0.479c0,0-0.001-0.363-0.12-0.519c0,0,0.264-0.057,0.441-0.304c0,0,0.227-0.328,0.107-0.719
		c0,0-0.096-0.248-0.383-0.347l-0.65-0.282c0,0-0.304-0.137-0.237,0.138c0,0,0.011,0.21-0.101,0.41l-0.775,1.543
		c0,0-0.158,0.212,0.063,0.276l0.299,0.138c0,0,0.164,0.132,0.212-0.067c0,0,0.063-0.354,0.186-0.566l0.168-0.381
		c0,0,0.37,0.066,0.408,0.675c0,0-0.064,0.763,0.485,0.89c0,0,0.629,0.229,0.838-0.299l0.543-1.436c0,0-0.015-0.199,0.127-0.171
		c0,0,0.057-0.032,0.154,0.054C17.252,36.747,17.457,36.847,17.456,36.626 M14.933,36.864c-0.227,0.004-0.104-0.185-0.104-0.185
		l0.312-0.636c0.043-0.18,0.151-0.078,0.151-0.078l0.186,0.126c0.173,0.19-0.102,0.658-0.102,0.658
		C15.292,36.933,14.933,36.864,14.933,36.864z"/>
	<path d="M23.053,37.286c0,0-0.914-0.086-0.836,0.95c0.082,1.042,1.081,0.832,1.081,0.832s0.543-0.183,0.514-1.001
		C23.793,37.375,23.053,37.286,23.053,37.286 M23.006,38.789c0,0-0.307,0.089-0.338-0.646C22.635,37.433,23,37.53,23,37.53
		s0.381,0.048,0.38,0.56C23.371,38.858,23.006,38.789,23.006,38.789z"/>
	<path d="M28.764,37.646c0,0-0.165-0.04-0.425-0.39c0,0-0.292-0.354-0.499-0.374c0,0,0.398-0.369,0.278-0.763
		c0,0-0.028-0.584-0.787-0.416l-0.517,0.139c0,0-0.152-0.02-0.081,0.261c0,0,0.161,1.39,0.088,1.751c0,0-0.322-0.489-0.426-0.606
		c0,0-0.461-0.701-0.425-0.841c0,0,0.083-0.356-0.12-0.211c0,0-0.3,0.16-0.412,0.154c0,0-0.239-0.033,0.088,0.25
		c0,0,0.161,0.065,0.503,0.637l0.729,1.136c0,0,0.139,0.253,0.332,0.128c0,0,0.187-0.023,0.204-0.237l-0.014-1.083
		c0,0,0.018-0.288,0.343-0.061c0,0,0.082,0.049,0.419,0.479c0,0,0.324,0.488,0.743,0.284C28.786,37.883,29.005,37.755,28.764,37.646
		 M27.448,36.808c-0.194,0.14-0.161-0.04-0.161-0.04l-0.035-0.634c-0.037-0.26,0.196-0.201,0.196-0.201
		c0.245-0.023,0.282,0.428,0.282,0.428C27.758,36.674,27.448,36.808,27.448,36.808z"/>
	<path d="M29.902,36.935l-0.83-1.61c-0.125-0.188,0.265-0.145,0.265-0.145c0.238-0.091,0.009-0.269,0.009-0.269
		c-0.131-0.188-0.267-0.02-0.267-0.02c-0.088,0.064-0.879,0.433-0.879,0.433c-0.267,0.047-0.173,0.194-0.173,0.194l0.088,0.197
		c0.141,0.197,0.205-0.013,0.205-0.013l0.109-0.206c0.173-0.145,0.253,0.01,0.253,0.01l0.215,0.418
		c0.13,0.185-0.009,0.209-0.009,0.209l-0.25,0.162c-0.264,0.159-0.029,0.334-0.029,0.334c0.117,0.152,0.418-0.114,0.418-0.114
		c0.164-0.139,0.188,0.015,0.188,0.015l0.223,0.42c0.123,0.262-0.014,0.268-0.014,0.268l-0.222,0.057
		c-0.249,0.047-0.143,0.313-0.143,0.313c0.056,0.178,0.298,0.04,0.298,0.04l0.695-0.363C30.216,37.128,29.902,36.935,29.902,36.935"
		/>
	<path d="M30.669,35.079c0,0-0.656-0.003-0.406-0.438c0,0,0.453-0.371,0.551-0.018c0,0,0.02,0.287,0.247,0.087
		c0,0,0.168-0.189,0-0.399c0,0-0.154-0.432-0.896-0.11c-0.577,0.238-0.333,0.857-0.333,0.857s0.037,0.447,0.993,0.477
		c0,0,0.726-0.029,0.445,0.572c0,0-0.165,0.266-0.569,0.097c0,0-0.43-0.211-0.414,0.265c0,0,0.039,0.261,0.707,0.252
		c0,0,0.965-0.103,0.788-1.009C31.782,35.712,31.742,35.116,30.669,35.079"/>
	<path d="M33.122,35.052c-0.185-0.076-0.29-0.205-0.29-0.205l-0.94-1.266c-0.115-0.098-0.013-0.156-0.013-0.156
		c0.046-0.092,0.295-0.147,0.295-0.147c0.208-0.138,0.013-0.28,0.013-0.28c-0.143-0.194-0.279-0.027-0.279-0.027L31.1,33.601
		c-0.209,0.139-0.127,0.256-0.127,0.256l0.088,0.189c0.115,0.163,0.203-0.035,0.203-0.035c0.018-0.069,0.151-0.226,0.151-0.226
		c0.119-0.119,0.17,0.01,0.17,0.01l0.843,1.166c0.128,0.13,0.208,0.438,0.208,0.438c0.082,0.256,0.31,0.061,0.31,0.061l0.182-0.143
		C33.182,35.226,33.307,35.127,33.122,35.052"/>
	<path d="M33.543,32.237c0,0-0.104-0.16-0.107-0.462c0,0-0.016-0.286-0.197-0.069l-0.277,0.25c0,0-0.214,0.249,0.019,0.309
		c0,0,0.14-0.057,0.239,0.244l0.615,1.367c0,0,0.058,0.088-0.072,0.067l-1.004-0.495c0,0-0.202-0.125-0.298,0.049
		c0,0-0.275,0.215,0.105,0.35l1.316,0.586c0,0,0.085,0.119,0.221,0.007l0.162-0.125c0,0,0.112-0.059,0.021-0.313L33.543,32.237"/>
	<path d="M34.468,30.82c0,0-0.44-0.051-0.733,0.34c0,0-0.098,0.204-0.18,0.188c0,0-0.216,0.184,0.086,0.311
		c0,0,0.348,0.12,1.283,1.218c0,0,0.079,0.004,0.133,0.304c0,0,0.057,0.394,0.319,0.102l0.579-0.699c0,0,0.29-0.489-0.173-0.917
		C35.782,31.666,35.032,30.813,34.468,30.82 M35.428,32.68l-1.237-1.126c-0.313-0.141-0.088-0.355-0.088-0.355
		c0.218-0.196,0.591,0.095,0.591,0.095c0.415,0.237,0.817,0.756,0.817,0.756C35.744,32.392,35.428,32.68,35.428,32.68z"/>
	<path d="M36.739,31.247c0,0-0.147-0.021-0.509-0.264c0,0-0.978-0.753-1.166-0.854c0,0-0.27-0.384-0.48-0.046
		c0,0-0.192,0.194,0.109,0.289l1.719,1.221c0,0,0.14,0.197,0.255,0.055l0.135-0.135C36.802,31.513,36.951,31.332,36.739,31.247"/>
	<path d="M38.436,28.073l-1.813-0.449c0,0-0.451-0.223-0.527-0.013c0,0-0.138,0.157,0.135,0.364l0.402,0.387
		c0,0,0.173,0.146-0.091,0.112l-0.521-0.14c0,0-0.23-0.131-0.329,0.114c0,0-0.164,0.136,0.143,0.425c0,0,1.061,0.993,1.089,1.133
		c0,0-0.323-0.084-1.495-0.565c0,0-0.26-0.297-0.417,0.048c0,0-0.178,0.225,0.179,0.332l1.979,0.693c0,0,0.253,0.076,0.336-0.09
		c0,0,0.175-0.17-0.03-0.386l-1.087-1.175c0,0-0.108-0.088,0.067-0.082l0.984,0.268c0,0,0.25-0.004,0.1-0.176l-0.809-0.816
		c0,0,1.561,0.271,1.576,0.501c0,0,0.184,0.201,0.239-0.056l0.084-0.168C38.63,28.335,38.79,28.063,38.436,28.073"/>
	<path d="M17.949,2.85c-0.231,0.004-0.412,0.196-0.395,0.381c-0.005,0.197,0.172,0.362,0.402,0.354
		c0.207,0.005,0.387-0.166,0.387-0.362C18.348,3.01,18.164,2.872,17.949,2.85"/>
	<path d="M23.96,2.676c-0.233-0.002-0.412,0.189-0.396,0.381c-0.001,0.196,0.172,0.362,0.4,0.355c0.209-0.006,0.393-0.17,0.39-0.364
		C24.361,2.838,24.17,2.695,23.96,2.676"/>
	<path d="M36.383,11.829c-0.007,0.2,0.162,0.363,0.396,0.358c0.209-0.002,0.39-0.171,0.39-0.363c0-0.211-0.181-0.354-0.398-0.375
		C36.541,11.449,36.362,11.642,36.383,11.829"/>
	<polyline points="38.146,26.086 38.148,26.079 38.146,26.086 	"/>
	<path d="M41.085,20.331C40.937,9.644,32.067,1.067,21.208,1.067h-0.259C10.066,1.207,1.357,9.915,1.357,20.566
		c0,0.09,0,0.177,0,0.268c0.149,10.684,9.015,19.269,19.869,19.269c0.088,0,0.176,0,0.264-0.005
		c10.887-0.138,19.599-8.846,19.599-19.494C41.089,20.516,41.089,20.426,41.085,20.331 M1.821,23.301
		c0.157,0.153,0.331,0.223,0.563,0.349c0.216,0.114,0.417,0.188,0.637,0.233c-0.188,0.085-0.402,0.173-0.372,0.446
		c0.003,0.021,0.026,0.328,0.025,0.396c-0.012,0.197-0.037,0.303-0.116,0.483c-0.085,0.193,0.104,0.487,0.204,0.658l-0.057,0.266
		c-0.043,0.421,0.453,0.958,0.764,1.127c0.077,0.188,0.238,0.343,0.406,0.455c0.104,0.064,0.318,0.138,0.275,0.278
		c-0.493-0.206-0.957-0.533-1.377-0.908C2.333,25.873,2.01,24.61,1.821,23.301z M3.679,24.402c-0.025,0.241-0.121,1.285,0.033,1.649
		c-0.128,0.059-0.331,0.255-0.294,0.449c-0.166-0.1-0.217-0.394-0.209-0.415c0.024-0.064,0.024-0.143,0.019-0.209
		c-0.007-0.12-0.069-0.396-0.097-0.427c-0.045-0.07-0.053-0.162-0.04-0.247c0.007-0.103,0.024-0.169,0.072-0.252
		c0.089-0.155,0.07-0.563,0.064-0.571l-0.122,0.073c0,0,0.015,0.374-0.063,0.55c-0.037,0.09-0.079,0.141-0.092,0.244
		c-0.018,0.127,0.074,0.227,0.1,0.346c0.059,0.267-0.013,0.483-0.021,0.539c-0.006,0.029,0.287,0.636,0.378,0.816h0.002l0.009,0.129
		c-0.77-0.676-0.507-1.175-0.535-1.214c-0.037-0.064-0.07-0.206-0.094-0.276c-0.065-0.201-0.052-0.417,0.012-0.617
		c0.05-0.15,0.11-0.319,0.069-0.479c-0.108-0.421,0.224-0.488,0.407-0.559c0.039,0.004,0.335,0.035,0.435,0.046
		C3.656,24.104,3.696,24.265,3.679,24.402z M3.801,24.333c0.008-0.127,0.043-0.247,0.119-0.337c0.04,0.007,0.428,0.063,0.574,0.099
		c0.012,0.173,0.085,0.682,0.562,1.207c-0.024,0.144-0.216,0.267-0.267,0.419c-0.078,0.251-0.266,0.571-0.243,0.803
		c-0.095-0.058-0.185-0.133-0.263-0.188l-0.041-0.025l0.007-0.007c-0.071-0.308,0.569-0.762,0.384-0.883
		c-0.033-0.006-0.054,0-0.121,0.072c-0.158,0.182-0.367,0.458-0.391,0.716c-0.104-0.089-0.215-0.207-0.274-0.343
		c-0.011-0.125-0.028-0.279-0.042-0.429c0.054-0.152,0.192-0.302,0.319-0.414l0.06-0.049l0.003-0.001l-0.003,0.001l0.093-0.098
		c0.067-0.035,0.067-0.075,0.036-0.125c-0.099-0.093-0.145-0.047-0.229,0.01l-0.142,0.126c-0.067,0.052-0.126,0.096-0.164,0.149
		C3.773,24.802,3.775,24.568,3.801,24.333z M7.946,24.001c0.195,0.094,0.132,0.255,0.049,0.415C7.943,24.52,7.835,24.592,7.79,24.7
		c-0.06,0.156,0.058,0.294,0.058,0.54l0.099,0.354c-0.013,0.141-0.268,0.271-0.479,0.257l-0.109,0.196
		c-0.018,0.104-0.02,0.205-0.061,0.307c-0.062,0.157-0.238,0.273-0.377,0.365c-0.115,0.075-0.158,0.195-0.212,0.318
		c0.023,0.051-0.251,0.162-0.411,0.173c-0.268,0.025-0.143,0.357-0.166,0.402l-0.195,0.143c-0.115,0.072-0.171,0.274-0.192,0.415
		l-0.166,0.016c-0.036-0.39,0.11-0.803,0.231-1.168c0.169-0.49,0.392-0.967,0.633-1.432c0.298-0.593,0.6-1.149,0.967-1.701
		c-0.019,0.036-0.037-0.07-0.133,0.029c-0.363,0.546-1.658,2.754-1.715,3.049c-0.01,0.043-0.127,0.053-0.201,0.03
		c-0.047-0.117-0.06-0.25-0.006-0.374c-0.018,0.032-0.322,0.204-0.058,0.563c0,0.135-0.1,0.521,0.108,0.637
		c0.039,0.119,0.116,0.4-0.078,0.381c-0.172-0.166-0.283-0.468-0.302-0.67c-0.002-0.083,0.081-0.161,0.026-0.284
		c-0.074-0.145-0.179-0.252-0.118-0.389c0.022-0.067,0.201-0.401,0.077-0.523c-0.301-0.282-0.157-0.527-0.023-0.73
		c0.064-0.091,0.294-0.135,0.213-0.419c-0.025-0.092-0.048-0.144-0.072-0.229c-0.074-0.26,0.141-0.423,0.351-0.55
		c0.151-0.068,0.532-0.404,0.574-0.404c0.564,0.031,0.517-0.202,0.608-0.33c0.071-0.104,0.15-0.165,0.282-0.145
		c0.11,0.023,0.17,0.018,0.277-0.021c0.171-0.064,0.394-0.225,0.565-0.201c0.139,0.018,0.086,0.137,0.038,0.384
		C7.797,23.805,7.802,23.924,7.946,24.001z M5.051,25.197l0.01,0.077c-0.119-0.212-0.478-0.916-0.362-1.125
		c0.071,0.024,0.15,0.055,0.225,0.091c0.12,0.06,0.284,0.089,0.378,0.18C5.282,24.42,4.729,24.307,5.051,25.197z M3.855,26.132
		v-0.006l0.02,0.006c0.133,0.114,0.15,0.175,0.293,0.273c0.121,0.086,0.269,0.205,0.427,0.273c0.046,0.111,0.087,0.094,0.095,0.285
		c0.009,0.203-0.095,0.415-0.074,0.61c0.018,0.204,0.113,0.466,0.284,0.616c-0.117-0.014-0.231-0.035-0.346-0.066
		c-0.019-0.39-0.626-0.522-0.657-0.547c-0.096-0.072-0.182-0.168-0.251-0.268c-0.132-0.208-0.081-0.427-0.111-0.657
		C3.473,26.246,3.843,26.126,3.855,26.132z M21.49,39.851h-0.264c-8.293,0-15.415-5.082-18.27-12.282
		c1.894,1.733,3.741,0.452,3.88,0.321c1.239,2.287,3.078,4.261,5.298,5.711c1.689,1.098,3.541,1.994,5.529,2.42
		c0.043,0.242,0.178,0.497,0.45,0.546c0.164,0.03,0.298-0.042,0.306-0.049c0.126,0.6,1.092-0.141,1.229-0.262
		c-0.031,0.029-1.067,0.573-1.116,0.28c-0.02-0.09,0.065-0.151,0.12-0.184c0.138-0.094,0.431-0.308,0.441-0.317
		c-0.462,0.243-0.682,0.387-0.684,0.392c-0.193,0.028-0.357,0.02-0.446-0.162c-0.061-0.109-0.011-0.271-0.007-0.275
		c0.197-0.027,0.391-0.085,0.582-0.133c0.953-0.246,2.125-1.229,2.229-1.618c0.907-0.347,2.397-0.566,2.862-0.613
		c0.168,0.282,0.371,0.548,0.445,0.874c0.095,0.384-0.064,0.79-0.41,1.011c-0.041,0.031-1.585,0.867-1.66,0.929
		c-0.388,0.324-1.109,0.42-1.115,0.42c0,0-0.308,0.223-0.507,0.196c-0.305-0.042,0.043-0.323,0.153-0.417h-0.012
		c-0.005,0.002-0.517,0.359-0.74,0.327c-0.196-0.03-0.179-0.144-0.056-0.233c0.185-0.125,0.403-0.31,0.403-0.31
		c-0.015,0.008-0.557,0.346-0.695,0.38c-0.281,0.076-0.331-0.128-0.331-0.128c-0.027,0.037-0.018,0.332,0.371,0.231
		c0.099,0.233,0.407,0.208,0.654,0.06c-0.026,0.302,0.271,0.269,0.528,0.19l0.026,0.04l-0.083,1.784c0,0,0.024,0.163-0.027,0.231
		c0,0-0.173,0.228,0.096,0.232l0.282,0.012c0,0,0.245,0.049,0.216-0.17l-0.009-0.841c0,0,0.25-0.231,0.456,0.347
		c0,0,0.344,0.869,0.992,0.551c0,0,0.197-0.119-0.076-0.175c0,0-0.278,0.061-0.554-0.559c0,0-0.093-0.205-0.268-0.331
		c0,0,0.387-0.093,0.373-0.647c0,0,0.059-0.426-0.506-0.524l-0.694-0.034c0.074-0.034,0.124-0.061,0.132-0.065
		c0.631-0.053,1.02-0.385,1.161-0.508l1.27-0.171c0.107,0.153,0.338,0.066,0.417,0.039c0.003,0.098,0.074,0.162,0.163,0.21
		c-0.021,0.024-0.071,0.079-0.151,0.089c0,0-0.207,0.038-0.031,0.282c0,0,0.103,0.026,0.224,0.97c0,0,0.111,0.74,0.103,0.975
		c0,0-0.155,0.357,0.122,0.31c0,0,0.092-0.045,0.492-0.085c0,0,0.59-0.144,0.674-0.186c0,0,0.472-0.119,0.348-0.824
		c0,0-0.083-0.354-0.441-0.451c0,0-0.126-0.021-0.048-0.144c0,0,0.369-0.715-0.361-0.983l-0.036,0.008
		c0.257-0.164,0.473-0.428,0.611-0.641l0.041-0.057c2.875-0.799,5.566-2.488,7.567-4.623c1.759-1.881,3.032-4.209,3.679-6.672
		c0.123-0.077,0.227-0.146,0.316-0.199c-0.055,0.089-0.044,0.165-0.136,0.344c-0.075,0.165,0.07,0.028,0.07,0.028
		c0.191-0.249,1.003-0.846,1.077-0.88c-0.092,0.212,0.062,0.65,0.037,0.953c-0.037,0.38-0.161,0.703-0.285,1.066
		c0,0,0.005,0.021-0.401,1.047c-0.063,0.173,0.052,0.384,0.151,0.521l-0.422-0.158c-0.123-0.051-0.174-0.066-0.316-0.072
		l-0.237-0.088l-0.188-0.446c-0.035-0.093-0.151-0.068-0.115,0.069c-0.01,0.492,0.41,0.598,0.441,0.619
		c0.115,0.087,0.781,0.024,0.964,0.223c0.008,0.005,0.021-0.121,0.06-0.259c0.01-0.079,0.037-0.155,0.055-0.236
		c0.02-0.087,0.04-0.171,0.07-0.253l0.004-0.021c0.021-0.097,0.968-2.229,1.499-3.006c0.28-0.328,0.481-0.396,0.754-0.51
		l0.005,0.011l-0.008,0.007c0.022,0.133,0.036,0.271,0.043,0.403c0.027,0.88-0.297,1.734-0.73,2.514
		c-0.127,0.224-0.354,0.4-0.51,0.607l-0.13-0.02l-0.11-0.007h-0.063l0.017-0.042l0.027-0.037c0.063-0.094,0.092-0.207,0.148-0.298
		c0.141-0.23,0.333-0.447,0.466-0.69c0.074-0.14,0.152-0.271,0.228-0.412c0.075-0.149,0.117-0.306,0.189-0.46
		c0.076-0.154,0.135-0.299,0.178-0.461c0.045-0.165,0.162-0.322,0.17-0.496l-0.039-0.16l-0.257,0.041
		c-0.091,0.064-0.124,0.215-0.174,0.306c-0.071,0.12-0.072,0.222-0.106,0.354c-0.04,0.157-0.143,0.287-0.216,0.426
		c-0.087,0.162-0.128,0.342-0.202,0.507c-0.076,0.16-0.156,0.321-0.248,0.48c-0.088,0.153-0.15,0.325-0.25,0.478
		c-0.063,0.099-0.088,0.179-0.097,0.279l-0.075,0.146c-0.158,0.305-0.519,0.553-0.53,0.88c0,0,0.066,0.017,0.114-0.065
		c0.197-0.295,0.377-0.545,0.615-0.705V26.87c0.152,0,0.299,0.027,0.426,0.104c0.002,0.005,0.184,0.184-0.229,0.638
		c-0.14-0.01-0.279-0.028-0.42-0.059c-0.305-0.05-0.267,0.126-0.267,0.126c0.441,0.077,0.935,0.115,1.313-0.092
		C36.681,34.681,29.71,39.745,21.49,39.851z M20.757,32.067c-0.085-0.19-0.265-0.416-0.226-0.639
		c-0.07-0.133-0.209,0.022-0.27,0.096c-0.102,0.13-0.419,0.609-0.594,0.701c-0.066,0.011-0.126-0.058-0.154-0.104l0.059-0.134
		l-0.604,0.006c-0.092,0-0.456,0.062-0.879-0.056c-0.283-0.078-0.576-0.086-0.868-0.113c-0.235-0.029-0.479-0.009-0.706,0.035
		c-0.063,0.01-0.323,0.023-0.314-0.384c0.002-0.128-0.251-0.212-0.345-0.26c-0.225-0.103-0.636-0.143-0.608-0.16h0.003
		c-0.11-0.011-0.118-0.191-0.128-0.265c-0.033-0.215-0.072-1.607-0.029-2.081c0.092-1.007-0.139-1.998-0.305-2.995
		c-0.074-0.451-0.214-0.938-0.197-1.396c0.043-1.549,1.627-2.349,1.642-2.359c0.447-0.006,1.382-0.019,1.401-0.019
		c-0.207,0.064-2.225,0.745-1.918,2.402c0.133,0.732,0.502,1.414,0.91,2.031c0.445,0.678,1.615,1.845,1.625,1.845
		c-0.705-0.785-1.438-1.958-1.786-2.558c-1.27-2.158-0.027-2.801,0.289-3.056c0.525-0.419,1.523-0.636,1.539-0.64
		c0.06,0.441,0.707,0.297,0.707,0.297c0.113,0.117,1.978,2.038,2.022,2.038c1.12,0.026,0.604,0.067,2.963,0.131
		c0.224,0.004,2.627,0.033,2.773-0.163c0.095-0.132,0.006-0.472-0.052-0.591c-0.118-0.271-0.3-0.509-0.476-0.743
		c-0.171-0.213-0.35-0.417-0.538-0.617c0.372,0.193,0.665,0.594,0.919,0.888l0.002-0.069c-0.514-0.964-1.167-1.088-1.17-1.088
		h-0.002c-0.093-0.088-0.184-0.178-0.273-0.263c-0.094-0.091-0.187-0.17-0.29-0.246c0.501-0.237,0.989,0.01,1.069,0.02
		c0.267,0.023,0.532,0.1,0.782,0.196c0.216,0.084,0.771,0.434,0.869,0.468c0.442,0.142,0.904,0.394,1.266,0.741
		c0.186,0.176,0.399,0.355,0.569,0.547c0.293,0.496,0.225,1.106-0.154,1.58c-0.133,0.164-0.774,1.108-1.695,0.988
		c-0.324,0.012-0.648,0.012-0.973,0.012c-1.041-0.002-4.077-0.216-4.535-0.321c-0.451-0.105-0.81-0.307-1.092-0.648
		c-0.297-0.351-0.651-0.64-0.936-0.991c-0.402-0.49-0.944-0.914-0.968-0.928c-0.004,0,0.699,0.842,0.879,1.05
		c0.276,0.3,0.903,1.163,1.296,1.431l0.004,0.125c-0.035-0.038-0.98-0.299-1.733-1.379c-0.041-0.057-0.115-0.051-0.065,0.053
		l0.322,0.44l-0.53-0.34c-0.005,0-0.444-0.15-0.417,0.151c0.028,0.292,1.295,0.587,1.757,0.907c-0.093,0.01-1.153-0.365-1.674-0.13
		c-0.36,0.162-1.83-0.04-1.837-0.035c1.181,0.449,1.766,0.213,2.652,0.188c0.24-0.009,0.453,0.101,0.695,0.127l0.305-0.062
		l0.24,0.132l-0.011,0.003c0.505,0.585,0.865,1.365,0.741,2.138c-0.109,0.671-0.799,1.104-1.459,1.192c0,0,0.927,0.168,1.406-0.489
		c0.516-0.715,0.115-1.861,0.112-1.87c0.439,0.433,0.635,1.037,0.54,1.651c-0.068,0.411-0.176,0.834-0.352,1.218
		c-0.038,0.086-0.086,0.171-0.143,0.244l-0.072,0.095c0.016-0.006,0.599-0.342,0.734-1.646c0.007,0.067,0.017,0.139,0.021,0.203
		c0.05,0.543-0.01,1.401,0.208,1.712c0.001,0-0.11-0.841,0.003-1.485c0.113,0.115,0.74,0.729,0.771,0.793
		c0.123,0.255-0.548,1.023-0.549,1.217c0,0.111,0.133,0.862,0.177,1.114c0.091,0.476,0.201,0.957,0.394,1.413
		c0.036,0.081,0.072,0.16,0.119,0.235c-0.912-0.061-2.274,0.216-3.501,0.762c-0.389,0.167-0.759,0.377-0.664,0.518
		c0.08,0.118,0.263-0.073,0.263-0.073c0.119-0.194,0.797-0.465,0.799-0.465c-0.02,0.036-0.396,0.512-0.879,0.827l-0.127,0.073
		l0.066-0.038v-0.006l-0.069,0.047c-0.089,0.042-0.202,0.065-0.284-0.051c-0.176-0.252,0.518-1.113,0.596-1.181
		c0.107-0.092,0.107-0.109,0.115-0.255c0.004-0.069,0.103-0.337,0.142-0.382c0.069-0.08,0.101-0.207,0.139-0.314
		c0.08-0.2,0.203-0.389,0.362-0.549C20.751,32.323,20.794,32.134,20.757,32.067z M15.104,31.135l-0.003,0.015L15.104,31.135z
		 M17.044,20.632c-0.15-0.028-0.297-0.072-0.395-0.178c0.21-0.156,0.704-0.175,0.694-0.183c0.029,0.023,0.731,0.563,0.941,0.845
		c0.009,0.002-0.452-0.585-0.709-0.813c-0.182-0.157-0.354-0.309-0.539-0.459c0.258-0.007,0.51,0.018,0.773,0.01
		c0.014,0,0.436,0.438,0.596,0.684c0.137,0.202,0.336,0.472,0.336,0.729c0,0.037-0.125,0.205-0.115,0.332
		c0.014,0.209,0.172,0.209,0.223,0.379l0.119-0.068c-0.049-0.16-0.227-0.161-0.227-0.349c0.003-0.13,0.096-0.226,0.111-0.347
		c0.039-0.249-0.201-0.554-0.331-0.75c-0.276-0.425-0.6-0.827-0.933-1.213c1.543,0.152,3.082,0.325,4.627,0.451
		c0.342,0.022,0.732,0.86,0.751,0.997c-0.815-0.188-1.676-0.232-2.501-0.221c-0.322,0-0.818-0.039-1.132,0.032
		c-0.36,0.082-0.389,0.507-0.377,0.477c0,0,0.112-0.413,0.771-0.401c0.376,0.004,0.954,0.004,1.292,0.018
		c1.292,0.052,2.683,0.174,3.711,0.975c0.398,0.312,1.559,1.729,1.721,2.067c0.243,0.523,0.063,0.515,0.025,0.559l-0.48,0.061
		c-0.476-0.017-0.939,0.021-1.414,0.006c-1.02-0.027-3.312-0.086-3.431-0.088l-0.106-0.024c-0.285-0.287-0.564-0.576-0.85-0.862
		c-0.346-0.344-0.685-0.691-1.025-1.036c-0.048-0.047-0.093-0.138-0.171-0.119c-0.599,0.152-0.629-0.357-0.647-0.354
		c-0.799,0.001-1.414-0.071-2.305,0.021c-0.131,0.013-0.332,0.111-0.457,0.097c-0.23-0.032,0-0.27,0.098-0.356
		c0.193-0.186,0.474-0.394,0.555-0.653c0.046-0.131,0.189-0.264,0.284-0.357c0.003,0,0.244,0.139,0.388,0.159
		c0.178,0.035,1.17,0.55,1.425,0.713C18.354,21.419,17.4,20.699,17.044,20.632z M16.229,21.961l-0.005,0.001L16.229,21.961z
		 M30.486,16.773c-0.224-0.373-0.403-0.761-0.51-1.159c0.889,0.151,2.065-0.024,2.515-0.203c0.628,1.231,0.954,2.628,1.163,3.992
		c0.094,0.609,0.096,1.245,0.091,1.869c-0.008,0.738-0.107,1.52-0.239,2.244c-0.114,0.642-0.297,1.279-0.634,1.853
		c-0.086,0.144-0.16,0.2-0.291,0.313c-0.296,0.237-0.587,0.339-0.948,0.631l-0.16,0.034c-0.129,0.077-0.198,0.345-0.271,0.471
		c-0.141,0.249-0.508,0.555-0.605,0.621c-0.117,0.078-0.27,0.072-0.25-0.187c0.002-0.101,0.986-1.528,1.085-1.666
		c0.085-0.118,0.175-0.244,0.301-0.317l0.157-0.126c0.138-0.246,0.063-1.594,0.036-1.872c-0.054-0.545-0.069-1.089-0.117-1.636
		c-0.044-0.544-0.113-1.09-0.175-1.638c-0.037-0.233-0.037-0.469-0.053-0.71c-0.025-0.251-0.115-1.012-0.206-1.208
		c0.11,0.106,0.384,0.301,0.392,0.313C31.523,18.148,30.761,17.309,30.486,16.773z M32.285,14.385
		c-0.692,0.623-1.928,0.64-2.772,0.369l-0.094,0.006c-0.082-0.195-0.147-0.381-0.134-0.445c1.905,0.184,2.686-0.461,2.817-0.83
		c0.082-0.229-0.579-1.297-0.683-1.439h0.006c-0.719-2.139-0.111-2.659,0.222-2.791l0.017-0.005l0.03-0.011l0.02-0.007l0.005-0.002
		c0.331-0.087,0.616,0.167,0.692,0.242c1.17,1.231,2.53,2.927,3.442,4.913c-0.065-0.071-0.627-0.52-1.082-0.141
		c-0.063,0.051-0.245,0.456,0.076,0.665l0.088,0.024l-0.003,0.002c-0.028,0.089-0.015,0.176,0.063,0.223l-0.01,0.011
		c-0.24,0.322-0.452,0.694-0.548,1.08c-0.061,0.235-0.061,0.497,0.132,0.675c0.202,0.189,0.869,0.252,0.869,0.252
		c0,0.015,0.286,2.902,0.286,4.063l-1.298,1.072c-0.044-0.086-0.032-0.688-0.035-0.946c0-1.476-0.116-2.942-0.515-4.371
		c-0.153-0.573-0.411-1.181-0.717-1.702c0,0,0.478,1.294,0.643,1.916c0.381,1.423,0.473,2.878,0.473,4.342
		c0,0.271,0.03,0.585,0.03,0.86l0.063,0.07l1.384-1.152c0.051,0.156,0.116,0.277,0.299,0.301c0.109,0.008,0.254-0.009,0.361-0.035
		c0.195-0.042,0.425-0.09,0.654,0.063l-0.008,0.143c-0.184-0.071-0.452,0.121-0.514,0.092c0.25,0.131,0.361-0.065,0.5,0.02
		c-0.006,0.094-0.021,0.186-0.025,0.279c-0.083-0.065-0.173-0.135-0.173-0.135s0.09,0.181,0.16,0.257
		c-0.019,0.116-0.03,0.209-0.046,0.317c-0.014-0.01-0.277-0.124-0.31-0.3l-0.106-0.012c-0.078,0.093,0.226,0.353,0.409,0.382
		c-0.028,0.188-0.044,0.316-0.073,0.478c-0.197,0.062-0.516,0.131-0.586,0.053l0.211-0.159c-0.144,0.026-0.385-0.152-0.385-0.152
		c0.002,0.079,0.039,0.155,0.046,0.227c-0.136-0.024-0.442-0.04-0.476-0.04c-0.073,0-0.215,0.052-0.263,0.107
		c-0.202,0.234-0.923,0.958-1.004,0.982l-0.005-0.197c0.207-0.604-0.066-0.92-0.066-0.92c0.029,0.358-0.085,0.705-0.323,1.521
		c-0.063,0.229,0.597-0.165,0.791-0.382c0.678-0.752,0.858-0.596,0.866-0.603c-0.078,0.803-0.259,1.595-0.469,2.376
		c-0.105,0.387-0.193,0.773-0.329,1.143c-0.043,0.111-0.095,0.223-0.097,0.351c-0.006,0.299,0.408,0.2,0.646,0.112
		c-0.905,1.772-2.173,3.359-3.725,4.699c-0.353,0.308-0.72,0.597-1.079,0.871c-0.416-0.211,0.029-1.352,0.146-1.637
		c0.297-0.742,0.7-1.448,1.054-2.168c0.174-0.357,0.323-0.727,0.516-1.08c0.446-0.818,0.46-1.037,0.452-1.039
		c0.126-0.014,0.283-0.065,0.394-0.152c-0.015,0.087-0.525,1.255-0.757,1.772c-0.227,0.495-0.469,0.983-0.713,1.472
		c-0.187,0.361-0.409,0.699-0.608,1.059c-0.268,0.481-0.454,1.054-0.526,1.605c0-0.027,0.092,0.114,0.116-0.067
		c0.126-0.936,0.748-1.665,1.174-2.494c0.501-0.975,0.985-2.028,1.327-3.069c0.063-0.197,0.135-0.406,0.14-0.615
		c0-0.099,0.077-0.141,0.146-0.214c0.11-0.124,0.227-0.284,0.206-0.451l-0.11,0.066c0.011,0.147-0.08,0.278-0.17,0.393l-0.185,0.228
		c0,0.085,0.003,0.151-0.017,0.235c-0.019,0.011-0.352,0.214-0.488,0.145c-0.077-0.038-0.107-0.106-0.179-0.146
		c-0.22-0.124-0.563-0.028-0.762,0.082c-0.306,0.183-0.869,0.615-0.927,0.28c0.129,0.026,0.32-0.087,0.552-0.279
		c0.429-0.354,1.306-0.469,1.306-0.469l0.259-0.145c-0.276-0.032-1.093,0.171-1.891,0.706c0.272-0.245,0.378-0.431,0.496-0.701
		c0.028-0.012,0.869-0.504,1.201-0.815c0.212-0.197,0.178-0.014,0.308-0.269c0.398-0.795,0.6-1.957,0.7-2.848
		c0.123-1.147,0.126-2.337-0.064-3.479c-0.215-1.271-0.533-2.562-1.119-3.722l0.149-0.072c0.061-0.039,0.084-0.192-0.027-0.146
		c-0.794,0.318-2.191,0.387-2.517,0.348c-0.203-0.022-0.391-0.029-0.536-0.182c-0.027-0.031-0.13-0.237-0.225-0.452
		c0.961,0.258,2.418,0.316,2.918-0.433L32.285,14.385z M36.617,18.135c0,0,0.196-0.109,0.337,0.004
		c0.159,1.094,0.205,2.205,0.128,3.313c-0.107-0.019-0.225-0.021-0.338-0.01C36.837,20.719,36.613,18.107,36.617,18.135z
		 M36.777,17.769c-0.179-0.674-0.703-1.281-1.388-1.52c0.378,0.18,1.155,0.921,1.271,1.567c-0.062-0.146-1.161-1.662-1.851-1.257
		c-0.18,0.105,0.038,0.226,0.038,0.226l0.16-0.102l0.116,0.09c0.079,0.286,0.195,0.181,0.266,0.269
		c-0.243-0.005-1.016-0.061-0.839-0.833c0.079-0.361,0.487-0.992,0.487-0.992c0.108,0.021,0.21-0.033,0.318-0.043
		c0.122-0.011,0.271-0.027,0.355,0.07c0.003,0.008-0.056-0.246-0.521-0.128c-0.038,0.012-0.211,0.053-0.155-0.151
		c0.071-0.013,0.155-0.005,0.193-0.09c0.141-0.268,0.372-0.101,0.372-0.101c-0.074-0.164-0.168-0.199-0.292-0.127
		c-0.114,0.064-0.114,0.192-0.263,0.204c-0.247,0.027-0.363-0.258-0.191-0.512c0.166-0.259,0.621-0.104,0.763-0.011
		c0.118,0.07,0.226,0.163,0.325,0.263c0.227,0.445,0.781,2.233,0.947,3.148L36.777,17.769z M35.47,16.693
		c0.108,0.067,0.215,0.145,0.31,0.23c0.191,0.158,0.381,0.316,0.545,0.542c0.047,0.517,0.166,1.266,0.195,1.776
		c0.037,0.563,0.123,1.348,0,2.229c-0.122,0.024-0.651,0.179-0.689-0.251C35.84,20.061,35.543,17.042,35.47,16.693z M36.116,25.772
		c0.192-0.91,0.464-1.38,0.544-2.305c0.07-0.019,0.135-0.04,0.168-0.051c-0.089,0.522-0.155,0.831-0.295,1.341
		C36.292,25.652,36.093,25.879,36.116,25.772z M35.415,27.429c-0.22,0.116-0.479,0.23-0.508,0.002
		c-0.009-0.104,0.351-1.09,0.458-1.487c0.233-0.886,0.59-2.704,0.636-2.697c0.057,0.015,0.265,0.098,0.396,0.078
		C36.316,24.243,35.733,26.79,35.415,27.429z M35.381,23.693l-0.123,0.065L35.381,23.693z M25.699,33.817
		c0.009-0.257,0.184-1.28,0.244-1.531c0.075-0.328,0.246-0.616,0.174-0.961c-0.068-0.346-0.375-0.602-0.689-0.744
		c-0.16-0.075-1.257-0.166-1.599-0.732c0-0.01,0.097-0.076-0.462-0.631c-0.228-0.23-0.452-0.464-0.681-0.689
		c-0.19-1.282-1.063-2.029-1.063-2.029h-0.005c-0.096-0.205-0.21-0.392-0.346-0.576c0.146,0.011,0.293-0.025,0.402-0.112
		c0.203,0.063,0.41,0.103,0.615,0.133c0.53,0.071,1.058,0.143,1.592,0.2c0.565,0.058,1.121,0.117,1.685,0.16
		c0.541,0.037,1.08,0.037,1.621,0.044c0.057,0.412,0.192,1.446,0.178,1.775c-0.012,0.25-0.066,0.489-0.07,0.738
		c0.004,0.254,0.023,0.653,0.313,0.765c0.305,0.115,0.714,0.272,0.981,0.471c0.002,0.095,0.017,0.185,0.002,0.275
		c-0.025,0.273,0.904,0.52,1.08,0.593c0.384,0.185,0.674,0.498,0.853,0.871c0,0-0.448,1.083-0.054,1.446
		c-1.377,0.996-2.847,1.74-4.588,2.249c-0.068,0.021-0.079-0.025-0.079-0.077C26.211,34.898,25.691,33.937,25.699,33.817z
		 M24.674,37.655c-0.275,0.102-0.197-0.1-0.197-0.1l-0.051-0.388c-0.098-0.44,0.17-0.4,0.17-0.4c0.381-0.128,0.36,0.419,0.36,0.419
		C25.009,37.67,24.674,37.655,24.674,37.655z M24.551,38.099c-0.06-0.291,0.471-0.234,0.471-0.234s0.326,0.027,0.296,0.557
		c-0.024,0.491-0.478,0.478-0.478,0.478c-0.198,0.032-0.188-0.121-0.188-0.121C24.652,38.567,24.551,38.099,24.551,38.099z
		 M24.06,36.343c-0.04-0.132,0.31-0.406,0.399-0.537c0.179-0.262,0.139-0.584,0.139-0.577c-0.019,0.231-0.236,0.487-0.388,0.651
		c-0.14,0.159-0.279,0.342-0.356,0.379c-0.078,0.046-0.201,0.058-0.26-0.029c-0.099-0.18,0.031-0.232,0.004-0.215
		c0.491-0.229,0.625-0.474,0.64-0.731c0,0.034-0.184,0.466-0.585,0.621c-0.104,0.041-0.142,0.066-0.187,0.158
		c-0.354-0.187-0.057-0.304,0.346-0.535c0.01-0.009,0.186-0.138,0.315-0.284c0.301-0.319,0.228-0.778,0.083-1.154
		c-0.08-0.211-0.164-0.412-0.229-0.63c-0.185-0.593-0.344-1.239-0.678-1.772c-0.061-0.118-0.138-0.235-0.156-0.369
		c-0.013-0.121-0.02-0.517,0.033-0.588c0.056-0.09,0.372-0.58,0.523-0.69l0.008-0.004c0.3,0.535,1.271,0.57,1.505,0.644
		c0.697,0.214,0.752,0.813,0.741,1.027c-0.015,0.24-0.133,0.461-0.198,0.686c-0.139,0.467-0.404,0.924-0.37,1.421
		c0.017,0.271,0.359,1.007,0.329,1.246c-0.041,0.375-0.464,0.896-0.527,0.977C24.746,36.566,24.127,36.556,24.06,36.343z
		 M21.424,25.913c0.079-0.016,0.156-0.047,0.224-0.091C21.58,25.877,21.507,25.905,21.424,25.913z M28.58,29.941
		c-0.249-0.175-0.568-0.3-0.854-0.383c-0.296-0.085-0.306-0.529-0.308-0.765c-0.005-0.25,0.044-0.488,0.065-0.739
		c0.023-0.362-0.16-1.233-0.28-1.707l0.038,0.002c0.33,0.005,0.661,0.008,0.996,0.003c0.106,0.418,0.363,1.484,0.254,1.945
		C28.443,28.507,28.539,29.283,28.58,29.941z M30.531,27.571c0.097,0.04,0.521,0.172,0.854-0.046c0.2-0.116,0.504-0.368,0.467-0.345
		c0.441-0.263,0.7,0.01,0.729,0.027l-0.188,0.201c-0.02,0.02-0.398,0.503-0.988,0.812c-0.361,0.187-1.829-0.304-1.31-1.044
		c0.078-0.059,0.181-0.07,0.208-0.082c-0.052,0.086-0.052,0.133-0.076,0.223C30.178,27.518,30.381,27.629,30.531,27.571z
		 M31.617,25.334l0.072-0.04L31.617,25.334z M31.58,25.2c-0.047,0.047-0.395,0.424-1.232,1.808
		c-0.018,0.009-0.481,0.053-0.492,0.537c-0.008,0.659,1.26,1.058,1.519,0.948c0,0,0.455-0.158,1.071-0.725
		c-0.131,0.229-0.261,0.459-0.343,0.701c-0.132,0.367-1.182,2.409-1.521,3.22c-0.158-0.323-0.391-0.598-0.703-0.794
		c-0.164-0.098-0.336-0.145-0.524-0.202c-0.192-0.06-0.526-0.147-0.628-0.348c-0.012-0.02-0.023-2.028-0.092-2.7
		c-0.018-0.184-0.201-0.933-0.351-1.293c0.177-0.007,0.354-0.012,0.535-0.022c0.423-0.026,0.875-0.032,1.279-0.167
		c0.882-0.284,1.411-1.468,1.557-1.375C31.749,24.845,31.678,25.144,31.58,25.2z M21.98,36.469c-0.085,0.081-0.171,0.144-0.269,0.19
		C21.81,36.606,21.892,36.536,21.98,36.469z M20.227,36.836l0.084-0.059L20.227,36.836z M21.161,37.388
		c-0.013-0.154,0.247-0.095,0.247-0.095c0.246,0,0.181,0.421,0.181,0.421c0.013,0.268-0.21,0.36-0.21,0.36
		c-0.23,0.122-0.213-0.089-0.213-0.089L21.161,37.388z M38.859,23.95c-0.004,0.003-0.305,0.099-0.711,2.129l-0.008,0.082
		l-0.003,0.005c-0.454,0.606-0.407,1.093-0.419,1.161c-0.265-0.285,0.135-1.006,0.18-1.09l0.008-0.02l0.028-0.072
		c0.045-0.098,0.073-0.198,0.115-0.299c0.12-0.361,0.218-0.727,0.254-1.107c0.077-0.883,0.687-1.126,0.729-1.103
		c0.063,0.191-0.006,0.552-0.071,0.743c-0.077,0.239-0.186,0.329-0.361,0.678l-0.03-0.111C38.548,24.627,38.785,24.073,38.859,23.95
		z M39.55,27.437c-0.136,0.101-0.294,0.162-0.456,0.175c0.081-0.116,0.212-0.259,0.246-0.393c0.028-0.101-0.061-0.182-0.003-0.278
		c0.065-0.108,0.25-0.471,0.383-0.703c0.496-0.895,0.79-1.983,0.626-3.005c0.118-0.055,0.227-0.12,0.322-0.2
		C40.469,24.563,40.092,26.04,39.55,27.437z M40.69,22.845c-0.258,0.224-0.62,0.408-0.864,0.477
		c-0.326,0.088-0.619,0.199-0.946,0.241c-0.742,0.104-1.289,0.263-1.892,0.708l-0.098,0.008c0.105-0.422,0.19-0.856,0.256-1.282
		c0.263-1.707,0.229-3.46-0.088-5.166c0-0.018-0.68-3.048-1.555-4.507c-0.859-1.44-1.732-2.774-2.927-3.991h-0.001L32.55,9.305
		l-0.007-0.006c-0.082-0.059-0.348-0.201-0.471-0.214c-0.346-0.039-0.553-0.002-0.657,0.05c-0.39,0.153-0.839,0.801-0.297,2.482
		c-0.379-0.557-0.788-1.014-1.089-1.32l-0.005-0.003l-0.126-0.046l0.004,0.001l-0.013-0.003l-0.005-0.002h-0.008l-0.18-0.068h0.002
		C29.281,10,28.477,9.734,28.438,9.733c-0.048-0.095-0.101-0.195-0.153-0.299c0.913,0.397,1.125,0.104,1.169,0.093
		c-0.238,0.063-1.122-0.249-1.33-0.434c-0.124-0.274-0.354-0.811-0.376-0.803c0.169,0.459,0.273,0.98,0.509,1.414L28.1,9.654
		c-0.104-0.045-0.394-0.388-0.499-0.439l0.008,0.213c-0.028-0.015-0.387-0.445-0.455-0.471c-0.065-0.035,0.026,0.277-0.04,0.254
		c-0.266-0.102-0.857-0.314-0.853-0.688c0.077-0.02,0.152-0.297,0.204-0.446c0.197-0.103,0.363-0.604,0.371-0.712l-0.051-0.023
		c0,0-0.133,0.224-0.207,0.28c0.016-0.104,0.014-0.201-0.033-0.272c-0.087-0.126-0.717-0.299-0.785-0.318l-0.153-0.003
		c-0.025-0.005,0.392,0.146,0.578,0.235c0.339,0.17,0.166,0.66,0.161,0.687c-0.09-0.13-0.223-0.247-0.348-0.321
		c-0.087-0.057-0.189-0.142-0.286-0.181l-0.069,0.043c0.106,0.077,0.328,0.283,0.35,0.3c0.112,0.119,0.219,0.251,0.253,0.363
		c0,0-0.025,0.152-0.061,0.233c-0.091-0.167-0.194-0.316-0.315-0.457c-0.077-0.086-0.4-0.374-0.873-0.565
		c-0.525-0.208-1.174-0.873-1.344-1.143c0.271,0.439,0.592,0.923,1.065,1.137c0.268,0.122,0.661,0.324,0.661,0.33
		c-0.111,0.39-0.579,0.675-0.741,0.629c0.226,0.064,0.468-0.033,0.619-0.149c0.122-0.09,0.222-0.219,0.301-0.356
		c0.282,0.227,0.565,0.738,0.567,0.738c-0.028,0.132,0.163,0.384,0.243,0.463c0.392,0.346,0.931,0.514,1.421,0.678
		c0.376,0.128,1.761,0.542,2.05,0.681c0.022,0.034,1.082,1.33,1.453,2.059c0.099,0.194,0.483,1.198,0.466,1.217
		c-0.674,0.608-2.363,0.597-2.363,0.597s-0.188-0.126-0.315-0.324c0,0-0.235-0.361-0.331-0.413c0.08,0.22,0.164,0.438,0.246,0.657
		c0.065,0.182,0.108,0.4,0.221,0.563l0.026,0.044l0.034,0.037c0.058,0.118,0.171,0.39,0.18,0.419
		c0.027,0.166,0.371,0.354,0.377,0.354c0.105,0.445,0.295,0.887,0.547,1.296c0.066,0.205,0.556,1.162,0.689,1.456
		c0.138,0.293,0.159,0.618,0.206,0.927c0.087,0.502,0.381,3.187,0.381,3.187c-0.021,0.695-0.101,1.419-0.303,2.082
		c-0.101,0.333-0.508,1.201-1.72,1.475c-0.187,0.045-0.391,0.023-0.59,0.033l-0.404,0.016c0.2-0.164,0.44-0.416,0.756-0.871
		c0.102-0.146,0.182-0.324,0.27-0.476c0.156-0.277,0.084-0.771,0.075-0.797c0.1,0.162,0.189,0.34,0.21,0.512
		c0-0.018,0.08,0.122,0.093-0.027c0.018-0.298-0.235-0.655-0.426-0.88c-0.17-0.206-0.331-0.422-0.519-0.616
		c-0.353-0.367-0.848-0.648-1.371-0.74c-0.082-0.012-0.613-0.358-0.829-0.451c-0.259-0.106-0.538-0.181-0.815-0.214
		c-0.084-0.008-0.124-0.049-0.19-0.089c-0.458-0.276-1.198-0.009-1.198,0c-0.27-0.182-1.148-0.597-1.148-0.602
		c0.082-0.354,0.261-0.69,0.437-1.015c0.161-0.313,0.608-1.022,0.642-1.076c0.004-0.007-0.339-0.63-0.397-1.066
		c0.312-0.03,0.614-0.178,0.877-0.372c-0.036,0.024-1.376,0.644-1.991-0.26l-0.167-0.094l-0.111-0.168
		c-0.026-0.08,0.005-0.174,0.028-0.263c0.002-0.042,0.191-0.886,0.219-1.091c0.067-0.42-0.23-0.846-0.576-1.082
		c0.034,0.033,0.342,0.364,0.44,0.77c-0.516,0.069-0.976,0.407-1.449,0.589c-0.604,0.237-0.915,0.448-1.491,0.626
		c-0.372,0.121-1.98,0.526-3.215,0.186c-0.023-0.008-0.408,0.028-0.672-0.205c-0.149-0.129-0.149-0.353-0.152-0.534
		c-0.007-0.236,0.383-1.194,0.571-1.563c0.578-1.163,1.405-2.22,2.281-3.188c0.151-0.162,0.452-0.646,0.506-0.719
		c0.331-0.3,0.912-0.598,0.926-0.604c0.477-0.326,0.772-0.374,1.425-0.48c0,0,0.073,0.347,0.259,0.359
		c0.698,0.051,1.215,0.252,1.409,0.383h-0.005c0.216,0.238,0.349,1.189,0.356,1.323c0.011,0.054-0.113,0.26-0.269-0.021
		c0.028-0.094-0.07-0.799-0.394-1.151c-0.061-0.06-0.255-0.159-0.488-0.215c0.254,0.103,0.445,0.316,0.508,0.455
		c0.117,0.211,0.244,0.474,0.286,0.857c0.001,0.042-0.202,0.417-0.407-0.298c-0.072-0.252-0.262-0.58-0.531-0.613
		c-0.152-0.021-0.595-0.17-1.377,0.227c0.246-0.126,1.543-0.488,1.727,0.357c-0.212,0.074-0.441,0.09-0.658,0.092
		c-0.32,0.015-0.618-0.06-0.94,0c-0.235,0.047-0.478,0.045-0.673,0.41c-0.23,0.452-0.473,0.908-0.688,1.371
		c-0.071,0.159-0.125,0.306-0.182,0.469c-0.093,0.247-0.489,0.949-0.56,1.066c-0.184,0.273-0.335,0.564-0.548,0.813l0.107,0.022
		c0.301-0.361,0.643-0.928,0.643-0.928c0.419-0.194,1.124-0.639,1.423-0.989c0.655-0.771,1.379-1.276,2.283-1.89
		c-0.03,0.018,0.144,0.152,0.303,0.134l0.122-0.073c-0.009,0.004,0.396,0.393,0.432-0.12c0.029-0.292-0.159-0.955-0.239-1.104
		c0.065,0.065,0.292,0.236,0.362,1.192c0,0,0.218,0.095,0.303,0.375c-0.011-0.018,0.063-0.28-0.163-0.416
		c-0.084-0.048-0.077-0.14-0.077-0.216c0.015-0.261-0.041-0.514-0.168-0.74c-0.212-0.376-0.583-0.625-0.991-0.743
		c-0.144-0.044-0.524-0.107-0.758-0.119c-0.193-0.003-0.249-0.151-0.252-0.331c0-0.078,0.133-0.108,0.113-0.197
		c-0.019-0.101-0.098-0.239-0.119-0.356h0.009c0.076,0.014,0.152,0.038,0.229,0.058l0.213,0.042l0.058-0.032
		c0.033-0.05-0.147-0.128-0.232-0.148c-0.089-0.026-0.184-0.026-0.255-0.091c-0.092-0.085-0.063-0.265-0.021-0.367l0.157,0.096
		c0.227,0.073,0.359-0.123,0.385-0.207c-0.259,0.28-0.521,0.018-0.521,0.018c-0.006,0.005-0.063,0.012-0.143,0.097
		c-0.302,0.069-0.251-0.235-0.211-0.354c0.089-0.311,0.247-0.602,0.348-0.912c0.044-0.141,0.016-0.312,0.019-0.464
		c0.009-0.384,0.346-1.038,0.386-1.104l0.139-0.085c0.034,0.004,0.226-0.039,0.204-0.124l-0.423-0.029l-0.119,0.076l-0.005,0.004
		l0.183,0.041c-0.075,0.066-0.367,0.653-0.427,0.838c-0.009-0.22,0.102-0.747,0.098-0.797c0-0.071-0.043-0.119-0.058-0.18
		c-0.029-0.106,0.089-0.17,0.176-0.234c0.486-0.315,1.061-0.516,1.634-0.594c1.592-0.213,2.786,0.336,3.142,0.593
		c0.564,0.417,0.85,1.037,0.91,1.7c-0.146,0.3-0.293,0.732-0.424,1.027c-0.479,1.094,0.215,1.335,0.215,1.341
		c-0.295-0.2-0.195-0.945-0.094-1.356c0.079-0.292,0.184-0.584,0.315-0.86c0,0.007-0.057,0.656-0.021,0.982
		c0.03,0.393,0.007,1.11,1.216,1.274c0.157,0.049-0.083-0.434-0.083-0.434c-0.126-0.357-0.365-0.319-0.365-0.319
		c-0.35-0.063-0.532-0.171-0.599-0.224c-0.034-0.133-0.053-0.271-0.063-0.406c0.128-0.03,0.57,0.164,0.57,0.164
		c0.442,0.194,0.216-0.289,0.216-0.289c0.002-0.344-0.258-0.253-0.258-0.253c-0.209,0.009-0.432-0.154-0.518-0.216
		c0.012-0.157,0.019-0.314,0.01-0.472c0.101-0.048,0.342,0.076,0.342,0.076c0.316,0.185,0.221-0.154,0.221-0.154
		c-0.013-0.229-0.332-0.241-0.332-0.241c-0.139-0.02-0.24-0.086-0.303-0.155c-0.028-0.099-0.054-0.193-0.096-0.29
		c0.28,0.163,0.561,0.129,0.723,0.042c0.004-0.003,0.373-0.19,0.703-0.951c0.073-0.177,0.362-0.744,0.362-0.814
		c0-0.066,0.288-0.026,0.231-0.175l-0.373-0.186c-0.193-0.101-0.248-0.053-0.254-0.05l0.006,0.005
		c-0.052,0.054-0.016,0.119-0.003,0.211c0.025,0.135-0.36,1.072-0.571,1.381c-0.094,0.134-0.194,0.26-0.379,0.23
		c-0.156-0.027-0.384-0.163-0.332-0.347c0.103-0.256,0.458-1.107,0.526-1.28c0.116-0.271,0.221-0.322,0.223-0.327h0.006
		c0.184-0.112-0.176-0.209-0.244-0.234c-0.147-0.063-0.281-0.128-0.424-0.19c-0.106-0.047-0.216,0.002-0.216,0.002
		c-0.064,0.061,0.01,0.174,0.016,0.248c0.002,0.074-0.22,0.627-0.302,0.833c-0.097,0.226-0.29,0.731-0.302,0.76
		c-0.138-0.118-0.293-0.22-0.459-0.304l0.042-0.039c0.139-0.23,0.063-0.593-0.13-0.763c0.389-0.118,0.529-0.617,0.302-0.94
		c-0.218-0.32-0.645-0.342-0.987-0.415c-0.14-0.028-0.279-0.065-0.416-0.101c-0.066-0.018-0.259-0.078-0.275-0.006h-0.006
		l0.014,0.111c0.076,0.175,0.061,0.352,0.013,0.527c-0.095,0.365-0.197,0.727-0.294,1.09c-0.544-0.066-1.068-0.012-1.565,0.129
		c-0.03-0.057,0.029-0.342,0.044-0.43l-0.019-0.202c-0.106-0.052-0.315,0.214-0.379,0.282c-0.128,0.152-0.284,0.246-0.478,0.3
		C22.36,4.037,22.14,4.107,22.14,3.955c0-0.089,0.004-0.687,0-0.896c0.208-0.039,0.37,0.004,0.481,0.193L22.8,3.229
		c0.028-0.064,0.028-0.455,0.007-0.564l-0.213,0.047c-0.117,0.047-0.382,0.059-0.455-0.029c-0.004-0.218-0.004-0.436-0.004-0.652
		c0.086-0.01,0.194,0.007,0.267,0.01c0.168,0.007,0.329,0.07,0.46,0.176c0.088,0.072,0.145,0.178,0.25,0.158
		c0.009,0,0.144-0.033,0.069-0.277c-0.024-0.084-0.053-0.229-0.128-0.295c-0.036-0.04-0.933-0.076-1.115-0.089
		c-0.171-0.004-0.521-0.079-0.658,0.06l0.029,0.141c0.094,0.075,0.108,0.203,0.127,0.311c0.025,0.176,0.032,1.395,0.029,1.448
		c0,0.106-0.084,0.409-0.148,0.62c-0.03,0.102,1.119,0.025,1.332-0.004c-0.174,0.073-0.342,0.159-0.505,0.246
		c-0.164,0.093-0.447,0.207-0.432,0.459c0.004,0.102,0.077,0.167,0.058,0.276c-0.022,0.135-0.068,0.263-0.084,0.402
		c-0.022,0.203-0.012,0.417,0.016,0.62c-0.026,0.161,0.006,0.313-0.005,0.479c-0.015,0.109-0.229,0.549-0.274,0.672
		c-0.055,0.168-0.214,0.4-0.086,0.567c0.114,0.149,0.36,0.094,0.369,0.085c0,0-0.189,0.327,0.014,0.443
		c-0.054,0.115-0.094,0.377-0.044,0.489c-0.288,0.047-0.6,0.089-0.881,0.188c-0.273,0.09-0.537,0.264-0.775,0.414
		c-0.046,0.027-0.64,0.246-1.162,1.156c-0.029,0.059-0.324,0.383-0.422,0.498c-0.961,1.112-1.845,2.347-2.362,3.708
		c-0.138,0.357-0.373,0.97-0.117,1.303l0.121,0.119c0.082,0.074,0.177,0.104,0.279,0.121c-0.885-0.038-2.742-0.11-2.82-0.114
		c-0.104-0.004-0.083,0.162,0.081,0.186c0.429,0.055,3.79,0.097,3.79,0.097h-0.001c0.315,0.032,0.64,0.038,0.948,0.016
		c0.521-0.029,0.946-0.069,1.301-0.103c0.819,0.019,2.348,0.073,3.084-0.028l-0.039,0.146c0.005,0.226,0.23,0.278,0.352,0.417
		c0.415,0.453,0.861,0.501,1.038,0.501c0.006,0.231,0.329,1.025,0.413,1.132c0.006,0.002-0.769,1.104-1.049,1.99l-0.362-0.131
		c-0.054-0.256-0.206-0.497-0.373-0.692c-0.111-0.135-0.232-0.306-0.419-0.324c-0.129-0.008-0.269-0.024-0.403-0.038
		c-1.04-0.103-2.077-0.199-3.118-0.3c-0.424-0.037-0.889-0.11-1.313-0.149l-0.123,0.09c0.158,0.181,0.322,0.365,0.482,0.558
		c-0.277,0.003-0.569-0.011-0.842,0L16.93,19.84l-0.005,0.004c0.115,0.096,0.218,0.217,0.327,0.329
		c-0.441,0.062-0.787,0.104-1.021,0.503c-0.021,0.043-0.186,0.409-0.541,0.702c-0.155,0.131-0.355,0.272-0.328,0.542
		c0.011,0.104,0.121,0.118,0.238,0.104l-0.008,0.003l-0.009,0.008c-0.046,0.049-1.042,0.902-1.233,1.771
		c-0.131,0.575,0.174,1.729,0.226,1.958c0.053,0.277,0.293,2.114,0.239,2.85c-0.007,0.051,0.09,1.961,0.133,2.332
		c0.021,0.211,0.131,0.211,0.131,0.211c0.246,0.051,0.488,0.103,0.711,0.217c0.096,0.057,0.196,0.12,0.24,0.225
		c0.023,0.093,0.005,0.203,0.033,0.304c0.119,0.353,0.707,0.152,0.975,0.138c0.437-0.031,0.885,0.106,1.329,0.115
		c0.086,0,0.776-0.045,0.883,0.035l0.124,0.12c0.226,0.151,0.525-0.056,0.541-0.077c0.111-0.093,0.396-0.452,0.436-0.521
		c0.006,0.192,0.255,0.491,0.227,0.554c-0.015,0.021-0.614,0.562-0.665,0.812c-0.028,0.095-0.052,0.191-0.078,0.282h-0.011
		l-0.029,0.121c-0.022,0.071-0.061,0.229-0.051,0.389c0.004,0.033-0.636,0.597-0.741,1.293c-0.039,0.234,0.159,0.251,0.187,0.246
		c-0.031,0.018-0.426,0.296-1.27,0.447c-2.109-0.436-4.07-1.293-5.807-2.483l-0.148-0.103l-0.144-0.116l-0.021-0.007l-0.006,0.002
		l-0.02-0.015l-0.051-0.037c-0.658-0.479-1.284-1.007-1.867-1.578c-1.181-1.149-2.142-2.482-2.879-3.925
		c-0.031,0.041-0.435,0.386-0.873,0.508c0-0.139-0.11-0.284,0.124-0.341c0.176-0.042,0.154-0.301,0.176-0.347
		c0.03-0.04,0.271-0.17,0.374-0.23v-0.002c0.079-0.055,0.428-0.439,0.546-0.542c0.121-0.102,0.192-0.263,0.225-0.415
		c0.023-0.123,0.071-0.16,0.268-0.194c0.193-0.035,0.283-0.305,0.295-0.421c0.01-0.098-0.082-0.252-0.112-0.351
		c-0.063-0.213-0.029-0.5,0.058-0.631c0.121-0.181,0.328-0.354,0.014-0.696c-0.101-0.105-0.049-0.325-0.041-0.467
		c0.01-0.218-0.144-0.547-0.909-0.015c-0.051,0.038-0.115-0.058-0.194-0.047c-0.07,0.007-0.258-0.019-0.434,0.353
		c-0.045,0.092-0.143,0.131-0.25,0.102c-0.078-0.031-0.179,0.035-0.263,0.074c-0.073,0.037-0.073,0.037-0.203,0.115l-0.383,0.266
		c-0.124-0.11-0.313-0.211-0.429-0.269c-0.52-0.231-1.039-0.306-1.593-0.394c-0.558-0.087-1.19-0.292-1.597-0.703
		c-0.086-0.694-0.135-1.398-0.146-2.114c-0.003-0.092-0.003-0.176-0.003-0.266c0-10.526,8.603-19.113,19.33-19.248
		c0.089-0.003,0.173-0.003,0.254-0.003c10.707,0,19.462,8.462,19.61,19.024c0.003,0.086,0.003,0.176,0.003,0.264
		C40.821,21.362,40.779,22.108,40.69,22.845z M22.756,16.509l-0.015,0.067c-0.683,0.006-1.979-0.011-2.608-0.023
		c0.064-0.008,2.471-1.098,2.844-1.171c0,0.073-0.019,0.146-0.037,0.214C22.867,15.813,22.766,16.394,22.756,16.509z M22.88,11.158
		l-0.013,0.004c-0.924,0.443-1.712,1.285-2.371,2.039c-0.261,0.306-0.666,0.457-1.051,0.621c0.032-0.063,1.165-2.477,1.267-2.584
		c0.013-0.01,0.276-0.152,0.496-0.149c0.308,0,0.604,0,0.907-0.013l0.728-0.008l0.005,0.004L22.88,11.158z M25.966,3.702
		c0.157,0.101,0.053,0.348-0.012,0.499c-0.162-0.054-0.317-0.098-0.476-0.143c-0.01-0.075,0.068-0.356,0.074-0.405l0.023-0.05
		C25.691,3.585,25.883,3.648,25.966,3.702z M25.658,3.316l0.028-0.175c0.025-0.149,0.063-0.299,0.087-0.448l0.035-0.064
		c0.135-0.023,0.361,0.072,0.411,0.181c0.116,0.224-0.005,0.581-0.278,0.606C25.846,3.427,25.703,3.412,25.658,3.316z M28.137,8.178
		c0,0,0.523,0.066,0.595,0.281c0,0,0.161,0.411-0.251,0.162C28.48,8.621,28.25,8.683,28.137,8.178z M27.944,7.169l0.354,0.107
		C28.583,7.312,28.5,7.463,28.5,7.463c-0.088,0.092-0.457-0.086-0.457-0.086C27.781,7.312,27.944,7.169,27.944,7.169z"/>
	<polyline points="6.09,27.025 6.086,27.022 6.079,27.025 6.09,27.025 	"/>
	<path d="M7.671,24.212c-0.1-0.008-0.237,0.221-0.285,0.289c-0.074,0.103-0.159,0.204-0.215,0.329
		c-0.064,0.139-0.072,0.281-0.116,0.424c-0.04,0.147-0.135,0.259-0.225,0.384c-0.05,0.066-0.102,0.125-0.112,0.215
		c-0.009,0.09,0.017,0.149-0.019,0.231c-0.058,0.134-0.173,0.229-0.299,0.307l-0.104,0.181c-0.034,0.071-0.078,0.142-0.143,0.187
		l-0.014,0.054c-0.083,0.034-0.085,0.12-0.079,0.193l0.024,0.018c0.082-0.102,0.256-0.104,0.346-0.188l0.121-0.166
		c0.071-0.085,0.133-0.095,0.224-0.146c0.177-0.102,0.216-0.25,0.278-0.415c0.063-0.161,0.149-0.267,0.289-0.373
		c0.123-0.093,0.219-0.162,0.227-0.318c0.009-0.143,0.001-0.266-0.032-0.402c-0.034-0.134-0.084-0.266-0.008-0.398
		C7.618,24.463,7.682,24.397,7.671,24.212"/>
	<path d="M6.984,23.713l0.012-0.012c-0.098,0-0.15-0.002-0.215,0.062l-0.122,0.145c-0.112,0.125-0.182,0.187-0.345,0.259
		c-0.146,0.062-0.297,0.158-0.417,0.258c-0.118,0.094-0.29,0.159-0.38,0.281c-0.099,0.125-0.055,0.318-0.087,0.47
		c-0.042,0.196-0.163,0.294-0.258,0.461c-0.082,0.145-0.012,0.286,0.034,0.427c0.023,0.08,0.046,0.134,0.051,0.223
		c0.004,0.067,0.013,0.196,0.123,0.161c0.115-0.033,0.114-0.344,0.142-0.443c0.041-0.151,0.063-0.333,0.155-0.464
		c0.106-0.147,0.277-0.222,0.385-0.373c0.106-0.149,0.123-0.331,0.201-0.48c0.109-0.204,0.356-0.354,0.526-0.509
		c0.085-0.074,0.134-0.149,0.216-0.235C7.059,23.883,7.172,23.673,6.984,23.713"/>
	<path d="M37.236,26.555v0.006l0.065,0.023l0.079-0.093l0.079-0.181c0.095-0.344,0.106-0.702,0.26-1.033
		c0.065-0.134,0.143-0.267,0.172-0.405c0.029-0.136,0.038-0.258,0.042-0.404c-0.036,0.09-0.184,0.17-0.266,0.228
		c-0.077,0.057-0.151,0.113-0.215,0.19c-0.129,0.146-0.162,0.272-0.162,0.461c0,0.147,0.022,0.297,0.039,0.442
		c0.015,0.138,0.02,0.303,0,0.442c-0.017,0.116-0.075,0.215-0.1,0.326l0.003,0.001L37.236,26.555"/>
	<path d="M36.535,26.379l0.009,0.012h0.006l0.175,0.138c0.06,0.056,0.102,0.11,0.141,0.181c0.065,0.109,0.089,0.215,0.131,0.329
		l0.008,0.012l0.052,0.004l0.062-0.063h0.002l0.016-0.023c0.065-0.216-0.119-0.379-0.216-0.562
		c-0.062-0.113-0.101-0.196-0.101-0.326c0-0.098,0.019-0.182,0.039-0.272c0.015-0.069,0.097-0.327-0.039-0.313
		c-0.098,0.007-0.134,0.181-0.159,0.252l-0.053,0.14l-0.11,0.162c-0.049,0.104-0.019,0.211,0.021,0.315L36.535,26.379"/>
	<path d="M57.084,15.335c0,3.827-2.291,5.689-6.131,5.689c-3.859,0-6.109-1.844-6.109-5.689V6.533h3.154v8.802
		c0,1.546,0.402,3.073,2.955,3.073c2.252,0,2.977-0.972,2.977-3.073V6.533h3.154V15.335"/>
	<path d="M59.797,6.533h6.754c2.732,0,4.582,0.873,4.582,3.51c0,1.388-0.705,2.358-1.949,2.953c1.748,0.496,2.633,1.824,2.633,3.587
		c0,2.875-2.473,4.104-5.064,4.104h-6.955V6.533 M62.952,12.264h3.197c1.105,0,1.93-0.496,1.93-1.686
		c0-1.349-1.045-1.625-2.17-1.625h-2.957V12.264z M62.952,18.27h3.377c1.246,0,2.332-0.396,2.332-1.863
		c0-1.448-0.924-2.021-2.271-2.021h-3.438V18.27z"/>
	<path d="M77.635,6.533h3.234l5.367,14.154h-3.275l-1.086-3.152h-5.367l-1.127,3.152h-3.193L77.635,6.533 M77.333,15.217h3.719
		l-1.811-5.194h-0.039L77.333,15.217z"/>
	<path d="M45.911,24.559h-1.105v-0.297c0.81-0.006,1.171-0.321,1.201-0.819h0.313v4.76h-0.408V24.559"/>
	<path d="M48.016,25.681v-0.014c-0.477-0.121-0.73-0.598-0.73-1.048c0-0.78,0.512-1.177,1.215-1.177
		c0.707,0,1.213,0.396,1.213,1.177c0,0.45-0.246,0.927-0.729,1.048v0.014c0.592,0.061,0.871,0.618,0.871,1.177
		c0,0.9-0.547,1.425-1.355,1.425c-0.805,0-1.357-0.524-1.357-1.425C47.143,26.299,47.422,25.741,48.016,25.681 M48.5,27.945
		c0.613,0,0.92-0.483,0.92-1.054c0-0.578-0.307-1.063-0.92-1.063c-0.615,0-0.92,0.484-0.92,1.063
		C47.581,27.462,47.885,27.945,48.5,27.945z M48.5,25.493c0.523,0,0.775-0.35,0.775-0.854c0-0.512-0.252-0.86-0.775-0.86
		c-0.52,0-0.777,0.349-0.777,0.86C47.723,25.144,47.981,25.493,48.5,25.493z"/>
	<path d="M50.381,24.935c0.012-0.921,0.457-1.492,1.363-1.492c0.654,0,1.246,0.383,1.246,1.291c0,0.577-0.178,0.961-0.797,1.465
		l-0.525,0.424c-0.504,0.41-0.77,0.719-0.846,1.217h2.209v0.363H50.36c0-0.787,0.361-1.298,1.008-1.836l0.518-0.43
		c0.486-0.403,0.668-0.727,0.668-1.184c0-0.631-0.354-0.974-0.852-0.974c-0.551,0-0.857,0.363-0.885,1.155H50.381"/>
	<path d="M54.647,24.559h-1.104v-0.297c0.811-0.006,1.172-0.321,1.199-0.819h0.313v4.76h-0.408V24.559"/>
	<path d="M58.276,23.402h0.436v3.449c0,0.719,0.314,1.068,0.955,1.068s0.955-0.35,0.955-1.068v-3.449h0.436v3.455
		c0,1.009-0.498,1.425-1.391,1.425s-1.391-0.416-1.391-1.425V23.402"/>
	<path d="M61.834,24.633h0.367v0.497h0.014c0.205-0.396,0.559-0.578,0.928-0.578c0.553,0,0.926,0.282,0.926,0.954v2.696h-0.408
		V25.62c0-0.49-0.205-0.731-0.621-0.731c-0.477,0-0.797,0.363-0.797,0.914v2.399h-0.408V24.633"/>
	<path d="M64.956,23.402h0.408v0.687h-0.408V23.402z M64.956,24.633h0.408v3.569h-0.408V24.633z"/>
	<polyline points="65.903,24.633 66.338,24.633 67.143,27.744 67.157,27.744 67.893,24.633 68.329,24.633 67.375,28.202 
		66.911,28.202 65.903,24.633 	"/>
	<path d="M71.069,27.02c-0.063,0.759-0.484,1.263-1.166,1.263c-0.764,0-1.213-0.524-1.213-1.868c0-1.238,0.449-1.862,1.248-1.862
		c0.803,0,1.164,0.545,1.164,1.734v0.148h-1.977v0.168c0,1.028,0.369,1.343,0.771,1.343c0.43,0,0.695-0.302,0.764-0.926H71.069
		 M70.667,26.098c-0.014-0.888-0.268-1.209-0.77-1.209c-0.504,0-0.758,0.321-0.771,1.209H70.667z"/>
	<path d="M71.811,24.633h0.41v0.558h0.014c0.156-0.397,0.49-0.639,0.912-0.639l0.143,0.021v0.402
		c-0.066-0.013-0.135-0.02-0.197-0.02c-0.449,0-0.871,0.322-0.871,1.015v2.232h-0.41V24.633"/>
	<path d="M74.346,26.427c-0.51-0.195-0.695-0.49-0.695-0.846c0-0.734,0.465-1.029,1.078-1.029c0.682,0,0.994,0.343,0.994,0.994
		v0.103h-0.408v-0.103c0-0.463-0.219-0.657-0.594-0.657c-0.477,0-0.66,0.249-0.66,0.604c0,0.248,0.082,0.443,0.49,0.598l0.594,0.223
		c0.49,0.182,0.674,0.518,0.674,0.906c0,0.612-0.354,1.063-1.117,1.063c-0.742,0-1.111-0.303-1.111-1.109v-0.114h0.408v0.095
		c0,0.524,0.232,0.792,0.695,0.792c0.436,0,0.717-0.241,0.717-0.638c0-0.315-0.131-0.518-0.49-0.657L74.346,26.427"/>
	<path d="M76.52,23.402h0.41v0.687h-0.41V23.402z M76.52,24.633h0.41v3.569h-0.41V24.633z"/>
	<path d="M79.725,27.61h-0.014c-0.109,0.41-0.457,0.672-0.887,0.672c-0.799,0-1.158-0.631-1.158-1.868
		c0-1.23,0.359-1.862,1.158-1.862c0.449,0,0.758,0.241,0.846,0.618h0.014v-1.768h0.408v4.8h-0.367V27.61 M78.893,27.945
		c0.416,0,0.791-0.207,0.791-1.531c0-1.317-0.375-1.525-0.791-1.525c-0.41,0-0.791,0.208-0.791,1.525
		C78.102,27.738,78.483,27.945,78.893,27.945z"/>
	<path d="M80.836,25.694c0-0.732,0.354-1.143,1.117-1.143c0.748,0,1.021,0.383,1.021,0.949v2.109c0,0.202,0.068,0.295,0.211,0.295
		h0.117v0.297c-0.076,0.026-0.137,0.041-0.191,0.041c-0.32,0-0.525-0.074-0.525-0.445v-0.12h-0.014
		c-0.162,0.47-0.531,0.604-0.934,0.604c-0.633,0-0.92-0.389-0.92-1.009c0-0.47,0.219-0.847,0.73-0.987l0.77-0.215
		c0.285-0.082,0.348-0.148,0.348-0.565c0-0.458-0.26-0.617-0.627-0.617c-0.484,0-0.697,0.287-0.697,0.806H80.836 M82.567,26.185
		h-0.014c-0.041,0.121-0.273,0.195-0.436,0.235l-0.342,0.088c-0.41,0.108-0.621,0.315-0.621,0.738c0,0.419,0.219,0.699,0.572,0.699
		c0.498,0,0.84-0.368,0.84-1.007V26.185z"/>
	<path d="M85.79,27.61h-0.014c-0.107,0.41-0.455,0.672-0.887,0.672c-0.795,0-1.158-0.631-1.158-1.868
		c0-1.23,0.363-1.862,1.158-1.862c0.451,0,0.758,0.241,0.848,0.618h0.014v-1.768h0.408v4.8H85.79V27.61 M84.959,27.945
		c0.416,0,0.791-0.207,0.791-1.531c0-1.317-0.375-1.525-0.791-1.525c-0.41,0-0.791,0.208-0.791,1.525
		C84.168,27.738,84.549,27.945,84.959,27.945z"/>
	<path d="M46.881,33.763h-0.014c-0.109,0.41-0.457,0.673-0.887,0.673c-0.796,0-1.158-0.631-1.158-1.868
		c0-1.23,0.361-1.862,1.158-1.862c0.451,0,0.758,0.243,0.848,0.618h0.012v-1.768h0.41v4.8h-0.369V33.763 M46.049,34.099
		c0.416,0,0.791-0.208,0.791-1.531c0-1.317-0.375-1.526-0.791-1.526c-0.408,0-0.79,0.209-0.79,1.526
		C45.26,33.891,45.641,34.099,46.049,34.099z"/>
	<path d="M50.446,33.172c-0.063,0.76-0.484,1.264-1.166,1.264c-0.764,0-1.213-0.524-1.213-1.868c0-1.237,0.449-1.862,1.248-1.862
		c0.803,0,1.166,0.545,1.166,1.735v0.147h-1.977v0.167c0,1.029,0.367,1.344,0.77,1.344c0.428,0,0.695-0.301,0.762-0.927H50.446
		 M50.043,32.252c-0.014-0.888-0.266-1.211-0.77-1.211s-0.758,0.323-0.77,1.211H50.043z"/>
	<path d="M53.178,29.556h1.344c0.939,0,1.309,0.49,1.309,1.203c0,0.47-0.26,0.921-0.75,1.043v0.012
		c0.6,0.115,0.906,0.571,0.906,1.197c0,0.84-0.553,1.345-1.473,1.345h-1.336V29.556 M53.616,31.667h0.688
		c0.75,0,1.09-0.316,1.09-0.875c0-0.638-0.334-0.874-1.014-0.874h-0.764V31.667z M53.616,33.992h0.811
		c0.756,0,1.123-0.335,1.123-0.981s-0.367-0.982-1.123-0.982h-0.811V33.992z"/>
	<path d="M56.817,30.786h0.41v2.513c0,0.578,0.197,0.8,0.627,0.8c0.463,0,0.791-0.362,0.791-0.914v-2.398h0.41v3.569h-0.369v-0.499
		h-0.014c-0.205,0.397-0.559,0.579-0.928,0.579c-0.553,0-0.928-0.282-0.928-0.954V30.786"/>
	<path d="M62.292,33.172c-0.063,0.76-0.484,1.264-1.166,1.264c-0.764,0-1.213-0.524-1.213-1.868c0-1.237,0.449-1.862,1.246-1.862
		c0.805,0,1.166,0.545,1.166,1.735v0.147h-1.977v0.167c0,1.029,0.367,1.344,0.771,1.344c0.428,0,0.693-0.301,0.762-0.927H62.292
		 M61.889,32.252c-0.014-0.888-0.266-1.211-0.77-1.211s-0.758,0.323-0.771,1.211H61.889z"/>
	<path d="M63.184,30.786h0.367v0.498h0.014c0.205-0.396,0.559-0.579,0.928-0.579c0.551,0,0.926,0.282,0.926,0.954v2.696H65.01
		v-2.582c0-0.489-0.205-0.732-0.621-0.732c-0.477,0-0.797,0.363-0.797,0.915v2.399h-0.408V30.786"/>
	<path d="M67.485,30.705c0.797,0,1.246,0.625,1.246,1.862c0,1.243-0.449,1.868-1.246,1.868c-0.799,0-1.248-0.625-1.248-1.868
		C66.237,31.33,66.686,30.705,67.485,30.705 M67.485,34.099c0.455,0,0.811-0.39,0.811-1.531c0-1.135-0.355-1.526-0.811-1.526
		c-0.457,0-0.813,0.392-0.813,1.526C66.672,33.709,67.028,34.099,67.485,34.099z"/>
	<path d="M70.122,32.581c-0.512-0.196-0.695-0.492-0.695-0.848c0-0.732,0.465-1.028,1.078-1.028c0.682,0,0.994,0.343,0.994,0.995
		v0.102H71.09V31.7c0-0.464-0.219-0.659-0.594-0.659c-0.477,0-0.66,0.249-0.66,0.605c0,0.249,0.08,0.442,0.49,0.598l0.592,0.223
		c0.492,0.182,0.676,0.518,0.676,0.907c0,0.611-0.355,1.062-1.117,1.062c-0.744,0-1.113-0.304-1.113-1.109v-0.114h0.41v0.094
		c0,0.525,0.232,0.793,0.695,0.793c0.436,0,0.717-0.242,0.717-0.638c0-0.315-0.131-0.518-0.492-0.658L70.122,32.581"/>
	<path d="M75.055,29.556H75.6l1.439,4.8h-0.463l-0.396-1.398h-1.703l-0.396,1.398h-0.463L75.055,29.556 M76.084,32.595l-0.748-2.703
		h-0.014l-0.75,2.703H76.084z"/>
	<path d="M77.674,29.556h0.406v0.687h-0.406V29.556z M77.674,30.786h0.406v3.569h-0.406V30.786z"/>
	<path d="M79.118,30.786h0.41v0.558h0.012c0.158-0.396,0.492-0.639,0.914-0.639l0.143,0.019v0.405
		c-0.066-0.014-0.137-0.021-0.197-0.021c-0.451,0-0.871,0.324-0.871,1.015v2.232h-0.41V30.786"/>
	<path d="M83.459,33.172c-0.063,0.76-0.484,1.264-1.166,1.264c-0.764,0-1.213-0.524-1.213-1.868c0-1.237,0.449-1.862,1.248-1.862
		c0.803,0,1.164,0.545,1.164,1.735v0.147h-1.977v0.167c0,1.029,0.369,1.344,0.771,1.344c0.428,0,0.695-0.301,0.764-0.927H83.459
		 M83.057,32.252c-0.014-0.888-0.266-1.211-0.77-1.211s-0.758,0.323-0.771,1.211H83.057z"/>
	<path d="M84.924,32.581c-0.51-0.196-0.695-0.492-0.695-0.848c0-0.732,0.463-1.028,1.078-1.028c0.68,0,0.994,0.343,0.994,0.995
		v0.102h-0.408V31.7c0-0.464-0.219-0.659-0.594-0.659c-0.477,0-0.66,0.249-0.66,0.605c0,0.249,0.08,0.442,0.49,0.598l0.594,0.223
		c0.49,0.182,0.674,0.518,0.674,0.907c0,0.611-0.354,1.062-1.117,1.062c-0.742,0-1.111-0.304-1.111-1.109v-0.114h0.408v0.094
		c0,0.525,0.232,0.793,0.695,0.793c0.438,0,0.715-0.242,0.715-0.638c0-0.315-0.127-0.518-0.488-0.658L84.924,32.581"/>
</g>
</svg>
