<?xml version="1.0" encoding="utf-8"?>
<!-- Generator: Adobe Illustrator 16.0.0, SVG Export Plug-In . SVG Version: 6.00 Build 0)  -->
<!DOCTYPE svg PUBLIC "-//W3C//DTD SVG 1.1//EN" "http://www.w3.org/Graphics/SVG/1.1/DTD/svg11.dtd">
<svg version="1.1" id="Capa_1" xmlns="http://www.w3.org/2000/svg" xmlns:xlink="http://www.w3.org/1999/xlink" x="0px" y="0px"
	 width="42.469px" height="41.169px" viewBox="0 0 42.469 41.169" enable-background="new 0 0 42.469 41.169" xml:space="preserve">
<g>
	<g>
		<path d="M25.527,19.487c0.062-0.01,0.131-0.071,0.131-0.137c-0.004-0.025-0.062-0.065-0.131-0.073
			c-0.082-0.035-0.137,0.021-0.137,0.073C25.401,19.421,25.457,19.498,25.527,19.487"/>
		<path d="M21.297,30.302c0.646-0.648,0.765-1.578,0.744-1.729l-0.123,0.066c-0.059,0.203-0.211,0.514-0.699,0.75
			c0,0,0.467-0.016,0.684-0.465c-0.01,0.051-0.11,0.541-0.736,1.352C21.167,30.276,21.181,30.403,21.297,30.302"/>
		<path d="M27.568,15.847c0.164,0.021,0.25-0.118,0.25-0.24c0-0.086-0.113-0.232-0.251-0.211c-0.137,0.059-0.249,0.104-0.249,0.301
			C27.32,15.804,27.458,15.865,27.568,15.847"/>
		<path d="M4.639,20.675c-0.177-0.139-1.11-0.186-1.347-0.209c-0.23-0.013-0.789-0.056-0.83-0.056
			c-0.067-0.009-0.127-0.009-0.174-0.067l-0.101-0.082L2.09,20.302H2.084l-0.031,0.17c0.005,0.12-0.003,0.232-0.01,0.353
			c-0.003,0.077,0.056,0.083,0.109,0.065c-0.003,0.004,0.156-0.15,0.258-0.15c0.431,0.013,1.652,0.02,1.827,0.069
			c0.305,0.081,0.348,0.502,0.133,0.69l-0.006,0.01c-0.004,0-0.149,0.041-0.215,0.041c-0.543,0-1.081-0.002-1.623-0.002
			c-0.07-0.004-0.125-0.018-0.178-0.064L2.2,21.423v-0.004l-0.007,0.006l-0.048,0.029c-0.102,0.076-0.05,0.271-0.05,0.383
			c0.004,0.072-0.027,0.564,0.068,0.594l0.194-0.162c0.13-0.039,0.99-0.039,1.26-0.045c0.336-0.014,0.747,0.01,1.026-0.201
			c0.2-0.141,0.186-0.393,0.186-0.604C4.83,21.161,4.861,20.855,4.639,20.675 M4.29,22.159c0.116-0.021,0.2-0.047,0.268-0.084
			C4.488,22.122,4.388,22.144,4.29,22.159z"/>
		<path d="M4.626,18.053c-0.048,0-0.573-0.09-0.797-0.122c-0.389-0.062-0.789-0.104-1.173-0.191c-0.077-0.01-0.107-0.045-0.14-0.103
			l-0.146-0.118H2.367l-0.054,0.035l0.012-0.005v0.005c-0.06,0.059-0.056,0.143-0.075,0.242c-0.017,0.118-0.026,0.242-0.05,0.355
			c-0.009,0.064,0.011,0.134,0.087,0.097v0.005l0.01-0.01l0.044-0.02l0.116-0.086c0.068-0.015,1.008,0.073,0.94,0.105
			c0.062-0.032-0.681,0.396-0.914,0.533c-0.111,0.057-0.236,0.114-0.333,0.199c-0.067,0.057-0.1,0.463-0.117,0.57
			c-0.038,0.158,0.039,0.158,0.063,0.158h0.01l0.244-0.158c0.087-0.038,0.184-0.027,0.277-0.019
			c0.476,0.032,1.828,0.123,1.854,0.157l0.046,0.088c0.011,0.131,0.114,0.143,0.114,0.143c0.098,0.034,0.098-0.141,0.107-0.199
			c0.02-0.166,0.053-0.341,0.046-0.504c-0.013-0.078-0.135-0.006-0.135-0.006c-0.015,0.012-0.042,0.133-0.116,0.145
			c-0.07,0.019-0.172,0.019-0.265,0.007c-0.165-0.019-1.176-0.104-1.216-0.194c0.33-0.188,1.774-0.989,1.774-0.989l0.018-0.017
			C4.966,18.072,4.649,18.053,4.626,18.053 M2.358,18.186l0.019-0.012l0.08-0.043L2.358,18.186z"/>
		<path d="M33.99,6.775l0.169-0.061l-0.011-0.134c-0.123-0.129-0.303-0.205-0.402-0.356c-0.048-0.066-0.13-0.08-0.125-0.084
			c-0.005,0.01-0.162-0.021-0.097,0.173c0.038,0.126-0.019,0.294-0.093,0.402c-0.141,0.188-0.272,0.381-0.414,0.568
			c-0.053-0.073,0.05-0.908,0.064-1.167c0.01-0.159,0.069-0.385-0.06-0.5c-0.088-0.086-0.461-0.355-0.563-0.375l-0.09,0.043
			L32.35,5.431c-0.004,0.079-0.016,0.16-0.035,0.239c-0.022,0.104-0.08,0.187-0.15,0.272c-0.139,0.163-0.728,0.891-0.883,1.08
			c-0.115,0.15-0.241,0.211-0.411,0.307H30.87c-0.009,0.01-0.116,0.081,0.11,0.192c0.112,0.057,0.215,0.139,0.313,0.22
			c0.198,0.175,0.229-0.02,0.238-0.063c0.026-0.141,0.006-0.288,0.098-0.408c0.25-0.35,0.5-0.692,0.745-1.041
			c0.03,0.006,0.011,0.209,0.007,0.282C32.351,6.755,32.212,8,32.176,8.382c-0.013,0.152,0.117,0.242,0.226,0.227l0.072-0.049
			c0.074-0.117,0.076-0.275,0.15-0.399l0.104-0.119c0.315-0.349,0.631-0.702,0.944-1.06C33.764,6.878,33.845,6.796,33.99,6.775"/>
		<path d="M5.113,16.635c-0.008,0-0.238,0.102-0.508,0.029c-0.268-0.063-1.425-0.278-1.635-0.45
			c-0.065-0.055-0.188-0.242-0.285-0.213c-0.003,0-0.047-0.026-0.129,0.335c-0.039,0.189-0.082,0.381-0.102,0.573
			c-0.007,0.078,0.055,0.064,0.083,0.053l0.093-0.064l0.014-0.002H2.638l0.068-0.027c0.075,0.005,1.6,0.264,1.916,0.402
			c0.117,0.054,0.198,0.165,0.291,0.248c0.083,0.068,0.141-0.148,0.15-0.199c0.018-0.14,0.042-0.261,0.079-0.389l0.067-0.189
			C5.244,16.615,5.177,16.61,5.113,16.635"/>
		<path d="M37.331,15.583l0.186-0.076c0,0,1.427-0.514,1.67-0.574c0.076-0.021,0.118,0.037,0.185,0.026
			c0,0.008,0.124,0.013,0.036-0.209c-0.041-0.124-0.09-0.246-0.128-0.37c-0.025-0.1-0.017-0.346-0.18-0.267v-0.005l-0.119,0.123
			l-0.302,0.167c-0.267,0.099-1.406,0.526-1.406,0.526c-0.119,0.025-0.119,0.025-0.167,0.042c-0.039,0.02-0.393,0.01-0.322,0.173
			c0.055,0.114,0.089,0.241,0.119,0.359c0.02,0.068,0.098,0.378,0.19,0.328C37.187,15.778,37.232,15.661,37.331,15.583
			 M37.308,15.595L37.308,15.595l-0.03,0.019L37.308,15.595z"/>
		<path d="M10.862,7.771h-0.005c-0.13-0.002-0.238-0.054-0.341-0.14C10.238,7.33,9.428,6.492,9.334,6.36
			C9.25,6.249,9.249,6.111,9.189,5.993L9.116,5.96l0.001-0.003C9.116,5.96,8.816,6.125,8.465,6.492L8.376,6.61l0.178,0.066
			C8.652,6.685,8.721,6.752,8.78,6.819c0.376,0.354,0.795,0.699,1.099,1.123c0.08,0.117,0.143,0.253,0.174,0.395
			c0.044,0.206,0.206,0.046,0.206,0.039v0.007c0.202-0.199,0.542-0.418,0.563-0.434C10.854,7.93,10.976,7.832,10.862,7.771"/>
		<path d="M35.602,8.449c0.071-0.39-0.188-0.736-0.526-0.918c-0.523-0.285-1.124,0.114-1.485,0.459
			c-0.261,0.252-0.458,0.57-0.499,0.92c-0.047,0.361,0.177,0.719,0.51,0.885c0.496,0.256,1.104-0.125,1.455-0.455
			C35.31,9.087,35.534,8.798,35.602,8.449 M34.416,9.06c-0.061,0.055-0.129,0.131-0.197,0.193c-0.07,0.063-0.135,0.108-0.192,0.147
			c-0.05,0.033-0.11,0.059-0.177,0.065c-0.147,0.027-0.283-0.114-0.335-0.234c-0.068-0.151,0.048-0.308,0.135-0.421
			c0.158-0.193,0.364-0.353,0.553-0.521c0.15-0.13,0.983-0.848,1.039-0.316c0.019,0.176-0.165,0.369-0.259,0.493
			C34.806,8.677,34.606,8.865,34.416,9.06z"/>
		<path d="M8.123,10.163c-0.109,0.003-0.827-0.078-1.072-0.118c-0.119-0.02-0.15-0.014-0.143-0.124
			c0.012-0.157-0.058-0.292-0.18-0.397C6.496,9.302,6.154,9.281,5.885,9.435C5.88,9.439,5.657,9.569,5.201,10.266
			c-0.071,0.109-0.139,0.218-0.213,0.319c-0.121,0.195,0.066,0.129,0.197,0.126c0.203-0.007,0.4,0.173,0.558,0.276
			c0.353,0.24,0.701,0.479,1.047,0.725c0.071,0.081,0.134,0.163,0.164,0.268c0.006,0.024,0.009,0.179,0.085,0.146h0.003v-0.01
			c0.049,0.005,0.373-0.49,0.499-0.689c0.107-0.179-0.158-0.139-0.254-0.179c-0.103-0.042-0.196-0.117-0.295-0.168
			c-0.155-0.089-0.512-0.249-0.274-0.431c0.159-0.064,0.398-0.036,0.569-0.039c0.271-0.015,0.56-0.036,0.822-0.116
			c0.105-0.035,0.256-0.097,0.289-0.21C8.446,10.127,8.2,10.163,8.123,10.163 M6.308,10.625c-0.097,0-0.225-0.12-0.295-0.168
			c-0.112-0.074-0.221-0.146-0.328-0.216c-0.068-0.07-0.119-0.117-0.057-0.204C5.676,9.96,5.731,9.884,5.805,9.825
			c0.198-0.057,0.433,0.15,0.565,0.263C6.543,10.231,6.433,10.475,6.308,10.625z"/>
		<polyline points="39.545,15.618 39.547,15.614 39.545,15.618 		"/>
		<polyline points="39.6,15.585 39.601,15.585 39.607,15.581 39.6,15.585 		"/>
		<path d="M37.73,18.16l0.004-0.002v0.002l0.993-0.71l0.235,0.122c0.201,0.079,0.439,0.041,0.626-0.041
			c0.243-0.111,0.394-0.32,0.42-0.577c0.021-0.244-0.078-0.497-0.14-0.727c-0.052-0.179-0.09-0.35-0.138-0.523
			c-0.034-0.094-0.054-0.14-0.12-0.118h-0.01l-0.008,0.003l-0.02,0.011H39.57l-0.008,0.002l-0.015,0.013l-0.036,0.057l-0.146,0.157
			l-0.187,0.069c-0.083,0.021-1.271,0.3-1.537,0.362c-0.109-0.002-0.241,0.014-0.312-0.068c-0.047-0.062-0.288-0.006-0.205,0.133
			c0.138,0.221,0.101,0.519,0.172,0.757c0.018,0.052,0.123,0.019,0.203-0.063c0.072-0.071,0.164-0.115,0.261-0.145
			c0.108-0.036,0.489-0.168,0.587-0.149c0.284,0.079-0.116,0.362-0.211,0.449c-0.228,0.201-0.439,0.439-0.571,0.709
			c-0.047,0.102-0.126,0.324,0.061,0.334L37.73,18.16 M39.473,16.378c0.127-0.006,0.169,0.015,0.192,0.134
			c0.033,0.134,0.069,0.279-0.046,0.376l-0.174,0.066l-0.114,0.03c-0.113,0.021-0.227,0.021-0.316-0.011
			c-0.109-0.04-0.275-0.339-0.197-0.453C39.031,16.469,39.253,16.425,39.473,16.378z M38.813,16.508l-0.008,0.004l-0.019,0.009
			L38.813,16.508z M38.78,16.526h0.007l-0.012,0.008L38.78,16.526z"/>
		<path d="M8.671,8.007C8.365,8.01,7.582,8.435,7.523,8.458C7.37,8.521,7.207,8.542,7.095,8.41c-0.114-0.139,0.03-0.386,0.172-0.453
			c0.148-0.07,0.338-0.088,0.506-0.112c0.141-0.017,0.33-0.008,0.446-0.103c0.146-0.113-0.306-0.279-0.383-0.314
			C7.753,7.391,7.629,7.352,7.629,7.355c-0.068-0.04-0.114,0.201-0.22,0.254C7.375,7.63,6.991,7.88,6.918,7.95
			C6.697,8.212,6.586,8.627,6.868,8.885c0.256,0.235,0.658,0.214,0.963,0.099c0.02-0.009,0.437-0.234,0.591-0.32
			c0.295-0.146,0.585-0.218,0.611,0.114C9.048,8.972,8.88,9.15,8.749,9.268C8.51,9.466,8.208,9.527,7.914,9.59L7.742,9.643V9.638
			C7.728,9.643,7.657,9.695,7.753,9.75c0.138,0.079,0.295,0.129,0.447,0.189l0.271,0.086l0.073-0.05
			c0.089-0.156,0.201-0.288,0.34-0.405C9.048,9.435,9.183,9.32,9.28,9.138c0.093-0.172,0.128-0.36,0.102-0.551
			C9.34,8.242,9.021,7.997,8.671,8.007"/>
		<path d="M36.367,10.556c-0.047-0.254-0.188-0.506-0.195-0.764l0.07-0.154c0.326-0.125,0.447,0.393,0.454,0.616
			c0.003,0.146-0.018,0.297-0.061,0.433L36.634,10.8c0.135,0.018,0.542-0.363,0.563-0.379c0.149-0.113-0.101-0.272-0.162-0.382
			C37,9.96,36.979,9.878,36.927,9.802L36.83,9.646c-0.17-0.284-0.6-0.586-0.944-0.396l-0.099,0.062
			c-0.008,0.005-0.276,0.227-0.291,0.452c-0.015,0.311,0.086,0.631,0.158,0.929c0.066,0.261,0.094,0.546-0.149,0.728
			c-0.448,0.197-0.635-0.511-0.646-0.816c-0.009-0.203,0.078-0.386,0.096-0.591c0.002-0.086-0.072-0.115-0.141-0.079
			c-0.031,0.029-0.349,0.321-0.459,0.473c-0.077,0.101-0.188,0.19-0.068,0.288c0.188,0.153,0.271,0.298,0.344,0.526
			c0.117,0.367,0.465,0.591,0.859,0.568c0.225-0.02,0.438-0.147,0.602-0.293C36.36,11.245,36.43,10.903,36.367,10.556"/>
		<polyline points="34.813,9.933 34.814,9.933 34.817,9.928 34.813,9.933 		"/>
		<path d="M39.808,20.496c-0.006,0-0.395-0.016-0.529,0.116c-0.232,0.222-0.401,0.618-0.516,0.936
			c-0.088,0.25-0.226,0.486-0.531,0.502c-0.673-0.246-0.302-0.941-0.054-1.133c0.188-0.144,0.289-0.234,0.413-0.316
			c0,0,0.104-0.12-0.017-0.085l-0.845,0.154c0.07,0.136,0.039,0.395-0.047,0.619c-0.133,0.359-0.023,0.836,0.31,1.043
			c0.188,0.119,0.438,0.141,0.659,0.113c0.375-0.043,0.566-0.297,0.725-0.607c0.193-0.393,0.129-0.637,0.373-0.85l0.177-0.05
			c0.337,0.084,0.181,0.632,0.048,0.812c-0.086,0.121-0.463,0.363-0.427,0.367c0.017,0.004-0.074,0.121,0.06,0.107
			c0.138-0.021,0.551-0.141,0.578-0.152c0.102-0.053,0.047-0.156,0.072-0.279c0.014-0.084,0.061-0.371,0.069-0.432
			C40.369,21.034,40.21,20.542,39.808,20.496"/>
		<path d="M11.675,4.928c-0.313-0.198-0.665-0.138-0.99,0.009h0.017c-0.116,0.046-0.882,0.489-0.93,0.557l0.129,0.123
			c0.207,0.072,0.339,0.186,0.457,0.357c0.138,0.206,0.28,0.412,0.428,0.618c0.116,0.168,0.231,0.333,0.346,0.504
			c0.029,0.078,0.044,0.161,0.046,0.247c0.002,0.06-0.034,0.13,0.04,0.169l0.059-0.031c0.091-0.058,0.179-0.14,0.268-0.205
			c0.145-0.097,0.64-0.457,0.702-0.578c0.141-0.192,0.193-0.414,0.158-0.684C12.351,5.589,12.041,5.167,11.675,4.928 M11.818,6.764
			c-0.13,0.037-0.178-0.077-0.249-0.169c-0.106-0.159-0.216-0.318-0.326-0.479c-0.177-0.258-0.351-0.506-0.525-0.762
			c-0.104-0.109-0.065-0.14,0.032-0.209c0.229-0.102,0.418,0.079,0.552,0.252c0.177,0.219,0.318,0.465,0.464,0.701
			C11.901,6.308,12.059,6.574,11.818,6.764z"/>
		<path d="M16.193,2.534c-0.346-0.074-0.741,0.058-1.068,0.15c-0.142,0.044-0.303,0.095-0.423,0.194L14.717,3
			c0.104,0.077,0.217,0.157,0.252,0.285c0.144,0.517,0.293,1.035,0.442,1.55c0.032,0.084,0.025,0.173,0.002,0.254
			c-0.013,0.066-0.074,0.123-0.026,0.188c0.056,0.074,0.377-0.07,0.438-0.097c0.239-0.081,0.489-0.146,0.715-0.273
			c0.688-0.403,0.574-1.241,0.265-1.842C16.677,2.809,16.482,2.599,16.193,2.534 M16.283,4.748c-0.181,0.06-0.191-0.105-0.227-0.239
			C16,4.321,15.941,4.135,15.883,3.946c-0.101-0.306-0.196-0.613-0.296-0.916c-0.02-0.074-0.021-0.132,0.033-0.181
			c0.523-0.193,0.678,0.791,0.754,1.097C16.436,4.214,16.54,4.56,16.283,4.748z"/>
		<path d="M20.117,1.787c-0.369-0.045-0.786,0-1.159,0.054c-0.059,0.007-0.308,0.063-0.246,0.171l0.12,0.14
			c0.046,0.064,0.064,0.145,0.079,0.222C18.961,2.583,19,2.797,19.03,3.012c0.044,0.308,0.057,0.618,0.07,0.934
			c0.002,0.08,0.005,0.157,0.011,0.239l-0.074,0.148c-0.055,0.094,0.1,0.115,0.158,0.108c0.341-0.04,0.713-0.041,1.033-0.155
			c0.094-0.03,0.174-0.067,0.25-0.122l0.15-0.116c0.26-0.246,0.346-0.615,0.349-0.954c0-0.312-0.058-0.678-0.229-0.96
			C20.616,1.914,20.374,1.817,20.117,1.787 M19.618,2.054l0.007-0.016l0.004-0.003L19.618,2.054z M20.018,4.06
			c-0.164,0.054-0.188-0.124-0.2-0.249c-0.021-0.206-0.043-0.407-0.066-0.613c-0.034-0.355-0.072-0.707-0.112-1.063l0.009-0.101
			c0.586-0.171,0.539,0.976,0.542,1.267C20.196,3.564,20.238,3.878,20.018,4.06z"/>
		<path d="M14.901,5.178c-0.12-0.096-0.997-1.054-1.288-1.434c-0.063-0.086-0.074-0.209-0.082-0.317l-0.543,0.115l-0.361,0.205
			l0.072,0.165c0.068,0.108,0.075,0.263,0.098,0.378c0.051,0.29,0.081,0.581,0.106,0.873c0.019,0.223,0.03,0.445,0.042,0.666
			c0.006,0.135,0.008,0.265-0.043,0.393c-0.029,0.068-0.108,0.147-0.09,0.223h0.14l0.025-0.017c0.042-0.04,0.112-0.09,0.195-0.138
			l-0.181,0.125L13,6.415c0.136-0.113,0.51-0.261,0.541-0.271l0.106-0.117c-0.015-0.08-0.2-0.153-0.246-0.221
			c-0.053-0.084-0.083-0.277-0.015-0.35c0.113-0.053,0.495-0.215,0.578-0.227l0.229,0.249l0.02,0.147
			c-0.01,0.069,0.01,0.135,0.094,0.118c0.073-0.013,0.81-0.358,0.818-0.36C15.275,5.293,14.948,5.215,14.901,5.178 M13.681,5.04
			l-0.298,0.116h-0.138L13.21,4.962c-0.02-0.202-0.059-0.619-0.059-0.636c0.129,0.041,0.431,0.465,0.495,0.532
			C13.7,4.923,13.75,4.98,13.681,5.04z"/>
		<polyline points="12.972,6.436 12.992,6.416 12.977,6.428 12.972,6.436 		"/>
		<path d="M37.16,14.203c0.368-0.35,1.174-1.063,1.195-1.08l-0.014,0.007l0.014-0.007l0.338-0.094l0.007-0.003l0.008-0.005H38.7
			c0.14-0.102-0.312-0.65-0.315-0.776c0-0.093-0.105-0.081-0.094-0.086c-0.021,0.008-0.1,0.019-0.241,0.221l-0.173,0.038
			c-0.459,0.099-1.62,0.207-1.734,0.218c-0.16,0.017-0.291-0.054-0.436-0.019l-0.083,0.019c-0.069,0.043,0.046,0.157,0.067,0.186
			l0.137,0.289c0.027,0.083,0.119,0.069,0.19,0.02l0.165-0.147c0.107-0.048,0.22-0.079,0.331-0.102
			c0.104-0.019,0.146,0.014,0.185,0.096c0.052,0.117,0.114,0.235,0.166,0.354c0.037,0.076,0.072,0.137,0.061,0.217
			c-0.011,0.063-0.372,0.288-0.447,0.309l-0.134,0.018H36.34c0,0-0.075,0.027-0.063,0.1c0.014,0.075,0.072,0.142,0.11,0.206
			c0.066,0.114,0.091,0.267,0.132,0.387c0.092,0.25,0.213,0.154,0.207,0.154l0.068-0.128C36.872,14.441,37.035,14.319,37.16,14.203
			 M38.364,13.115l0.009-0.005h0.006l0.013-0.007l-0.027,0.016V13.115z M37.335,13.233h-0.005l-0.005,0.003l0.016-0.01
			L37.335,13.233z M37.083,12.786c0.076-0.021,0.576-0.018,0.579-0.021c-0.003,0.003,0.116,0.03,0.042,0.108l-0.396,0.373
			l0.021-0.014l-0.023,0.018l0.002-0.004l-0.097-0.002c-0.063-0.07-0.081-0.192-0.114-0.279L37.083,12.786z M36.159,12.997v-0.005
			h0.005L36.159,12.997z"/>
		<path d="M6.116,12.088c-0.053,0.089,0.087,0.257,0.115,0.335c0.048,0.124,0.052,0.257,0.044,0.383
			c-0.005,0.121-0.021,0.373-0.112,0.487c-0.079-0.003-0.802-0.406-0.843-0.421c-0.013-0.006,0.068-0.253,0.238-0.294
			c0.082-0.018,0.23-0.025,0.265-0.067c0.096-0.128-0.55-0.38-0.715-0.423c-0.142-0.036-0.044,0.286-0.024,0.335
			c0.017,0.038,0.055,0.183-0.041,0.319c-0.182-0.09-0.67-0.331-0.73-0.359c-0.055-0.022,0.165-0.473,0.285-0.498
			c0.131-0.026,0.362-0.074,0.437-0.118c0.106-0.07-0.021-0.147-0.088-0.154c-0.12-0.023-0.239-0.031-0.359-0.059
			c-0.071-0.019-0.139,0.021-0.139,0.021c-0.131,0.09-0.475,0.849-0.57,1.053c-0.03,0.06-0.26,0.406-0.089,0.391l0.089-0.042
			c0.049-0.033,0.076-0.042,0.159-0.033c0.201,0.021,0.396,0.154,0.568,0.25c0.304,0.169,0.613,0.34,0.924,0.508H5.523
			c0.073,0.051,0.3,0.19,0.33,0.229c0.047,0.06,0.024,0.142,0.109,0.161l0.081-0.039l0.807-1.418
			C6.85,12.634,6.275,11.809,6.116,12.088"/>
		<path d="M31.072,6.471c-0.12,0.01-0.235,0.103-0.345,0.132c-0.233,0.05-0.511,0-0.713-0.104c-0.187-0.095-0.136-0.181-0.052-0.311
			c0.127-0.222,0.265-0.439,0.396-0.66c0.076,0.023,0.131,0.068,0.19,0.129c0.115,0.116,0.146,0.216,0.163,0.369
			c0.004,0.097,0.08,0.15,0.158,0.075c0.1-0.105,0.143-0.293,0.205-0.422c0.035-0.069,0.163-0.321,0.074-0.339l-0.248,0.062
			L30.75,5.381c-0.111-0.034-0.179-0.03-0.246-0.126c0.128-0.193,0.249-0.396,0.397-0.582c0.139-0.012,0.3,0.198,0.361,0.295
			c0.08,0.116,0.138,0.247,0.174,0.379c0.039,0.125,0.164,0.1,0.166,0.1l0.101-0.101c0.038-0.104,0.141-0.389,0.143-0.437
			l-0.229-0.156c-0.35-0.221-0.695-0.45-1.049-0.66c-0.055-0.033-0.369-0.193-0.36,0.002c-0.005,0.069,0.028,0.134,0.02,0.193
			c-0.015,0.143-0.096,0.283-0.163,0.409c-0.188,0.313-0.791,1.279-0.928,1.385c-0.254,0.034-0.232,0.095-0.244,0.103
			c-0.1,0.099,0.217,0.18,0.271,0.203c0.277,0.132,1.018,0.576,1.123,0.647c0.068,0.035,0.127,0.094,0.195,0.117
			c0.008,0,0.15-0.011,0.582-0.501C31.111,6.595,31.231,6.452,31.072,6.471 M29.121,6.099l-0.046,0.018l0.052-0.025L29.121,6.099z"
			/>
		<path d="M37.674,19.953l0.03,0.119l0.064,0.023c0.006,0,0.536,0.073,0.638,0.092c0.152,0.028,0.196-0.074,0.097-0.115
			c-0.361-0.159-0.584-0.574-0.605-0.795c-0.025-0.196,0.072-0.207,0.227-0.218c0.267-0.022,0.527-0.041,0.794-0.062
			c0.023,0.074,0.015,0.141,0,0.227c-0.041,0.154-0.094,0.197-0.219,0.295c-0.076,0.068-0.057,0.158,0.052,0.134
			c0.149-0.028,0.462-0.125,0.6-0.137c0.144-0.013,0.063-0.089,0.063-0.095c-0.262-0.215-0.208-0.328-0.216-0.362
			c-0.049-0.108-0.012-0.097,0.1-0.101c0.239-0.008,0.472-0.041,0.715-0.035c0.086,0.102,0.018,0.507-0.029,0.612
			c-0.048,0.129-0.19,0.188-0.265,0.308c0,0-0.13,0.161,0.102,0.137l0.451-0.129l0.004-0.174c-0.01-0.41-0.035-0.794-0.064-1.203
			c-0.006-0.196-0.035-0.288-0.038-0.29l-0.136-0.003c-0.058,0.035-0.096,0.09-0.162,0.123c-0.121,0.068-0.707,0.014-0.828,0.095
			c-0.149,0.097-1.04,0.152-1.209,0.104c-0.052-0.035-0.045-0.069-0.14-0.104l0.003,0.002l-0.01-0.002h0.007l-0.007-0.005
			c-0.143-0.023-0.109,0.237-0.102,0.306c0.042,0.284,0.085,0.555,0.097,0.838C37.691,19.677,37.672,19.822,37.674,19.953
			 M37.826,18.499l-0.018-0.003l-0.031-0.027L37.826,18.499z"/>
		<path d="M5.516,14.909c-0.113,0.007-0.185-0.013-0.277-0.076c-0.48-0.338-1.003-0.677-1.419-1.088l-0.112-0.142
			c-0.04-0.066-0.076-0.261-0.15-0.221c-0.166,0.092-0.303,0.605-0.303,0.695c0,0.078,0.141,0,0.141-0.001
			c0.21-0.059,0.587,0.271,0.726,0.374c0.078,0.054,0.627,0.383,0.52,0.52c-0.068,0.023-1.087-0.011-1.197-0.019
			c-0.144-0.004-0.227-0.056-0.341-0.119c-0.07-0.044-0.11,0.019-0.122,0.023v0.005c-0.035,0.023-0.198,0.639-0.232,0.738
			c-0.013,0.039,0.05,0.113,0.121,0.056l0.05-0.06l0.198-0.012c0.124,0,2.053-0.063,2.107,0.026
			c0.139,0.198,0.217,0.058,0.221,0.051c0.084-0.134,0.121-0.317,0.174-0.464l0.08-0.291L5.516,14.909"/>
		<path d="M24.1,6.158c-0.285-0.161-0.501-0.418-0.734-0.643c-0.111-0.115-0.229-0.228-0.349-0.337l-0.168-0.134
			c-0.002,0.023,0.227,0.32,0.33,0.446c0.265,0.293,0.56,0.55,0.9,0.758L24.1,6.158"/>
		<path d="M25.973,6.437c-0.548-0.242-0.959-0.647-1.406-0.996c-0.215-0.178-0.44-0.355-0.674-0.527l-0.318-0.205
			c-0.003,0.032,0.434,0.499,0.636,0.694c0.499,0.459,1.075,0.856,1.725,1.181C25.941,6.583,26.078,6.487,25.973,6.437"/>
		<path d="M22.767,6.837c-0.105-0.105-0.205-0.207-0.338-0.288c-0.082-0.054-0.337-0.165-0.422-0.048v0.004
			c0.082,0.081,0.162,0.255,0.168,0.359c0.01,0.137,0.006,0.31,0.167,0.34c0.101,0.019,0.31-0.066,0.317-0.072l0.005-0.003
			c-0.206,0.081-0.354-0.027-0.324-0.23c0.019-0.195-0.123-0.289-0.132-0.303c0.156,0.104,0.184,0.068,0.451,0.384
			c0.072,0.083,0.251,0.168,0.374,0.105l0.119-0.09C22.992,7.056,22.873,6.943,22.767,6.837"/>
		<path d="M26.994,16.874c0.326,0.163,0.724,0.172,1.045,0.014c0.525-0.257,0.645-0.83,0.713-1.122l-0.105,0.059
			c-0.07,0.244-0.352,0.882-1.143,0.913c-0.748,0.034-1.191-0.387-1.199-0.378C26.51,16.56,26.736,16.742,26.994,16.874"/>
		<path d="M27.745,18.855c0.274,0.094,0.666,0.215,0.833,0.449c0,0.008,0.007,0.466,0.023,0.771c0.02,0.328-0.09,0.708-0.374,0.916
			l0.115-0.063c0.417-0.311,0.417-0.953,0.368-1.408c-0.027-0.291,0.178-0.512,0.431-0.675c-0.158,0.099-0.348,0.218-0.462,0.38
			C28.477,18.996,27.769,18.862,27.745,18.855"/>
		<path d="M30.341,23.312l0.049-0.156c-0.222-1.061-1.806-1.098-1.842-1.102C29.375,22.247,29.978,22.532,30.341,23.312"/>
		<path d="M19.41,20.895c0.279-0.06,0.586,0.244,0.753,0.442c0.351,0.422,0.699,0.85,0.997,1.305c0.063,0.1,0.124,0.201,0.172,0.307
			l0.066,0.064c0.117-0.008,0.354,0.057,0.473,0.053c0.49-0.014,0.917-0.01,1.403-0.023c0.786-0.018,1.67,0.018,2.384-0.105
			l0.048-0.098c-0.794,0.023-1.577,0-2.381,0.023c-0.485,0.008-0.912,0-1.398,0.014c-0.12,0-0.454,0.047-0.475,0.004
			c-0.054-0.115-0.124-0.227-0.19-0.338c-0.311-0.455-0.658-0.893-1.015-1.313c-0.227-0.271-0.644-0.562-1.01-0.38
			c-0.112,0.053-0.155,0.162-0.231,0.26C19.028,21.075,19.308,20.921,19.41,20.895"/>
		<path d="M18.339,28.528c0.574,0.262,1.294,0.416,1.903,0.195l0.117-0.068c-0.606,0.221-1.323,0.064-1.897-0.191
			c-0.702-0.316-1.354-0.785-1.908-1.307c-0.57-0.547-1.426-1.967-1.426-1.967c0.267,0.729,0.719,1.461,1.275,2
			C16.962,27.733,17.626,28.2,18.339,28.528"/>
		<path d="M20.957,30.366c-0.086-0.076-0.199-0.016-0.305-0.033c-1.851-0.137-3.21-1.098-3.217-1.092
			c0.646,0.693,1.551,1.137,2.493,1.328C20.791,30.739,21.024,30.431,20.957,30.366"/>
		<path d="M22.827,30.515c-0.137,0.635-0.885,0.953-0.893,0.955C22.668,31.47,22.86,30.878,22.827,30.515"/>
		<path d="M16.057,27.419c0.193,0.52,0.665,1.396,1.108,2.021c0.24,0.352,0.544,0.654,0.807,0.99
			c0.221,0.289,0.528,0.643,0.552,1.027l0.14,0.189c0.004,0.004,0.098-0.541-0.555-1.266C17.085,29.255,16.056,27.409,16.057,27.419
			"/>
		<path d="M16.125,30.29c-0.018-0.252-0.051-0.506-0.098-0.762c-0.086-0.473-0.215-0.963-0.457-1.387l-0.012,0.004l-0.166,0.098
			c0.166,0.193,0.243,0.43,0.323,0.664c0.088,0.295,0.154,0.6,0.206,0.904c0.07,0.385,0.104,0.77,0.158,1.152l0.045-0.02l0.014-0.01
			l0.005-0.258C16.138,30.546,16.131,30.417,16.125,30.29"/>
		<path d="M27.4,23.282l0.064-0.027c0.084-0.063-0.832-1.018-1.435-1.258l-0.046,0.023C26.999,22.62,27.404,23.28,27.4,23.282"/>
		<path d="M36.712,22.901c0.011,0-0.28-0.191-0.248-0.281l-0.091-0.006C36.291,22.7,36.544,22.874,36.712,22.901"/>
		<path d="M25.742,4.554L25.735,4.56c-0.012,0.082,0.229,0.279,0.274,0.332c0.2,0.264,0.36,0.553,0.486,0.851
			c0.113,0.271,0.191,0.57,0.201,0.867c-0.18-0.319-0.443-0.596-0.688-0.857l-0.058,0.043c0.32,0.401,0.544,0.725,0.714,1.152v0.003
			L26.64,7.054l0.115,0.084l0.074-0.063c0.081-0.145,0.119-0.301,0.123-0.466c0.01-0.332-0.138-0.658-0.306-0.944
			C26.488,5.393,25.773,4.554,25.742,4.554 M26.664,7.042l-0.008,0.006l0.008-0.01V7.042z"/>
		<path d="M6.688,30.839l0.024-0.26c0.146,0.029,0.461,0.004,0.555-0.033c0.299-0.129,0.398-0.439,0.344-0.744L7.61,29.784
			c-0.057-0.287-0.445-0.811-0.458-0.84l-0.229-0.338L6.75,28.729c-0.112,0.061-0.267,0.074-0.392,0.1
			c-0.291,0.064-1.354,0.154-1.586,0.172c-0.14,0.01-0.266,0.02-0.402-0.025c-0.076-0.027-0.117-0.119-0.196-0.094L4.15,28.974
			c-0.005-0.008,0.232,0.248,0.289,0.541c0.009,0.014,0.383-0.26,0.69-0.102c0.056,0.107,0.38,0.662,0.362,0.832
			c-0.066,0.137-0.375,0.363-0.375,0.363l0.007,0.064l0.006-0.008l0.259,0.451c0.006,0.018,0.111,0.164,0.144-0.029
			c0.026-0.143,0.192-0.482,0.306-0.584c0.102-0.098,0.204-0.193,0.298-0.289l0.118,0.115c0.096,0.119,0.195,0.195,0.099,0.424
			c-0.101,0.248-0.417,0.639-0.483,0.822c-0.037,0.1,0.199,0.412,0.199,0.412c0.064,0.061,0.078,0,0.121-0.076
			C6.364,31.509,6.714,31.073,6.688,30.839 M6.005,29.661c-0.101,0.063-0.161,0.178-0.263,0.236l-0.273-0.561l0.206-0.041
			c0.202-0.031,0.595-0.078,0.593-0.025C6.222,29.397,6.027,29.642,6.005,29.661z M6.283,29.991
			c0.161-0.146,0.641-0.861,0.704-0.777c0.06,0.076,0.207,0.23,0.213,0.381c-0.016,0.197-0.209,0.484-0.37,0.561
			C6.649,30.235,6.388,30.138,6.283,29.991z"/>
		<path d="M9.33,32.698c0,0,0.25-0.313,0.271-0.066c0,0,0.041,0.422,0.206,0.215c0,0,0.106-0.176,0.215-0.234
			c0,0,0.182-0.012-0.018-0.188l-0.839-0.809c0,0-0.083-0.215-0.265-0.012l-0.134,0.133c0,0-0.171,0.146,0.068,0.18
			c0,0,0.22,0.02,0.29,0.238l-0.77,0.732c0,0-0.08,0.148-0.187-0.016l-0.41-0.486c0,0-0.156-0.207-0.218,0.049
			c0,0-0.033,0.297-0.417,0.377c0,0-0.209,0.041-0.331-0.236c0,0-0.072-0.146,0.249-0.459l0.913-0.852c0,0,0.166-0.195,0.347-0.074
			c0,0.006,0.17,0.154-0.104,0.426l0.225,0.195c0,0,0.176-0.137,0.25-0.27c0.02-0.066,0.196-0.4-0.195-0.619
			c0,0-0.389-0.408-1.033,0.092c0,0-1.117,0.699-0.936,1.463c0,0,0.263,0.729,0.951,0.643c0,0,0.266,0.01,0.378-0.203
			c0,0,0.029-0.123,0.146,0.053c0,0,0.144,0.1-0.003,0.225c0,0-0.166,0.279-0.413,0.303c0,0-0.184,0-0.043,0.18l0.308,0.324
			c0,0,0.169,0.148,0.213-0.041C8.043,33.96,8.518,33.323,9.33,32.698"/>
		<path d="M11.657,33.769c0,0-0.14-0.053-0.38,0.113l-0.9,0.611c0,0-0.139,0.023-0.127-0.127c0,0,0.186-0.607,0.22-0.734
			c0,0,0.199-0.605,0.046-0.727c0,0-0.167-0.227-0.324-0.047l-1.596,1.496c0,0-0.204,0.166-0.047,0.293l0.202,0.201
			c0,0,0.138,0.143,0.192-0.047c0,0,0.02-0.133,0.174-0.301L9.76,33.88c0,0,0.069-0.109,0.082,0.033l-0.315,1.281
			c0,0-0.084,0.357,0.178,0.262l1.279-0.84c0,0,0.153-0.133,0.103,0.104l-0.555,1.25c0,0-0.087,0.129,0.052,0.227l0.177,0.131
			c0,0,0.186,0.131,0.217-0.041l0.813-2.102C11.79,34.185,11.933,33.886,11.657,33.769"/>
		<path d="M13.675,34.989l-0.205-0.102c0,0-0.214-0.131-0.318,0.115c0,0-0.017,0.168-0.299,0.404l-0.502,0.426
			c0,0-0.112,0.08-0.077-0.064l0.332-1.025c0,0,0.176-0.271-0.181-0.418c0,0-0.212-0.193-0.289,0.068l-0.626,2.129
			c0,0-0.138,0.188,0.069,0.273l0.154,0.111c0,0,0.209,0.074,0.312-0.061l1.669-1.631C13.714,35.216,13.896,35.083,13.675,34.989"/>
		<path d="M14.294,35.28c-0.153-0.102-0.082-0.047-0.082-0.047s-0.199-0.15-0.334,0.105l-0.977,1.865c0,0-0.253,0.227-0.04,0.275
			l0.191,0.098c0,0,0.146,0.109,0.245-0.059l0.957-1.887C14.255,35.632,14.444,35.374,14.294,35.28"/>
		<path d="M18.886,36.897c0,0-0.258-0.133-0.348,0.002l-0.801,1.129c0,0-0.111,0.188-0.052-0.609c0,0,0.205-0.367-0.111-0.342
			c0,0-0.374-0.107-0.421,0.305c0,0,0.012,0.188,0.062,0.32l0.122,1.133c0,0-0.016,0.164,0.141,0.184c0,0,0.154,0.066,0.309-0.148
			l1.166-1.758C18.953,37.112,19.136,36.96,18.886,36.897"/>
		<path d="M19.619,37.54c0.135-0.258,0.354-0.025,0.354-0.025c0.162,0.152,0.22-0.051,0.22-0.051
			c0.112-0.199-0.029-0.242-0.029-0.242c-0.241-0.168-0.629-0.09-0.629-0.09c-0.713,0.207-0.164,1.031-0.164,1.031
			c0.601,0.746,0.072,0.832,0.072,0.836c-0.473,0.012-0.537-0.342-0.537-0.342c-0.173-0.254-0.301-0.016-0.301-0.016l-0.143,0.211
			c-0.104,0.213,0.13,0.279,0.13,0.279c0.926,0.539,1.33,0.137,1.33,0.137c0.665-0.59,0.118-1.111,0.118-1.111
			C19.466,37.63,19.619,37.54,19.619,37.54"/>
		<path d="M17.467,36.626c0,0,0.052-0.205-0.194-0.232c0,0-0.146-0.01-0.502-0.148c0,0-0.361-0.229-0.524-0.035
			c0,0-0.246,0.355-0.002,0.365c0,0,0.191-0.096,0.277-0.061c0,0,0.089-0.057,0.032,0.174l-0.568,1.488c0,0-0.047,0.264-0.342,0.016
			c0,0-0.115-0.104-0.146-0.479c0,0-0.001-0.363-0.12-0.52c0,0,0.264-0.057,0.441-0.303c0,0,0.227-0.328,0.107-0.719
			c0,0-0.096-0.248-0.383-0.348l-0.65-0.281c0,0-0.304-0.137-0.237,0.137c0,0,0.011,0.211-0.101,0.41l-0.775,1.543
			c0,0-0.158,0.213,0.063,0.277l0.299,0.137c0,0,0.164,0.133,0.212-0.066c0,0,0.063-0.354,0.186-0.566l0.168-0.381
			c0,0,0.37,0.066,0.408,0.674c0,0-0.064,0.764,0.485,0.891c0,0,0.629,0.229,0.838-0.299l0.543-1.436c0,0-0.015-0.199,0.127-0.172
			c0,0,0.057-0.031,0.154,0.055C17.263,36.747,17.468,36.847,17.467,36.626 M14.944,36.864c-0.227,0.004-0.104-0.186-0.104-0.186
			l0.312-0.635c0.043-0.18,0.151-0.078,0.151-0.078l0.186,0.125c0.173,0.191-0.102,0.658-0.102,0.658
			C15.303,36.933,14.944,36.864,14.944,36.864z"/>
		<path d="M23.064,37.286c0,0-0.914-0.086-0.836,0.949c0.082,1.043,1.081,0.832,1.081,0.832s0.543-0.182,0.514-1
			C23.804,37.374,23.064,37.286,23.064,37.286 M23.017,38.788c0,0-0.307,0.09-0.338-0.645c-0.033-0.711,0.332-0.613,0.332-0.613
			s0.381,0.047,0.38,0.559C23.382,38.858,23.017,38.788,23.017,38.788z"/>
		<path d="M28.775,37.646c0,0-0.165-0.041-0.425-0.391c0,0-0.292-0.354-0.499-0.373c0,0,0.398-0.369,0.278-0.764
			c0,0-0.028-0.584-0.787-0.416l-0.517,0.139c0,0-0.152-0.02-0.081,0.262c0,0,0.161,1.389,0.088,1.75c0,0-0.322-0.488-0.426-0.605
			c0,0-0.461-0.701-0.425-0.842c0,0,0.083-0.355-0.12-0.211c0,0-0.3,0.16-0.412,0.154c0,0-0.239-0.033,0.088,0.25
			c0,0,0.161,0.066,0.503,0.637l0.729,1.137c0,0,0.139,0.252,0.332,0.127c0,0,0.187-0.023,0.204-0.236l-0.014-1.084
			c0,0,0.018-0.287,0.343-0.061c0,0,0.082,0.049,0.419,0.48c0,0,0.324,0.488,0.743,0.283C28.797,37.882,29.016,37.755,28.775,37.646
			 M27.459,36.808c-0.194,0.139-0.161-0.041-0.161-0.041l-0.035-0.633c-0.037-0.26,0.196-0.201,0.196-0.201
			c0.245-0.023,0.282,0.428,0.282,0.428C27.769,36.673,27.459,36.808,27.459,36.808z"/>
		<path d="M29.914,36.935l-0.83-1.611c-0.125-0.188,0.265-0.145,0.265-0.145c0.238-0.09,0.009-0.268,0.009-0.268
			c-0.131-0.188-0.267-0.02-0.267-0.02c-0.088,0.064-0.879,0.432-0.879,0.432c-0.267,0.047-0.173,0.195-0.173,0.195l0.088,0.197
			c0.141,0.197,0.205-0.014,0.205-0.014l0.109-0.205c0.173-0.145,0.253,0.01,0.253,0.01l0.215,0.418
			c0.13,0.184-0.009,0.209-0.009,0.209l-0.25,0.162c-0.264,0.158-0.029,0.334-0.029,0.334c0.117,0.152,0.418-0.115,0.418-0.115
			c0.164-0.139,0.188,0.016,0.188,0.016l0.223,0.42c0.123,0.262-0.014,0.268-0.014,0.268l-0.222,0.057
			c-0.249,0.047-0.143,0.313-0.143,0.313c0.056,0.178,0.298,0.041,0.298,0.041l0.695-0.363
			C30.227,37.128,29.914,36.935,29.914,36.935"/>
		<path d="M30.68,35.079c0,0-0.656-0.004-0.406-0.438c0,0,0.453-0.371,0.551-0.018c0,0,0.02,0.287,0.247,0.086
			c0,0,0.168-0.189,0-0.398c0,0-0.154-0.432-0.896-0.111c-0.577,0.238-0.333,0.857-0.333,0.857s0.037,0.447,0.993,0.477
			c0,0,0.726-0.029,0.445,0.572c0,0-0.165,0.266-0.569,0.098c0,0-0.43-0.211-0.414,0.264c0,0,0.039,0.262,0.707,0.252
			c0,0,0.965-0.102,0.788-1.008C31.793,35.712,31.753,35.116,30.68,35.079"/>
		<path d="M33.133,35.052c-0.185-0.076-0.29-0.205-0.29-0.205l-0.94-1.266c-0.115-0.098-0.013-0.156-0.013-0.156
			c0.046-0.092,0.295-0.148,0.295-0.148c0.208-0.137,0.013-0.279,0.013-0.279c-0.143-0.195-0.279-0.027-0.279-0.027l-0.808,0.631
			c-0.209,0.139-0.127,0.256-0.127,0.256l0.088,0.189c0.115,0.162,0.203-0.035,0.203-0.035c0.018-0.07,0.151-0.227,0.151-0.227
			c0.119-0.119,0.17,0.01,0.17,0.01l0.843,1.166c0.128,0.131,0.208,0.439,0.208,0.439c0.082,0.256,0.31,0.061,0.31,0.061
			l0.182-0.143C33.193,35.226,33.318,35.126,33.133,35.052"/>
		<path d="M33.554,32.237c0,0-0.104-0.16-0.107-0.463c0,0-0.016-0.285-0.197-0.068l-0.277,0.25c0,0-0.214,0.248,0.019,0.309
			c0,0,0.14-0.057,0.239,0.244l0.615,1.367c0,0,0.058,0.088-0.072,0.066l-1.004-0.494c0,0-0.202-0.125-0.298,0.049
			c0,0-0.275,0.215,0.105,0.35l1.316,0.586c0,0,0.085,0.119,0.221,0.006l0.162-0.125c0,0,0.112-0.059,0.021-0.313L33.554,32.237"/>
		<path d="M34.479,30.819c0,0-0.44-0.051-0.733,0.34c0,0-0.098,0.205-0.18,0.189c0,0-0.216,0.184,0.086,0.311
			c0,0,0.348,0.119,1.283,1.217c0,0,0.079,0.004,0.133,0.305c0,0,0.057,0.393,0.319,0.102l0.579-0.699c0,0,0.29-0.49-0.173-0.918
			C35.793,31.665,35.043,30.812,34.479,30.819 M35.439,32.679l-1.237-1.125c-0.313-0.141-0.088-0.355-0.088-0.355
			c0.218-0.197,0.591,0.094,0.591,0.094c0.415,0.238,0.817,0.756,0.817,0.756C35.755,32.392,35.439,32.679,35.439,32.679z"/>
		<path d="M36.75,31.247c0,0-0.147-0.021-0.509-0.264c0,0-0.978-0.754-1.166-0.855c0,0-0.27-0.383-0.48-0.045
			c0,0-0.192,0.193,0.109,0.289l1.719,1.221c0,0,0.14,0.197,0.255,0.055l0.135-0.135C36.813,31.513,36.962,31.331,36.75,31.247"/>
		<path d="M38.447,28.073l-1.813-0.449c0,0-0.451-0.223-0.527-0.014c0,0-0.138,0.158,0.135,0.365l0.402,0.387
			c0,0,0.173,0.145-0.091,0.111l-0.521-0.139c0,0-0.23-0.131-0.329,0.113c0,0-0.164,0.137,0.143,0.426c0,0,1.061,0.992,1.089,1.133
			c0,0-0.323-0.084-1.495-0.566c0,0-0.26-0.297-0.417,0.049c0,0-0.178,0.225,0.179,0.332l1.979,0.693c0,0,0.253,0.076,0.336-0.09
			c0,0,0.175-0.17-0.03-0.387l-1.087-1.174c0,0-0.108-0.088,0.067-0.082l0.984,0.268c0,0,0.25-0.004,0.1-0.176l-0.809-0.816
			c0,0,1.561,0.271,1.576,0.5c0,0,0.184,0.201,0.239-0.055l0.084-0.168C38.641,28.335,38.801,28.062,38.447,28.073"/>
		<path d="M17.96,2.849c-0.231,0.004-0.412,0.196-0.395,0.381c-0.005,0.197,0.172,0.362,0.402,0.354
			c0.207,0.005,0.387-0.166,0.387-0.362C18.359,3.009,18.175,2.872,17.96,2.849"/>
		<path d="M23.971,2.675c-0.233-0.002-0.412,0.189-0.396,0.381c-0.001,0.196,0.172,0.362,0.4,0.355
			c0.209-0.006,0.393-0.17,0.39-0.364C24.373,2.837,24.181,2.695,23.971,2.675"/>
		<path d="M36.394,11.829c-0.007,0.2,0.162,0.363,0.396,0.358c0.209-0.002,0.39-0.171,0.39-0.363c0-0.211-0.181-0.354-0.398-0.375
			C36.552,11.449,36.374,11.641,36.394,11.829"/>
		<polyline points="38.158,26.085 38.16,26.079 38.158,26.085 		"/>
		<path d="M41.096,20.331C40.948,9.643,32.079,1.067,21.219,1.067H20.96C10.078,1.207,1.369,9.915,1.369,20.566
			c0,0.09,0,0.177,0,0.268c0.149,10.683,9.015,19.269,19.869,19.269c0.088,0,0.176,0,0.264-0.006
			C32.388,39.96,41.1,31.251,41.1,20.603C41.1,20.515,41.1,20.425,41.096,20.331 M1.833,23.3c0.157,0.154,0.331,0.223,0.563,0.35
			c0.216,0.113,0.417,0.188,0.637,0.232c-0.188,0.086-0.402,0.174-0.372,0.447c0.003,0.021,0.026,0.328,0.025,0.395
			c-0.012,0.197-0.037,0.303-0.116,0.484c-0.085,0.193,0.104,0.486,0.204,0.658l-0.057,0.266c-0.043,0.42,0.453,0.957,0.764,1.127
			c0.077,0.188,0.238,0.342,0.406,0.455c0.104,0.064,0.318,0.137,0.275,0.277c-0.493-0.205-0.957-0.533-1.377-0.908
			C2.344,25.872,2.021,24.61,1.833,23.3z M3.69,24.401c-0.025,0.242-0.121,1.285,0.033,1.65c-0.128,0.059-0.331,0.254-0.294,0.449
			c-0.166-0.1-0.217-0.395-0.209-0.416c0.024-0.064,0.024-0.143,0.019-0.209c-0.007-0.119-0.069-0.395-0.097-0.426
			c-0.045-0.07-0.053-0.162-0.04-0.248c0.007-0.102,0.024-0.168,0.072-0.252c0.089-0.154,0.07-0.563,0.064-0.57l-0.122,0.072
			c0,0,0.015,0.375-0.063,0.551c-0.037,0.09-0.079,0.141-0.092,0.244c-0.018,0.127,0.074,0.227,0.1,0.346
			c0.059,0.266-0.013,0.482-0.021,0.539c-0.006,0.029,0.287,0.635,0.378,0.816H3.42l0.009,0.129
			c-0.77-0.676-0.507-1.176-0.535-1.215c-0.037-0.064-0.07-0.205-0.094-0.275c-0.065-0.201-0.052-0.418,0.012-0.617
			c0.05-0.15,0.11-0.32,0.069-0.479c-0.108-0.422,0.224-0.488,0.407-0.559c0.039,0.004,0.335,0.035,0.435,0.045
			C3.667,24.104,3.708,24.265,3.69,24.401z M3.812,24.333c0.008-0.127,0.043-0.248,0.119-0.338c0.04,0.008,0.428,0.064,0.574,0.1
			c0.012,0.172,0.085,0.682,0.562,1.207C5.042,25.444,4.851,25.567,4.8,25.72c-0.078,0.252-0.266,0.572-0.243,0.803
			c-0.095-0.057-0.185-0.133-0.263-0.188L4.253,26.31l0.007-0.006c-0.071-0.309,0.569-0.762,0.384-0.883
			c-0.033-0.006-0.054,0-0.121,0.072c-0.158,0.182-0.367,0.457-0.391,0.715c-0.104-0.088-0.215-0.207-0.274-0.342
			c-0.011-0.125-0.028-0.279-0.042-0.43c0.054-0.152,0.192-0.301,0.319-0.414l0.06-0.049h0.003H4.195l0.093-0.098
			c0.067-0.035,0.067-0.074,0.036-0.125c-0.099-0.092-0.145-0.047-0.229,0.01l-0.142,0.127c-0.067,0.051-0.126,0.096-0.164,0.148
			C3.785,24.802,3.787,24.567,3.812,24.333z M7.958,24.001c0.195,0.094,0.132,0.254,0.049,0.414
			c-0.052,0.104-0.16,0.176-0.205,0.285c-0.06,0.156,0.058,0.293,0.058,0.539l0.099,0.355c-0.013,0.141-0.268,0.271-0.479,0.256
			l-0.109,0.197c-0.018,0.104-0.02,0.205-0.061,0.307c-0.062,0.156-0.238,0.273-0.377,0.365c-0.115,0.074-0.158,0.195-0.212,0.318
			c0.023,0.051-0.251,0.162-0.411,0.172c-0.268,0.025-0.143,0.357-0.166,0.402l-0.195,0.143c-0.115,0.072-0.171,0.275-0.192,0.416
			l-0.166,0.016c-0.036-0.391,0.11-0.803,0.231-1.168c0.169-0.49,0.392-0.967,0.633-1.432c0.298-0.594,0.6-1.15,0.967-1.701
			c-0.019,0.035-0.037-0.07-0.133,0.029c-0.363,0.545-1.658,2.754-1.715,3.049c-0.01,0.043-0.127,0.053-0.201,0.029
			c-0.047-0.117-0.06-0.25-0.006-0.373c-0.018,0.031-0.322,0.203-0.058,0.563c0,0.135-0.1,0.521,0.108,0.637
			c0.039,0.119,0.116,0.4-0.078,0.381c-0.172-0.166-0.283-0.469-0.302-0.67c-0.002-0.084,0.081-0.162,0.026-0.285
			c-0.074-0.145-0.179-0.252-0.118-0.389c0.022-0.066,0.201-0.4,0.077-0.523c-0.301-0.281-0.157-0.527-0.023-0.73
			c0.064-0.09,0.294-0.135,0.213-0.418c-0.025-0.092-0.048-0.145-0.072-0.23c-0.074-0.26,0.141-0.422,0.351-0.549
			c0.151-0.068,0.532-0.404,0.574-0.404c0.564,0.031,0.517-0.203,0.608-0.33c0.071-0.104,0.15-0.166,0.282-0.145
			c0.11,0.023,0.17,0.018,0.277-0.021c0.171-0.064,0.394-0.225,0.565-0.201c0.139,0.018,0.086,0.137,0.038,0.383
			C7.808,23.804,7.813,23.923,7.958,24.001z M5.062,25.196l0.01,0.078c-0.119-0.213-0.478-0.916-0.362-1.125
			c0.071,0.023,0.15,0.055,0.225,0.09c0.12,0.061,0.284,0.09,0.378,0.18C5.293,24.419,4.74,24.306,5.062,25.196z M3.867,26.132
			v-0.006l0.02,0.006c0.133,0.113,0.15,0.174,0.293,0.273c0.121,0.086,0.269,0.205,0.427,0.273c0.046,0.111,0.087,0.094,0.095,0.285
			c0.009,0.203-0.095,0.414-0.074,0.609c0.018,0.205,0.113,0.467,0.284,0.617c-0.117-0.014-0.231-0.035-0.346-0.066
			c-0.019-0.391-0.626-0.523-0.657-0.547c-0.096-0.072-0.182-0.168-0.251-0.268c-0.132-0.209-0.081-0.428-0.111-0.658
			C3.484,26.245,3.854,26.126,3.867,26.132z M21.501,39.851h-0.264c-8.293,0-15.415-5.082-18.27-12.283
			c1.894,1.734,3.741,0.453,3.88,0.322c1.239,2.287,3.078,4.26,5.298,5.711c1.689,1.098,3.541,1.994,5.529,2.42
			c0.043,0.242,0.178,0.496,0.45,0.545c0.164,0.031,0.298-0.041,0.306-0.049c0.126,0.6,1.092-0.141,1.229-0.262
			c-0.031,0.029-1.067,0.574-1.116,0.281c-0.02-0.09,0.065-0.152,0.12-0.184c0.138-0.094,0.431-0.309,0.441-0.318
			c-0.462,0.244-0.682,0.387-0.684,0.393c-0.193,0.027-0.357,0.02-0.446-0.162c-0.061-0.109-0.011-0.271-0.007-0.275
			c0.197-0.027,0.391-0.086,0.582-0.133c0.953-0.246,2.125-1.23,2.229-1.619c0.907-0.346,2.397-0.566,2.862-0.613
			c0.168,0.283,0.371,0.549,0.445,0.875c0.095,0.383-0.064,0.789-0.41,1.01c-0.041,0.031-1.585,0.867-1.66,0.93
			c-0.388,0.324-1.109,0.42-1.115,0.42c0,0-0.308,0.223-0.507,0.195c-0.305-0.041,0.043-0.322,0.153-0.416h-0.012
			c-0.005,0.002-0.517,0.359-0.74,0.326c-0.196-0.029-0.179-0.143-0.056-0.232c0.185-0.125,0.403-0.311,0.403-0.311
			c-0.015,0.008-0.557,0.346-0.695,0.381c-0.281,0.076-0.331-0.129-0.331-0.129c-0.027,0.037-0.018,0.332,0.371,0.232
			c0.099,0.232,0.407,0.207,0.654,0.059c-0.026,0.303,0.271,0.27,0.528,0.191l0.026,0.039l-0.083,1.785c0,0,0.024,0.162-0.027,0.23
			c0,0-0.173,0.229,0.096,0.232l0.282,0.012c0,0,0.245,0.049,0.216-0.17l-0.009-0.84c0,0,0.25-0.232,0.456,0.346
			c0,0,0.344,0.869,0.992,0.551c0,0,0.197-0.119-0.076-0.174c0,0-0.278,0.061-0.554-0.559c0,0-0.093-0.205-0.268-0.332
			c0,0,0.387-0.092,0.373-0.646c0,0,0.059-0.426-0.506-0.525l-0.694-0.033c0.074-0.035,0.124-0.061,0.132-0.066
			c0.631-0.053,1.02-0.385,1.161-0.508l1.27-0.17c0.107,0.152,0.338,0.066,0.417,0.039c0.003,0.098,0.074,0.162,0.163,0.209
			c-0.021,0.025-0.071,0.08-0.151,0.09c0,0-0.207,0.037-0.031,0.281c0,0,0.103,0.027,0.224,0.971c0,0,0.111,0.74,0.103,0.975
			c0,0-0.155,0.357,0.122,0.309c0,0,0.092-0.045,0.492-0.084c0,0,0.59-0.145,0.674-0.186c0,0,0.472-0.119,0.348-0.824
			c0,0-0.083-0.355-0.441-0.451c0,0-0.126-0.021-0.048-0.145c0,0,0.369-0.715-0.361-0.982l-0.036,0.008
			c0.257-0.164,0.473-0.428,0.611-0.641l0.041-0.057c2.875-0.799,5.566-2.488,7.567-4.623c1.759-1.881,3.032-4.209,3.679-6.672
			c0.123-0.078,0.227-0.146,0.316-0.199c-0.055,0.088-0.044,0.164-0.136,0.344c-0.075,0.164,0.07,0.027,0.07,0.027
			c0.191-0.248,1.003-0.846,1.077-0.879c-0.092,0.211,0.062,0.65,0.037,0.953c-0.037,0.379-0.161,0.703-0.285,1.066
			c0,0,0.005,0.02-0.401,1.047c-0.063,0.172,0.052,0.383,0.151,0.521l-0.422-0.158c-0.123-0.051-0.174-0.066-0.316-0.072
			l-0.237-0.088l-0.188-0.447c-0.035-0.092-0.151-0.068-0.115,0.07c-0.01,0.492,0.41,0.598,0.441,0.619
			c0.115,0.086,0.781,0.023,0.964,0.223c0.008,0.004,0.021-0.121,0.06-0.26c0.01-0.078,0.037-0.154,0.055-0.236
			c0.02-0.086,0.04-0.17,0.07-0.252l0.004-0.021c0.021-0.098,0.968-2.229,1.499-3.006c0.28-0.328,0.481-0.396,0.754-0.51l0.005,0.01
			l-0.008,0.008c0.022,0.133,0.036,0.271,0.043,0.402c0.027,0.881-0.297,1.734-0.73,2.514c-0.127,0.225-0.354,0.4-0.51,0.607
			l-0.13-0.02l-0.11-0.006h-0.063l0.017-0.043l0.027-0.037c0.063-0.094,0.092-0.207,0.148-0.297c0.141-0.23,0.333-0.447,0.466-0.691
			c0.074-0.139,0.152-0.271,0.228-0.412c0.075-0.148,0.117-0.305,0.189-0.459c0.076-0.154,0.135-0.299,0.178-0.461
			c0.045-0.166,0.162-0.322,0.17-0.496l-0.039-0.16l-0.257,0.041c-0.091,0.064-0.124,0.215-0.174,0.305
			c-0.071,0.121-0.072,0.223-0.106,0.355c-0.04,0.156-0.143,0.287-0.216,0.426c-0.087,0.162-0.128,0.342-0.202,0.506
			c-0.076,0.16-0.156,0.322-0.248,0.48c-0.088,0.154-0.15,0.326-0.25,0.479c-0.063,0.098-0.088,0.178-0.097,0.279l-0.075,0.146
			c-0.158,0.305-0.519,0.553-0.53,0.879c0,0,0.066,0.018,0.114-0.064c0.197-0.295,0.377-0.545,0.615-0.705V26.87
			c0.152,0,0.299,0.027,0.426,0.104c0.002,0.004,0.184,0.184-0.229,0.637c-0.14-0.01-0.279-0.027-0.42-0.059
			c-0.305-0.049-0.267,0.127-0.267,0.127c0.441,0.076,0.935,0.115,1.313-0.092C36.692,34.681,29.721,39.745,21.501,39.851z
			 M20.768,32.067c-0.085-0.191-0.265-0.416-0.226-0.639c-0.07-0.133-0.209,0.021-0.27,0.096c-0.102,0.129-0.419,0.609-0.594,0.701
			c-0.066,0.01-0.126-0.059-0.154-0.104l0.059-0.135l-0.604,0.006c-0.092,0-0.456,0.063-0.879-0.055
			c-0.283-0.078-0.576-0.086-0.868-0.113c-0.235-0.029-0.479-0.01-0.706,0.035c-0.063,0.01-0.323,0.023-0.314-0.385
			c0.002-0.127-0.251-0.211-0.345-0.26c-0.225-0.102-0.636-0.143-0.608-0.16h0.003c-0.11-0.01-0.118-0.191-0.128-0.264
			c-0.033-0.215-0.072-1.607-0.029-2.082c0.092-1.006-0.139-1.998-0.305-2.994c-0.074-0.451-0.214-0.939-0.197-1.396
			c0.043-1.549,1.627-2.348,1.642-2.359c0.447-0.006,1.382-0.018,1.401-0.018c-0.207,0.064-2.225,0.744-1.918,2.402
			c0.133,0.732,0.502,1.414,0.91,2.031c0.445,0.678,1.615,1.844,1.625,1.844c-0.705-0.785-1.438-1.957-1.786-2.557
			c-1.27-2.158-0.027-2.801,0.289-3.057c0.525-0.418,1.523-0.635,1.539-0.639c0.06,0.441,0.707,0.297,0.707,0.297
			c0.113,0.117,1.978,2.037,2.022,2.037c1.12,0.027,0.604,0.068,2.963,0.131c0.224,0.004,2.627,0.033,2.773-0.162
			c0.095-0.133,0.006-0.473-0.052-0.592c-0.118-0.27-0.3-0.508-0.476-0.742c-0.171-0.213-0.35-0.418-0.538-0.617
			c0.372,0.193,0.665,0.594,0.919,0.887l0.002-0.068c-0.514-0.965-1.167-1.088-1.17-1.088h-0.002
			c-0.093-0.088-0.184-0.178-0.273-0.264c-0.094-0.09-0.187-0.17-0.29-0.246c0.501-0.236,0.989,0.01,1.069,0.02
			c0.267,0.023,0.532,0.1,0.782,0.197c0.216,0.084,0.771,0.434,0.869,0.467c0.442,0.143,0.904,0.395,1.266,0.742
			c0.186,0.176,0.399,0.355,0.569,0.547c0.293,0.496,0.225,1.105-0.154,1.58c-0.133,0.164-0.774,1.107-1.695,0.988
			c-0.324,0.012-0.648,0.012-0.973,0.012c-1.041-0.002-4.077-0.217-4.535-0.322c-0.451-0.105-0.81-0.307-1.092-0.648
			c-0.297-0.35-0.651-0.639-0.936-0.99c-0.402-0.49-0.944-0.914-0.968-0.928c-0.004,0,0.699,0.842,0.879,1.049
			c0.276,0.301,0.903,1.164,1.296,1.432l0.004,0.125c-0.035-0.039-0.98-0.299-1.733-1.379c-0.041-0.057-0.115-0.051-0.065,0.053
			l0.322,0.439l-0.53-0.34c-0.005,0-0.444-0.15-0.417,0.152c0.028,0.291,1.295,0.586,1.757,0.906
			c-0.093,0.01-1.153-0.365-1.674-0.129c-0.36,0.162-1.83-0.041-1.837-0.035c1.181,0.449,1.766,0.213,2.652,0.188
			c0.24-0.008,0.453,0.102,0.695,0.127l0.305-0.061l0.24,0.131l-0.011,0.004c0.505,0.584,0.865,1.365,0.741,2.137
			c-0.109,0.672-0.799,1.105-1.459,1.193c0,0,0.927,0.168,1.406-0.49c0.516-0.715,0.115-1.861,0.112-1.869
			c0.439,0.432,0.635,1.037,0.54,1.65c-0.068,0.412-0.176,0.834-0.352,1.219c-0.038,0.086-0.086,0.17-0.143,0.244l-0.072,0.094
			c0.016-0.006,0.599-0.342,0.734-1.645c0.007,0.066,0.017,0.139,0.021,0.203c0.05,0.543-0.01,1.4,0.208,1.711
			c0.001,0-0.11-0.84,0.003-1.484c0.113,0.115,0.74,0.729,0.771,0.793c0.123,0.254-0.548,1.023-0.549,1.217
			c0,0.111,0.133,0.861,0.177,1.113c0.091,0.477,0.201,0.957,0.394,1.414c0.036,0.08,0.072,0.16,0.119,0.234
			c-0.912-0.061-2.274,0.217-3.501,0.762c-0.389,0.168-0.759,0.377-0.664,0.518c0.08,0.119,0.263-0.072,0.263-0.072
			c0.119-0.195,0.797-0.465,0.799-0.465c-0.02,0.035-0.396,0.512-0.879,0.826l-0.127,0.074l0.066-0.039v-0.006l-0.069,0.047
			c-0.089,0.043-0.202,0.066-0.284-0.051c-0.176-0.252,0.518-1.113,0.596-1.18c0.107-0.092,0.107-0.109,0.115-0.256
			c0.004-0.068,0.103-0.336,0.142-0.381c0.069-0.08,0.101-0.207,0.139-0.314c0.08-0.201,0.203-0.389,0.362-0.549
			C20.762,32.323,20.805,32.134,20.768,32.067z M15.116,31.134l-0.003,0.016L15.116,31.134z M17.055,20.631
			c-0.15-0.028-0.297-0.072-0.395-0.178c0.21-0.156,0.704-0.175,0.694-0.183c0.029,0.023,0.731,0.563,0.941,0.845
			c0.009,0.002-0.452-0.585-0.709-0.813c-0.182-0.157-0.354-0.309-0.539-0.459c0.258-0.007,0.51,0.018,0.773,0.01
			c0.014,0,0.436,0.438,0.596,0.684c0.137,0.202,0.336,0.472,0.336,0.73c0,0.037-0.125,0.205-0.115,0.332
			c0.014,0.209,0.172,0.209,0.223,0.379l0.119-0.068c-0.049-0.16-0.227-0.162-0.227-0.35c0.003-0.129,0.096-0.225,0.111-0.346
			c0.039-0.25-0.201-0.554-0.331-0.75c-0.276-0.425-0.6-0.827-0.933-1.213c1.543,0.152,3.082,0.325,4.627,0.451
			c0.342,0.022,0.732,0.86,0.751,0.997c-0.815-0.188-1.676-0.232-2.501-0.221c-0.322,0-0.818-0.039-1.132,0.032
			c-0.36,0.082-0.389,0.507-0.377,0.477c0,0,0.112-0.413,0.771-0.401c0.376,0.004,0.954,0.004,1.292,0.018
			c1.292,0.052,2.683,0.174,3.711,0.974c0.398,0.313,1.559,1.729,1.721,2.068c0.243,0.523,0.063,0.514,0.025,0.559l-0.48,0.061
			c-0.476-0.018-0.939,0.02-1.414,0.006c-1.02-0.027-3.312-0.086-3.431-0.088l-0.106-0.025c-0.285-0.287-0.564-0.576-0.85-0.861
			c-0.346-0.344-0.685-0.691-1.025-1.037c-0.048-0.047-0.093-0.137-0.171-0.119c-0.599,0.152-0.629-0.357-0.647-0.354
			c-0.799,0.002-1.414-0.07-2.305,0.021c-0.131,0.012-0.332,0.111-0.457,0.096c-0.23-0.031,0-0.27,0.098-0.355
			c0.193-0.186,0.474-0.394,0.555-0.654c0.046-0.131,0.189-0.264,0.284-0.357c0.003,0,0.244,0.139,0.388,0.159
			c0.178,0.035,1.17,0.549,1.425,0.713C18.365,21.419,17.412,20.699,17.055,20.631z M16.24,21.96l-0.005,0.002L16.24,21.96z
			 M30.498,16.773c-0.224-0.373-0.403-0.761-0.51-1.159c0.889,0.151,2.065-0.024,2.515-0.203c0.628,1.231,0.954,2.628,1.163,3.992
			c0.094,0.609,0.096,1.245,0.091,1.87c-0.008,0.738-0.107,1.52-0.239,2.244c-0.114,0.641-0.297,1.279-0.634,1.852
			c-0.086,0.145-0.16,0.201-0.291,0.314c-0.296,0.236-0.587,0.338-0.948,0.631l-0.16,0.033c-0.129,0.078-0.198,0.346-0.271,0.471
			c-0.141,0.25-0.508,0.555-0.605,0.621c-0.117,0.078-0.27,0.072-0.25-0.186c0.002-0.102,0.986-1.529,1.085-1.666
			c0.085-0.119,0.175-0.244,0.301-0.318l0.157-0.125c0.138-0.246,0.063-1.594,0.036-1.873c-0.054-0.545-0.069-1.088-0.117-1.635
			c-0.044-0.544-0.113-1.09-0.175-1.638c-0.037-0.233-0.037-0.469-0.053-0.71c-0.025-0.251-0.115-1.012-0.206-1.208
			c0.11,0.106,0.384,0.301,0.392,0.313C31.535,18.148,30.772,17.308,30.498,16.773z M32.296,14.384
			c-0.692,0.623-1.928,0.64-2.772,0.369l-0.094,0.006c-0.082-0.195-0.147-0.381-0.134-0.445c1.905,0.184,2.686-0.461,2.817-0.83
			c0.082-0.229-0.579-1.297-0.683-1.439h0.006c-0.719-2.139-0.111-2.659,0.222-2.791l0.017-0.005l0.03-0.011l0.02-0.007l0.005-0.002
			c0.331-0.087,0.616,0.167,0.692,0.242c1.17,1.231,2.53,2.927,3.442,4.913c-0.065-0.071-0.627-0.52-1.082-0.141
			c-0.063,0.051-0.245,0.456,0.076,0.665l0.088,0.024l-0.003,0.002c-0.028,0.089-0.015,0.176,0.063,0.223l-0.01,0.011
			c-0.24,0.322-0.452,0.694-0.548,1.08c-0.061,0.235-0.061,0.497,0.132,0.675c0.202,0.189,0.869,0.252,0.869,0.252
			c0,0.015,0.286,2.902,0.286,4.062l-1.298,1.072c-0.044-0.086-0.032-0.688-0.035-0.945c0-1.476-0.116-2.943-0.515-4.372
			c-0.153-0.573-0.411-1.181-0.717-1.702c0,0,0.478,1.294,0.643,1.916c0.381,1.423,0.473,2.878,0.473,4.341
			c0,0.271,0.03,0.586,0.03,0.861l0.063,0.07l1.384-1.152c0.051,0.156,0.116,0.277,0.299,0.301c0.109,0.008,0.254-0.01,0.361-0.035
			c0.195-0.043,0.425-0.09,0.654,0.063l-0.008,0.143c-0.184-0.072-0.452,0.121-0.514,0.092c0.25,0.131,0.361-0.066,0.5,0.02
			c-0.006,0.094-0.021,0.186-0.025,0.279c-0.083-0.066-0.173-0.135-0.173-0.135s0.09,0.18,0.16,0.256
			c-0.019,0.117-0.03,0.209-0.046,0.318c-0.014-0.01-0.277-0.125-0.31-0.301l-0.106-0.012c-0.078,0.094,0.226,0.354,0.409,0.383
			c-0.028,0.188-0.044,0.316-0.073,0.477c-0.197,0.063-0.516,0.131-0.586,0.053l0.211-0.158c-0.144,0.025-0.385-0.152-0.385-0.152
			c0.002,0.078,0.039,0.154,0.046,0.227c-0.136-0.025-0.442-0.041-0.476-0.041c-0.073,0-0.215,0.053-0.263,0.107
			c-0.202,0.234-0.923,0.959-1.004,0.982l-0.005-0.197c0.207-0.604-0.066-0.92-0.066-0.92c0.029,0.359-0.085,0.705-0.323,1.521
			c-0.063,0.23,0.597-0.164,0.791-0.381c0.678-0.752,0.858-0.596,0.866-0.604c-0.078,0.803-0.259,1.596-0.469,2.377
			c-0.105,0.387-0.193,0.773-0.329,1.143c-0.043,0.111-0.095,0.223-0.097,0.35c-0.006,0.299,0.408,0.201,0.646,0.113
			c-0.905,1.771-2.173,3.359-3.725,4.699c-0.353,0.307-0.72,0.596-1.079,0.871c-0.416-0.211,0.029-1.352,0.146-1.637
			c0.297-0.742,0.7-1.449,1.054-2.168c0.174-0.357,0.323-0.727,0.516-1.08c0.446-0.818,0.46-1.037,0.452-1.039
			c0.126-0.014,0.283-0.066,0.394-0.152c-0.015,0.086-0.525,1.254-0.757,1.771c-0.227,0.496-0.469,0.984-0.713,1.473
			c-0.187,0.361-0.409,0.699-0.608,1.059c-0.268,0.48-0.454,1.053-0.526,1.605c0-0.027,0.092,0.113,0.116-0.068
			c0.126-0.936,0.748-1.664,1.174-2.494c0.501-0.975,0.985-2.027,1.327-3.068c0.063-0.197,0.135-0.406,0.14-0.615
			c0-0.1,0.077-0.141,0.146-0.215c0.11-0.123,0.227-0.283,0.206-0.451l-0.11,0.066c0.011,0.148-0.08,0.279-0.17,0.393l-0.185,0.229
			c0,0.084,0.003,0.15-0.017,0.234c-0.019,0.012-0.352,0.215-0.488,0.145c-0.077-0.037-0.107-0.105-0.179-0.145
			c-0.22-0.125-0.563-0.029-0.762,0.082c-0.306,0.182-0.869,0.615-0.927,0.279c0.129,0.027,0.32-0.086,0.552-0.279
			c0.429-0.354,1.306-0.469,1.306-0.469l0.259-0.145c-0.276-0.031-1.093,0.172-1.891,0.707c0.272-0.246,0.378-0.432,0.496-0.701
			c0.028-0.012,0.869-0.504,1.201-0.816c0.212-0.197,0.178-0.014,0.308-0.268c0.398-0.795,0.6-1.957,0.7-2.848
			c0.123-1.148,0.126-2.337-0.064-3.48c-0.215-1.271-0.533-2.562-1.119-3.722l0.149-0.072c0.061-0.039,0.084-0.192-0.027-0.146
			c-0.794,0.318-2.191,0.387-2.517,0.348c-0.203-0.022-0.391-0.029-0.536-0.182c-0.027-0.031-0.13-0.237-0.225-0.452
			c0.961,0.258,2.418,0.316,2.918-0.433L32.296,14.384z M36.628,18.134c0,0,0.196-0.109,0.337,0.004
			c0.159,1.094,0.205,2.205,0.128,3.314c-0.107-0.02-0.225-0.021-0.338-0.01C36.848,20.718,36.625,18.107,36.628,18.134z
			 M36.789,17.768c-0.179-0.674-0.703-1.281-1.388-1.52c0.378,0.18,1.155,0.921,1.271,1.567c-0.062-0.146-1.161-1.662-1.851-1.257
			c-0.18,0.105,0.038,0.226,0.038,0.226l0.16-0.102l0.116,0.09c0.079,0.286,0.195,0.181,0.266,0.269
			c-0.243-0.005-1.016-0.061-0.839-0.833c0.079-0.361,0.487-0.992,0.487-0.992c0.108,0.021,0.21-0.033,0.318-0.043
			c0.122-0.011,0.271-0.027,0.355,0.07c0.003,0.008-0.056-0.246-0.521-0.128c-0.038,0.012-0.211,0.053-0.155-0.151
			c0.071-0.013,0.155-0.005,0.193-0.09c0.141-0.268,0.372-0.101,0.372-0.101c-0.074-0.164-0.168-0.199-0.292-0.127
			c-0.114,0.064-0.114,0.192-0.263,0.204c-0.247,0.027-0.363-0.258-0.191-0.512c0.166-0.259,0.621-0.104,0.763-0.011
			c0.118,0.07,0.226,0.163,0.325,0.263c0.227,0.445,0.781,2.233,0.947,3.148L36.789,17.768z M35.481,16.693
			c0.108,0.067,0.215,0.145,0.31,0.23c0.191,0.158,0.381,0.316,0.545,0.542c0.047,0.517,0.166,1.266,0.195,1.776
			c0.037,0.563,0.123,1.348,0,2.23c-0.122,0.023-0.651,0.178-0.689-0.252C35.851,20.06,35.554,17.042,35.481,16.693z M36.127,25.772
			c0.192-0.91,0.464-1.381,0.544-2.305c0.07-0.02,0.135-0.041,0.168-0.051c-0.089,0.521-0.155,0.83-0.295,1.34
			C36.303,25.651,36.104,25.878,36.127,25.772z M35.426,27.429c-0.22,0.115-0.479,0.23-0.508,0.002
			c-0.009-0.104,0.351-1.09,0.458-1.488c0.233-0.885,0.59-2.703,0.636-2.697c0.057,0.016,0.265,0.098,0.396,0.078
			C36.328,24.243,35.745,26.79,35.426,27.429z M35.392,23.692l-0.123,0.066L35.392,23.692z M25.71,33.817
			c0.009-0.258,0.184-1.281,0.244-1.531c0.075-0.328,0.246-0.617,0.174-0.961c-0.068-0.346-0.375-0.602-0.689-0.744
			c-0.16-0.076-1.257-0.166-1.599-0.732c0-0.01,0.097-0.076-0.462-0.631c-0.228-0.23-0.452-0.465-0.681-0.689
			c-0.19-1.283-1.063-2.029-1.063-2.029h-0.005c-0.096-0.205-0.21-0.393-0.346-0.576c0.146,0.01,0.293-0.025,0.402-0.113
			c0.203,0.063,0.41,0.104,0.615,0.133c0.53,0.072,1.058,0.143,1.592,0.201c0.565,0.057,1.121,0.117,1.685,0.16
			c0.541,0.037,1.08,0.037,1.621,0.043c0.057,0.412,0.192,1.447,0.178,1.775c-0.012,0.25-0.066,0.49-0.07,0.738
			c0.004,0.254,0.023,0.654,0.313,0.766c0.305,0.115,0.714,0.271,0.981,0.471c0.002,0.094,0.017,0.184,0.002,0.275
			c-0.025,0.273,0.904,0.52,1.08,0.592c0.384,0.186,0.674,0.498,0.853,0.871c0,0-0.448,1.084-0.054,1.447
			c-1.377,0.996-2.847,1.74-4.588,2.248c-0.068,0.021-0.079-0.025-0.079-0.076C26.222,34.897,25.703,33.937,25.71,33.817z
			 M24.685,37.655c-0.275,0.102-0.197-0.1-0.197-0.1l-0.051-0.389c-0.098-0.439,0.17-0.4,0.17-0.4c0.381-0.127,0.36,0.42,0.36,0.42
			C25.02,37.669,24.685,37.655,24.685,37.655z M24.562,38.099c-0.06-0.291,0.471-0.234,0.471-0.234s0.326,0.027,0.296,0.557
			c-0.024,0.49-0.478,0.477-0.478,0.477c-0.198,0.033-0.188-0.121-0.188-0.121C24.664,38.567,24.562,38.099,24.562,38.099z
			 M24.071,36.343c-0.04-0.133,0.31-0.406,0.399-0.537c0.179-0.262,0.139-0.584,0.139-0.578c-0.019,0.232-0.236,0.488-0.388,0.652
			c-0.14,0.158-0.279,0.342-0.356,0.379c-0.078,0.045-0.201,0.057-0.26-0.029c-0.099-0.18,0.031-0.232,0.004-0.215
			c0.491-0.23,0.625-0.475,0.64-0.732c0,0.035-0.184,0.467-0.585,0.621c-0.104,0.041-0.142,0.066-0.187,0.158
			c-0.354-0.186-0.057-0.303,0.346-0.535c0.01-0.008,0.186-0.137,0.315-0.283c0.301-0.32,0.228-0.779,0.083-1.154
			c-0.08-0.211-0.164-0.412-0.229-0.631c-0.185-0.592-0.344-1.238-0.678-1.771c-0.061-0.119-0.138-0.236-0.156-0.369
			c-0.013-0.121-0.02-0.518,0.033-0.588c0.056-0.09,0.372-0.58,0.523-0.691l0.008-0.004c0.3,0.535,1.271,0.57,1.505,0.645
			c0.697,0.213,0.752,0.813,0.741,1.027c-0.015,0.24-0.133,0.461-0.198,0.686c-0.139,0.467-0.404,0.924-0.37,1.42
			c0.017,0.271,0.359,1.008,0.329,1.246c-0.041,0.375-0.464,0.896-0.527,0.977C24.757,36.565,24.138,36.556,24.071,36.343z
			 M21.435,25.913c0.079-0.016,0.156-0.047,0.224-0.092C21.591,25.876,21.518,25.905,21.435,25.913z M28.591,29.94
			c-0.249-0.174-0.568-0.299-0.854-0.383c-0.296-0.084-0.306-0.529-0.308-0.764c-0.005-0.25,0.044-0.488,0.065-0.74
			c0.023-0.361-0.16-1.232-0.28-1.707l0.038,0.002c0.33,0.006,0.661,0.008,0.996,0.004c0.106,0.418,0.363,1.484,0.254,1.945
			C28.455,28.507,28.55,29.282,28.591,29.94z M30.542,27.571c0.097,0.039,0.521,0.172,0.854-0.047
			c0.2-0.115,0.504-0.367,0.467-0.344c0.441-0.264,0.7,0.01,0.729,0.027l-0.188,0.201c-0.02,0.02-0.398,0.502-0.988,0.811
			c-0.361,0.188-1.829-0.303-1.31-1.043c0.078-0.059,0.181-0.07,0.208-0.082c-0.052,0.086-0.052,0.133-0.076,0.223
			C30.189,27.517,30.392,27.628,30.542,27.571z M31.628,25.333l0.072-0.039L31.628,25.333z M31.591,25.2
			c-0.047,0.047-0.395,0.424-1.232,1.807c-0.018,0.01-0.481,0.053-0.492,0.537c-0.008,0.66,1.26,1.059,1.519,0.949
			c0,0,0.455-0.158,1.071-0.725c-0.131,0.229-0.261,0.459-0.343,0.701c-0.132,0.367-1.182,2.408-1.521,3.219
			c-0.158-0.322-0.391-0.598-0.703-0.793c-0.164-0.098-0.336-0.145-0.524-0.203c-0.192-0.059-0.526-0.146-0.628-0.348
			c-0.012-0.02-0.023-2.027-0.092-2.699c-0.018-0.184-0.201-0.934-0.351-1.293c0.177-0.008,0.354-0.012,0.535-0.023
			c0.423-0.025,0.875-0.031,1.279-0.166c0.882-0.285,1.411-1.469,1.557-1.375C31.76,24.845,31.689,25.144,31.591,25.2z
			 M21.992,36.468c-0.085,0.082-0.171,0.145-0.269,0.191C21.821,36.606,21.903,36.536,21.992,36.468z M20.238,36.835l0.084-0.059
			L20.238,36.835z M21.172,37.388c-0.013-0.154,0.247-0.096,0.247-0.096c0.246,0,0.181,0.422,0.181,0.422
			c0.013,0.268-0.21,0.359-0.21,0.359c-0.23,0.123-0.213-0.088-0.213-0.088L21.172,37.388z M38.871,23.95
			c-0.004,0.002-0.305,0.098-0.711,2.129l-0.008,0.082l-0.003,0.004c-0.454,0.607-0.407,1.094-0.419,1.162
			c-0.265-0.285,0.135-1.006,0.18-1.09l0.008-0.02l0.028-0.072c0.045-0.098,0.073-0.199,0.115-0.299
			c0.12-0.361,0.218-0.727,0.254-1.107c0.077-0.883,0.687-1.127,0.729-1.104c0.063,0.191-0.006,0.553-0.071,0.744
			c-0.077,0.238-0.186,0.328-0.361,0.678l-0.03-0.111C38.559,24.626,38.796,24.073,38.871,23.95z M39.561,27.437
			c-0.136,0.1-0.294,0.162-0.456,0.174c0.081-0.115,0.212-0.258,0.246-0.393c0.028-0.1-0.061-0.182-0.003-0.277
			c0.065-0.109,0.25-0.471,0.383-0.703c0.496-0.895,0.79-1.984,0.626-3.006c0.118-0.055,0.227-0.119,0.322-0.199
			C40.48,24.563,40.103,26.04,39.561,27.437z M40.702,22.845c-0.258,0.223-0.62,0.408-0.864,0.477
			c-0.326,0.088-0.619,0.199-0.946,0.24c-0.742,0.105-1.289,0.264-1.892,0.709l-0.098,0.008c0.105-0.422,0.19-0.857,0.256-1.283
			c0.263-1.707,0.229-3.459-0.088-5.166c0-0.018-0.68-3.048-1.555-4.507c-0.859-1.44-1.732-2.774-2.927-3.991h-0.001l-0.026-0.027
			l-0.007-0.006c-0.082-0.059-0.348-0.201-0.471-0.214c-0.346-0.039-0.553-0.002-0.657,0.05c-0.39,0.153-0.839,0.801-0.297,2.482
			c-0.379-0.557-0.788-1.014-1.089-1.32l-0.005-0.003l-0.126-0.046l0.004,0.001l-0.013-0.003l-0.005-0.002h-0.008l-0.18-0.068h0.002
			C29.292,10,28.488,9.734,28.449,9.733c-0.048-0.095-0.101-0.195-0.153-0.299c0.913,0.397,1.125,0.104,1.169,0.093
			c-0.238,0.063-1.122-0.249-1.33-0.434c-0.124-0.274-0.354-0.811-0.376-0.803c0.169,0.459,0.273,0.98,0.509,1.414l-0.156-0.051
			c-0.104-0.045-0.394-0.388-0.499-0.439l0.008,0.213c-0.028-0.015-0.387-0.445-0.455-0.471c-0.065-0.035,0.026,0.277-0.04,0.254
			c-0.266-0.102-0.857-0.314-0.853-0.688c0.077-0.02,0.152-0.297,0.204-0.446c0.197-0.103,0.363-0.604,0.371-0.712l-0.051-0.023
			c0,0-0.133,0.224-0.207,0.28c0.016-0.104,0.014-0.201-0.033-0.272c-0.087-0.126-0.717-0.299-0.785-0.318l-0.153-0.003
			c-0.025-0.005,0.392,0.146,0.578,0.235c0.339,0.17,0.166,0.66,0.161,0.687c-0.09-0.13-0.223-0.247-0.348-0.321
			c-0.087-0.057-0.189-0.142-0.286-0.181l-0.069,0.043c0.106,0.077,0.328,0.283,0.35,0.3c0.112,0.119,0.219,0.251,0.253,0.363
			c0,0-0.025,0.152-0.061,0.233C26.105,8.22,26.001,8.071,25.88,7.93c-0.077-0.086-0.4-0.374-0.873-0.565
			c-0.525-0.208-1.174-0.873-1.344-1.143c0.271,0.439,0.592,0.923,1.065,1.137c0.268,0.122,0.661,0.324,0.661,0.33
			c-0.111,0.39-0.579,0.675-0.741,0.629c0.226,0.064,0.468-0.033,0.619-0.149c0.122-0.09,0.222-0.219,0.301-0.356
			c0.282,0.227,0.565,0.738,0.567,0.738c-0.028,0.132,0.163,0.384,0.243,0.463c0.392,0.346,0.931,0.514,1.421,0.678
			c0.376,0.128,1.761,0.542,2.05,0.681c0.022,0.034,1.082,1.33,1.453,2.059c0.099,0.194,0.483,1.198,0.466,1.217
			c-0.674,0.608-2.363,0.597-2.363,0.597s-0.188-0.126-0.315-0.324c0,0-0.235-0.361-0.331-0.413c0.08,0.22,0.164,0.438,0.246,0.657
			c0.065,0.182,0.108,0.4,0.221,0.563l0.026,0.044l0.034,0.037c0.058,0.118,0.171,0.39,0.18,0.419
			c0.027,0.166,0.371,0.354,0.377,0.354c0.105,0.445,0.295,0.887,0.547,1.296c0.066,0.205,0.556,1.162,0.689,1.456
			c0.138,0.293,0.159,0.618,0.206,0.927c0.087,0.502,0.381,3.187,0.381,3.187c-0.021,0.695-0.101,1.418-0.303,2.082
			c-0.101,0.332-0.508,1.201-1.72,1.475c-0.187,0.045-0.391,0.023-0.59,0.033l-0.404,0.016c0.2-0.164,0.44-0.416,0.756-0.871
			c0.102-0.146,0.182-0.324,0.27-0.477c0.156-0.277,0.084-0.77,0.075-0.797c0.1,0.162,0.189,0.34,0.21,0.512
			c0-0.018,0.08,0.123,0.093-0.027c0.018-0.297-0.235-0.654-0.426-0.879c-0.17-0.207-0.331-0.422-0.519-0.617
			c-0.353-0.367-0.848-0.648-1.371-0.74c-0.082-0.012-0.613-0.357-0.829-0.451c-0.259-0.105-0.538-0.18-0.815-0.213
			c-0.084-0.008-0.124-0.049-0.19-0.09c-0.458-0.276-1.198-0.008-1.198,0c-0.27-0.182-1.148-0.596-1.148-0.601
			c0.082-0.354,0.261-0.69,0.437-1.015c0.161-0.313,0.608-1.022,0.642-1.076c0.004-0.007-0.339-0.63-0.397-1.066
			c0.312-0.03,0.614-0.178,0.877-0.372c-0.036,0.024-1.376,0.644-1.991-0.26l-0.167-0.094l-0.111-0.168
			c-0.026-0.08,0.005-0.174,0.028-0.263c0.002-0.042,0.191-0.886,0.219-1.091c0.067-0.42-0.23-0.846-0.576-1.082
			c0.034,0.033,0.342,0.364,0.44,0.77c-0.516,0.069-0.976,0.407-1.449,0.589c-0.604,0.237-0.915,0.448-1.491,0.626
			c-0.372,0.121-1.98,0.526-3.215,0.186c-0.023-0.008-0.408,0.028-0.672-0.205c-0.149-0.129-0.149-0.353-0.152-0.534
			c-0.007-0.236,0.383-1.194,0.571-1.563c0.578-1.163,1.405-2.22,2.281-3.188c0.151-0.162,0.452-0.646,0.506-0.719
			c0.331-0.3,0.912-0.598,0.926-0.604c0.477-0.326,0.772-0.374,1.425-0.48c0,0,0.073,0.347,0.259,0.359
			c0.698,0.051,1.215,0.252,1.409,0.383h-0.005c0.216,0.238,0.349,1.189,0.356,1.323c0.011,0.054-0.113,0.26-0.269-0.021
			c0.028-0.094-0.07-0.799-0.394-1.151c-0.061-0.06-0.255-0.159-0.488-0.215c0.254,0.103,0.445,0.316,0.508,0.455
			c0.117,0.211,0.244,0.474,0.286,0.857c0.001,0.042-0.202,0.417-0.407-0.298c-0.072-0.252-0.262-0.58-0.531-0.613
			c-0.152-0.021-0.595-0.17-1.377,0.227c0.246-0.126,1.543-0.488,1.727,0.357c-0.212,0.074-0.441,0.09-0.658,0.092
			c-0.32,0.015-0.618-0.06-0.94,0c-0.235,0.047-0.478,0.045-0.673,0.41c-0.23,0.452-0.473,0.908-0.688,1.371
			c-0.071,0.159-0.125,0.306-0.182,0.469c-0.093,0.247-0.489,0.949-0.56,1.066c-0.184,0.273-0.335,0.564-0.548,0.813l0.107,0.022
			c0.301-0.361,0.643-0.928,0.643-0.928c0.419-0.194,1.124-0.639,1.423-0.989c0.655-0.771,1.379-1.276,2.283-1.89
			c-0.03,0.018,0.144,0.152,0.303,0.134l0.122-0.073c-0.009,0.004,0.396,0.393,0.432-0.12c0.029-0.292-0.159-0.955-0.239-1.104
			c0.065,0.065,0.292,0.236,0.362,1.192c0,0,0.218,0.095,0.303,0.375c-0.011-0.018,0.063-0.28-0.163-0.416
			c-0.084-0.048-0.077-0.14-0.077-0.216c0.015-0.261-0.041-0.514-0.168-0.74c-0.212-0.376-0.583-0.625-0.991-0.743
			c-0.144-0.044-0.524-0.107-0.758-0.119c-0.193-0.003-0.249-0.151-0.252-0.331c0-0.078,0.133-0.108,0.113-0.197
			c-0.019-0.101-0.098-0.239-0.119-0.356h0.009c0.076,0.014,0.152,0.038,0.229,0.058l0.213,0.042l0.058-0.032
			c0.033-0.05-0.147-0.128-0.232-0.148c-0.089-0.026-0.184-0.026-0.255-0.091c-0.092-0.085-0.063-0.265-0.021-0.367l0.157,0.096
			c0.227,0.073,0.359-0.123,0.385-0.207c-0.259,0.28-0.521,0.018-0.521,0.018c-0.006,0.005-0.063,0.012-0.143,0.097
			c-0.302,0.069-0.251-0.235-0.211-0.354c0.089-0.311,0.247-0.602,0.348-0.912c0.044-0.141,0.016-0.312,0.019-0.464
			c0.009-0.384,0.346-1.038,0.386-1.104l0.139-0.085c0.034,0.004,0.226-0.039,0.204-0.124l-0.423-0.029l-0.119,0.076l-0.005,0.004
			l0.183,0.041c-0.075,0.066-0.367,0.653-0.427,0.838c-0.009-0.22,0.102-0.747,0.098-0.797c0-0.071-0.043-0.119-0.058-0.18
			c-0.029-0.106,0.089-0.17,0.176-0.234c0.486-0.315,1.061-0.516,1.634-0.594c1.592-0.213,2.786,0.336,3.142,0.593
			c0.564,0.417,0.85,1.037,0.91,1.7c-0.146,0.3-0.293,0.732-0.424,1.027c-0.479,1.094,0.215,1.335,0.215,1.341
			c-0.295-0.2-0.195-0.945-0.094-1.356c0.079-0.292,0.184-0.584,0.315-0.86c0,0.007-0.057,0.656-0.021,0.982
			c0.03,0.393,0.007,1.11,1.216,1.274c0.157,0.049-0.083-0.434-0.083-0.434c-0.126-0.357-0.365-0.319-0.365-0.319
			c-0.35-0.063-0.532-0.171-0.599-0.224c-0.034-0.133-0.053-0.271-0.063-0.406c0.128-0.03,0.57,0.164,0.57,0.164
			c0.442,0.194,0.216-0.289,0.216-0.289c0.002-0.344-0.258-0.253-0.258-0.253c-0.209,0.009-0.432-0.154-0.518-0.216
			c0.012-0.157,0.019-0.314,0.01-0.472c0.101-0.048,0.342,0.076,0.342,0.076c0.316,0.185,0.221-0.154,0.221-0.154
			c-0.013-0.229-0.332-0.241-0.332-0.241c-0.139-0.02-0.24-0.086-0.303-0.155c-0.028-0.099-0.054-0.193-0.096-0.29
			c0.28,0.163,0.561,0.129,0.723,0.042c0.004-0.003,0.373-0.19,0.703-0.951c0.073-0.177,0.362-0.744,0.362-0.814
			c0-0.066,0.288-0.026,0.231-0.175l-0.373-0.186c-0.193-0.101-0.248-0.053-0.254-0.05l0.006,0.005
			c-0.052,0.054-0.016,0.119-0.003,0.211c0.025,0.135-0.36,1.072-0.571,1.381c-0.094,0.134-0.194,0.26-0.379,0.23
			c-0.156-0.027-0.384-0.163-0.332-0.347c0.103-0.256,0.458-1.107,0.526-1.28c0.116-0.271,0.221-0.322,0.223-0.327h0.006
			c0.184-0.112-0.176-0.209-0.244-0.234c-0.147-0.063-0.281-0.128-0.424-0.19C27.75,2.878,27.64,2.927,27.64,2.927
			c-0.064,0.061,0.01,0.174,0.016,0.248c0.002,0.074-0.22,0.627-0.302,0.833c-0.097,0.226-0.29,0.731-0.302,0.76
			c-0.138-0.118-0.293-0.22-0.459-0.304l0.042-0.039c0.139-0.23,0.063-0.593-0.13-0.763c0.389-0.118,0.529-0.617,0.302-0.94
			c-0.218-0.32-0.645-0.342-0.987-0.415c-0.14-0.028-0.279-0.065-0.416-0.101c-0.066-0.018-0.259-0.078-0.275-0.006h-0.006
			l0.014,0.111c0.076,0.175,0.061,0.352,0.013,0.527c-0.095,0.365-0.197,0.727-0.294,1.09c-0.544-0.066-1.068-0.012-1.565,0.129
			c-0.03-0.057,0.029-0.342,0.044-0.43l-0.019-0.202C23.208,3.375,23,3.64,22.936,3.708c-0.128,0.152-0.284,0.246-0.478,0.3
			c-0.087,0.028-0.308,0.099-0.308-0.054c0-0.089,0.004-0.687,0-0.896c0.208-0.039,0.37,0.004,0.481,0.193l0.179-0.024
			c0.028-0.064,0.028-0.455,0.007-0.564L22.605,2.71c-0.117,0.047-0.382,0.059-0.455-0.029c-0.004-0.218-0.004-0.436-0.004-0.652
			c0.086-0.01,0.194,0.007,0.267,0.01c0.168,0.007,0.329,0.07,0.46,0.176c0.088,0.072,0.145,0.178,0.25,0.158
			c0.009,0,0.144-0.033,0.069-0.277c-0.024-0.084-0.053-0.229-0.128-0.295c-0.036-0.04-0.933-0.076-1.115-0.089
			c-0.171-0.004-0.521-0.079-0.658,0.06l0.029,0.141c0.094,0.075,0.108,0.203,0.127,0.311c0.025,0.176,0.032,1.395,0.029,1.448
			c0,0.106-0.084,0.409-0.148,0.62c-0.03,0.102,1.119,0.025,1.332-0.004c-0.174,0.073-0.342,0.159-0.505,0.246
			c-0.164,0.093-0.447,0.207-0.432,0.459c0.004,0.102,0.077,0.167,0.058,0.276c-0.022,0.135-0.068,0.263-0.084,0.402
			c-0.022,0.203-0.012,0.417,0.016,0.62c-0.026,0.161,0.006,0.313-0.005,0.479c-0.015,0.109-0.229,0.549-0.274,0.672
			c-0.055,0.168-0.214,0.4-0.086,0.567c0.114,0.149,0.36,0.094,0.369,0.085c0,0-0.189,0.327,0.014,0.443
			c-0.054,0.115-0.094,0.377-0.044,0.489c-0.288,0.047-0.6,0.089-0.881,0.188c-0.273,0.09-0.537,0.264-0.775,0.414
			c-0.046,0.027-0.64,0.246-1.162,1.156c-0.029,0.059-0.324,0.383-0.422,0.498c-0.961,1.112-1.845,2.347-2.362,3.708
			c-0.138,0.357-0.373,0.97-0.117,1.303l0.121,0.119c0.082,0.074,0.177,0.104,0.279,0.121c-0.885-0.038-2.742-0.11-2.82-0.114
			c-0.104-0.004-0.083,0.162,0.081,0.186c0.429,0.055,3.79,0.097,3.79,0.097h-0.001c0.315,0.032,0.64,0.038,0.948,0.016
			c0.521-0.029,0.946-0.069,1.301-0.103c0.819,0.019,2.348,0.073,3.084-0.028l-0.039,0.146c0.005,0.226,0.23,0.278,0.352,0.417
			c0.415,0.453,0.861,0.501,1.038,0.501c0.006,0.231,0.329,1.025,0.413,1.132c0.006,0.002-0.769,1.104-1.049,1.99l-0.362-0.131
			c-0.054-0.256-0.206-0.497-0.373-0.692c-0.111-0.135-0.232-0.306-0.419-0.324c-0.129-0.008-0.269-0.024-0.403-0.038
			c-1.04-0.103-2.077-0.199-3.118-0.3c-0.424-0.037-0.889-0.11-1.313-0.149l-0.123,0.09c0.158,0.181,0.322,0.365,0.482,0.558
			c-0.277,0.003-0.569-0.011-0.842,0l-0.053,0.054l-0.005,0.004c0.115,0.096,0.218,0.217,0.327,0.329
			c-0.441,0.062-0.787,0.104-1.021,0.503c-0.021,0.043-0.186,0.409-0.541,0.703c-0.155,0.131-0.355,0.271-0.328,0.541
			c0.011,0.104,0.121,0.119,0.238,0.104l-0.008,0.004l-0.009,0.008c-0.046,0.049-1.042,0.902-1.233,1.77
			c-0.131,0.576,0.174,1.73,0.226,1.959c0.053,0.277,0.293,2.113,0.239,2.85c-0.007,0.051,0.09,1.961,0.133,2.332
			c0.021,0.211,0.131,0.211,0.131,0.211c0.246,0.051,0.488,0.102,0.711,0.217c0.096,0.057,0.196,0.119,0.24,0.225
			c0.023,0.092,0.005,0.203,0.033,0.303c0.119,0.354,0.707,0.152,0.975,0.139c0.437-0.031,0.885,0.105,1.329,0.115
			c0.086,0,0.776-0.045,0.883,0.035l0.124,0.119c0.226,0.152,0.525-0.055,0.541-0.076c0.111-0.094,0.396-0.453,0.436-0.521
			c0.006,0.193,0.255,0.492,0.227,0.555c-0.015,0.021-0.614,0.561-0.665,0.811c-0.028,0.096-0.052,0.191-0.078,0.283h-0.011
			l-0.029,0.121c-0.022,0.07-0.061,0.229-0.051,0.389c0.004,0.033-0.636,0.596-0.741,1.293c-0.039,0.234,0.159,0.25,0.187,0.246
			c-0.031,0.018-0.426,0.295-1.27,0.447c-2.109-0.436-4.07-1.293-5.807-2.484l-0.148-0.102l-0.144-0.117l-0.021-0.006l-0.006,0.002
			l-0.02-0.016l-0.051-0.037c-0.658-0.479-1.284-1.006-1.867-1.578c-1.181-1.148-2.142-2.482-2.879-3.924
			c-0.031,0.041-0.435,0.385-0.873,0.508c0-0.139-0.11-0.285,0.124-0.342c0.176-0.041,0.154-0.301,0.176-0.346
			c0.03-0.041,0.271-0.17,0.374-0.23v-0.002c0.079-0.055,0.428-0.439,0.546-0.543c0.121-0.102,0.192-0.262,0.225-0.414
			c0.023-0.123,0.071-0.16,0.268-0.195c0.193-0.035,0.283-0.305,0.295-0.42c0.01-0.098-0.082-0.252-0.112-0.352
			c-0.063-0.213-0.029-0.5,0.058-0.631c0.121-0.18,0.328-0.354,0.014-0.695c-0.101-0.105-0.049-0.326-0.041-0.467
			c0.01-0.219-0.144-0.547-0.909-0.016c-0.051,0.039-0.115-0.057-0.194-0.047c-0.07,0.008-0.258-0.018-0.434,0.354
			c-0.045,0.092-0.143,0.131-0.25,0.102c-0.078-0.031-0.179,0.035-0.263,0.074c-0.073,0.037-0.073,0.037-0.203,0.115l-0.383,0.266
			c-0.124-0.111-0.313-0.211-0.429-0.27c-0.52-0.23-1.039-0.305-1.593-0.393c-0.558-0.088-1.19-0.293-1.597-0.703
			c-0.086-0.695-0.135-1.398-0.146-2.115c-0.003-0.092-0.003-0.176-0.003-0.266c0-10.526,8.603-19.113,19.33-19.248
			c0.089-0.003,0.173-0.003,0.254-0.003c10.707,0,19.462,8.462,19.61,19.024c0.003,0.086,0.003,0.176,0.003,0.264
			C40.833,21.362,40.791,22.108,40.702,22.845z M22.767,16.508l-0.015,0.067c-0.683,0.006-1.979-0.011-2.608-0.023
			c0.064-0.008,2.471-1.098,2.844-1.171c0,0.073-0.019,0.146-0.037,0.214C22.878,15.812,22.777,16.393,22.767,16.508z
			 M22.891,11.158l-0.013,0.004c-0.924,0.443-1.712,1.285-2.371,2.039c-0.261,0.306-0.666,0.457-1.051,0.621
			c0.032-0.063,1.165-2.477,1.267-2.584c0.013-0.01,0.276-0.152,0.496-0.149c0.308,0,0.604,0,0.907-0.013l0.728-0.008l0.005,0.004
			L22.891,11.158z M25.977,3.702c0.157,0.101,0.053,0.348-0.012,0.499c-0.162-0.054-0.317-0.098-0.476-0.143
			c-0.01-0.075,0.068-0.356,0.074-0.405l0.023-0.05C25.703,3.584,25.894,3.648,25.977,3.702z M25.669,3.316l0.028-0.175
			c0.025-0.149,0.063-0.299,0.087-0.448l0.035-0.064c0.135-0.023,0.361,0.072,0.411,0.181c0.116,0.224-0.005,0.581-0.278,0.606
			C25.857,3.426,25.714,3.412,25.669,3.316z M28.148,8.177c0,0,0.523,0.066,0.595,0.281c0,0,0.161,0.411-0.251,0.162
			C28.492,8.621,28.261,8.682,28.148,8.177z M27.956,7.168l0.354,0.107c0.284,0.035,0.201,0.187,0.201,0.187
			c-0.088,0.092-0.457-0.086-0.457-0.086C27.792,7.311,27.956,7.168,27.956,7.168z"/>
		<polyline points="6.101,27.024 6.097,27.022 6.09,27.024 6.101,27.024 		"/>
		<path d="M7.682,24.212c-0.1-0.008-0.237,0.221-0.285,0.289c-0.074,0.102-0.159,0.203-0.215,0.328
			c-0.064,0.139-0.072,0.281-0.116,0.424c-0.04,0.148-0.135,0.26-0.225,0.385c-0.05,0.066-0.102,0.125-0.112,0.215
			c-0.009,0.09,0.017,0.148-0.019,0.23c-0.058,0.135-0.173,0.229-0.299,0.307l-0.104,0.182c-0.034,0.07-0.078,0.141-0.143,0.186
			l-0.014,0.055c-0.083,0.033-0.085,0.119-0.079,0.193l0.024,0.018c0.082-0.102,0.256-0.105,0.346-0.188l0.121-0.166
			c0.071-0.086,0.133-0.096,0.224-0.146c0.177-0.102,0.216-0.25,0.278-0.414c0.063-0.162,0.149-0.268,0.289-0.373
			c0.123-0.094,0.219-0.162,0.227-0.318c0.009-0.143,0.001-0.266-0.032-0.402c-0.034-0.135-0.084-0.266-0.008-0.398
			C7.629,24.462,7.693,24.397,7.682,24.212"/>
		<path d="M6.996,23.712L7.007,23.7c-0.098,0-0.15-0.002-0.215,0.063L6.67,23.907c-0.112,0.125-0.182,0.186-0.345,0.258
			c-0.146,0.063-0.297,0.158-0.417,0.258c-0.118,0.094-0.29,0.16-0.38,0.281c-0.099,0.125-0.055,0.318-0.087,0.471
			C5.4,25.37,5.279,25.468,5.184,25.636c-0.082,0.145-0.012,0.285,0.034,0.426c0.023,0.08,0.046,0.135,0.051,0.223
			c0.004,0.068,0.013,0.197,0.123,0.162c0.115-0.033,0.114-0.344,0.142-0.443c0.041-0.152,0.063-0.334,0.155-0.465
			c0.106-0.146,0.277-0.221,0.385-0.373c0.106-0.148,0.123-0.33,0.201-0.48c0.109-0.203,0.356-0.354,0.526-0.508
			c0.085-0.074,0.134-0.15,0.216-0.236C7.07,23.882,7.183,23.673,6.996,23.712"/>
		<path d="M37.248,26.554v0.006l0.065,0.023l0.079-0.092l0.079-0.182c0.095-0.344,0.106-0.701,0.26-1.033
			c0.065-0.133,0.143-0.266,0.172-0.404c0.029-0.137,0.038-0.258,0.042-0.404c-0.036,0.09-0.184,0.17-0.266,0.227
			c-0.077,0.057-0.151,0.113-0.215,0.191c-0.129,0.146-0.162,0.271-0.162,0.461c0,0.146,0.022,0.297,0.039,0.441
			c0.015,0.139,0.02,0.303,0,0.443c-0.017,0.115-0.075,0.215-0.1,0.326h0.003L37.248,26.554"/>
		<path d="M36.546,26.378l0.009,0.012h0.006l0.175,0.139c0.06,0.055,0.102,0.109,0.141,0.18c0.065,0.109,0.089,0.215,0.131,0.33
			l0.008,0.012l0.052,0.004l0.062-0.064h0.002l0.016-0.023c0.065-0.215-0.119-0.379-0.216-0.561
			c-0.062-0.113-0.101-0.197-0.101-0.326c0-0.098,0.019-0.182,0.039-0.273c0.015-0.068,0.097-0.326-0.039-0.313
			c-0.098,0.008-0.134,0.182-0.159,0.252l-0.053,0.141l-0.11,0.162c-0.049,0.104-0.019,0.211,0.021,0.314L36.546,26.378"/>
	</g>
	<g>
		<path d="M197.275,59.319c0,3.828-2.291,5.689-6.131,5.689c-3.859,0-6.108-1.844-6.108-5.689v-8.801h3.153v8.801
			c0,1.547,0.402,3.074,2.955,3.074c2.252,0,2.977-0.973,2.977-3.074v-8.801h3.154V59.319"/>
		<path d="M199.988,50.519h6.754c2.732,0,4.582,0.873,4.582,3.51c0,1.387-0.705,2.357-1.949,2.953
			c1.748,0.496,2.633,1.824,2.633,3.586c0,2.875-2.473,4.105-5.064,4.105h-6.955V50.519 M203.142,56.249h3.197
			c1.105,0,1.93-0.496,1.93-1.686c0-1.35-1.045-1.625-2.17-1.625h-2.957V56.249z M203.142,62.255h3.377
			c1.246,0,2.332-0.396,2.332-1.863c0-1.449-0.924-2.021-2.271-2.021h-3.438V62.255z"/>
		<path d="M217.826,50.519h3.234l5.367,14.154h-3.275l-1.086-3.152h-5.367l-1.127,3.152h-3.193L217.826,50.519 M217.523,59.202
			h3.719l-1.811-5.195h-0.039L217.523,59.202z"/>
		<path d="M186.101,68.544h-1.104v-0.297c0.81-0.006,1.171-0.322,1.2-0.82h0.313v4.76h-0.408V68.544"/>
		<path d="M188.207,69.665v-0.014c-0.477-0.121-0.73-0.598-0.73-1.047c0-0.781,0.512-1.178,1.215-1.178
			c0.707,0,1.213,0.396,1.213,1.178c0,0.449-0.246,0.926-0.729,1.047v0.014c0.592,0.061,0.871,0.619,0.871,1.178
			c0,0.9-0.547,1.424-1.355,1.424c-0.805,0-1.357-0.523-1.357-1.424C187.333,70.284,187.613,69.726,188.207,69.665 M188.691,71.931
			c0.613,0,0.92-0.484,0.92-1.055c0-0.578-0.307-1.063-0.92-1.063c-0.615,0-0.92,0.484-0.92,1.063
			C187.771,71.446,188.076,71.931,188.691,71.931z M188.691,69.478c0.523,0,0.775-0.35,0.775-0.854c0-0.512-0.252-0.859-0.775-0.859
			c-0.52,0-0.777,0.348-0.777,0.859C187.914,69.128,188.171,69.478,188.691,69.478z"/>
		<path d="M190.572,68.919c0.012-0.92,0.457-1.492,1.363-1.492c0.654,0,1.246,0.383,1.246,1.291c0,0.578-0.178,0.961-0.797,1.465
			l-0.525,0.424c-0.504,0.41-0.77,0.719-0.846,1.217h2.209v0.363h-2.672c0-0.787,0.361-1.297,1.008-1.836l0.518-0.43
			c0.486-0.402,0.668-0.727,0.668-1.184c0-0.631-0.354-0.973-0.852-0.973c-0.551,0-0.857,0.363-0.885,1.154H190.572"/>
		<path d="M194.837,68.544h-1.104v-0.297c0.811-0.006,1.172-0.322,1.199-0.82h0.313v4.76h-0.408V68.544"/>
		<path d="M198.466,67.388h0.436v3.449c0,0.719,0.314,1.068,0.955,1.068s0.955-0.35,0.955-1.068v-3.449h0.436v3.455
			c0,1.008-0.498,1.424-1.391,1.424s-1.391-0.416-1.391-1.424V67.388"/>
		<path d="M202.025,68.618h0.367v0.496h0.014c0.205-0.396,0.559-0.578,0.928-0.578c0.553,0,0.926,0.283,0.926,0.955v2.695h-0.408
			v-2.582c0-0.49-0.205-0.73-0.621-0.73c-0.477,0-0.797,0.363-0.797,0.914v2.398h-0.408V68.618"/>
		<path d="M205.146,67.388h0.408v0.686h-0.408V67.388z M205.146,68.618h0.408v3.568h-0.408V68.618z"/>
		<polyline points="206.093,68.618 206.529,68.618 207.333,71.729 207.347,71.729 208.083,68.618 208.519,68.618 207.566,72.187 
			207.101,72.187 206.093,68.618 		"/>
		<path d="M211.259,71.005c-0.063,0.758-0.484,1.262-1.166,1.262c-0.764,0-1.213-0.523-1.213-1.867c0-1.238,0.449-1.863,1.248-1.863
			c0.803,0,1.164,0.545,1.164,1.734v0.148h-1.977v0.168c0,1.029,0.369,1.344,0.771,1.344c0.43,0,0.695-0.303,0.764-0.926H211.259
			 M210.857,70.083c-0.014-0.889-0.268-1.209-0.77-1.209c-0.504,0-0.758,0.32-0.771,1.209H210.857z"/>
		<path d="M212.001,68.618h0.41v0.557h0.014c0.156-0.396,0.49-0.639,0.912-0.639l0.143,0.021v0.402
			c-0.066-0.014-0.135-0.02-0.197-0.02c-0.449,0-0.871,0.322-0.871,1.014v2.232h-0.41V68.618"/>
		<path d="M214.537,70.411c-0.51-0.195-0.695-0.49-0.695-0.846c0-0.734,0.465-1.029,1.078-1.029c0.682,0,0.994,0.344,0.994,0.994
			v0.104h-0.408V69.53c0-0.463-0.219-0.656-0.594-0.656c-0.477,0-0.66,0.248-0.66,0.604c0,0.248,0.082,0.443,0.49,0.598l0.594,0.223
			c0.49,0.182,0.674,0.518,0.674,0.906c0,0.613-0.354,1.063-1.117,1.063c-0.742,0-1.111-0.303-1.111-1.109v-0.113h0.408v0.094
			c0,0.525,0.232,0.793,0.695,0.793c0.436,0,0.717-0.242,0.717-0.639c0-0.314-0.131-0.518-0.49-0.656L214.537,70.411"/>
		<path d="M216.71,67.388h0.41v0.686h-0.41V67.388z M216.71,68.618h0.41v3.568h-0.41V68.618z"/>
		<path d="M219.916,71.595h-0.014c-0.109,0.41-0.457,0.672-0.887,0.672c-0.799,0-1.158-0.631-1.158-1.867
			c0-1.23,0.359-1.863,1.158-1.863c0.449,0,0.758,0.242,0.846,0.619h0.014v-1.768h0.408v4.799h-0.367V71.595 M219.083,71.931
			c0.416,0,0.791-0.207,0.791-1.531c0-1.318-0.375-1.525-0.791-1.525c-0.41,0-0.791,0.207-0.791,1.525
			C218.292,71.724,218.673,71.931,219.083,71.931z"/>
		<path d="M221.027,69.679c0-0.732,0.354-1.143,1.117-1.143c0.748,0,1.021,0.383,1.021,0.949v2.109c0,0.203,0.068,0.295,0.211,0.295
			h0.117v0.297c-0.076,0.027-0.137,0.041-0.191,0.041c-0.32,0-0.525-0.074-0.525-0.445v-0.119h-0.014
			c-0.162,0.469-0.531,0.604-0.934,0.604c-0.633,0-0.92-0.389-0.92-1.008c0-0.471,0.219-0.848,0.73-0.988l0.77-0.215
			c0.285-0.082,0.348-0.148,0.348-0.564c0-0.459-0.26-0.617-0.627-0.617c-0.484,0-0.697,0.287-0.697,0.805H221.027 M222.757,70.169
			h-0.014c-0.041,0.121-0.273,0.195-0.436,0.236l-0.342,0.088c-0.41,0.107-0.621,0.314-0.621,0.738c0,0.418,0.219,0.699,0.572,0.699
			c0.498,0,0.84-0.369,0.84-1.008V70.169z"/>
		<path d="M225.98,71.595h-0.014c-0.107,0.41-0.455,0.672-0.887,0.672c-0.795,0-1.158-0.631-1.158-1.867
			c0-1.23,0.363-1.863,1.158-1.863c0.451,0,0.758,0.242,0.848,0.619h0.014v-1.768h0.408v4.799h-0.369V71.595 M225.15,71.931
			c0.416,0,0.791-0.207,0.791-1.531c0-1.318-0.375-1.525-0.791-1.525c-0.41,0-0.791,0.207-0.791,1.525
			C224.359,71.724,224.74,71.931,225.15,71.931z"/>
		<path d="M187.072,77.747h-0.014c-0.109,0.41-0.457,0.674-0.887,0.674c-0.796,0-1.157-0.631-1.157-1.869
			c0-1.23,0.361-1.861,1.157-1.861c0.451,0,0.758,0.242,0.848,0.617h0.012V73.54h0.41v4.801h-0.369V77.747 M186.24,78.083
			c0.416,0,0.791-0.207,0.791-1.531c0-1.316-0.375-1.525-0.791-1.525c-0.408,0-0.79,0.209-0.79,1.525
			C185.45,77.876,185.832,78.083,186.24,78.083z"/>
		<path d="M190.636,77.157c-0.063,0.76-0.484,1.264-1.166,1.264c-0.764,0-1.213-0.525-1.213-1.869c0-1.236,0.449-1.861,1.248-1.861
			c0.803,0,1.166,0.545,1.166,1.734v0.148h-1.977v0.166c0,1.029,0.367,1.344,0.77,1.344c0.428,0,0.695-0.301,0.762-0.926H190.636
			 M190.234,76.237c-0.014-0.889-0.266-1.211-0.77-1.211s-0.758,0.322-0.77,1.211H190.234z"/>
		<path d="M193.369,73.54h1.344c0.939,0,1.309,0.49,1.309,1.203c0,0.471-0.26,0.922-0.75,1.043v0.012
			c0.6,0.115,0.906,0.572,0.906,1.197c0,0.84-0.553,1.346-1.473,1.346h-1.336V73.54 M193.806,75.651h0.688
			c0.75,0,1.09-0.316,1.09-0.875c0-0.637-0.334-0.873-1.014-0.873h-0.764V75.651z M193.806,77.978h0.811
			c0.756,0,1.123-0.336,1.123-0.982s-0.367-0.982-1.123-0.982h-0.811V77.978z"/>
		<path d="M197.007,74.771h0.41v2.514c0,0.578,0.197,0.799,0.627,0.799c0.463,0,0.791-0.361,0.791-0.914v-2.398h0.41v3.57h-0.369
			v-0.5h-0.014c-0.205,0.398-0.559,0.58-0.928,0.58c-0.553,0-0.928-0.283-0.928-0.955V74.771"/>
		<path d="M202.482,77.157c-0.063,0.76-0.484,1.264-1.166,1.264c-0.764,0-1.213-0.525-1.213-1.869c0-1.236,0.449-1.861,1.246-1.861
			c0.805,0,1.166,0.545,1.166,1.734v0.148h-1.977v0.166c0,1.029,0.367,1.344,0.771,1.344c0.428,0,0.693-0.301,0.762-0.926H202.482
			 M202.08,76.237c-0.014-0.889-0.266-1.211-0.77-1.211s-0.758,0.322-0.771,1.211H202.08z"/>
		<path d="M203.375,74.771h0.367v0.498h0.014c0.205-0.396,0.559-0.578,0.928-0.578c0.551,0,0.926,0.281,0.926,0.953v2.697h-0.408
			v-2.582c0-0.49-0.205-0.732-0.621-0.732c-0.477,0-0.797,0.363-0.797,0.914v2.4h-0.408V74.771"/>
		<path d="M207.675,74.69c0.797,0,1.246,0.625,1.246,1.861c0,1.244-0.449,1.869-1.246,1.869c-0.799,0-1.248-0.625-1.248-1.869
			C206.427,75.315,206.876,74.69,207.675,74.69 M207.675,78.083c0.455,0,0.811-0.389,0.811-1.531c0-1.135-0.355-1.525-0.811-1.525
			c-0.457,0-0.813,0.391-0.813,1.525C206.863,77.694,207.218,78.083,207.675,78.083z"/>
		<path d="M210.312,76.565c-0.512-0.195-0.695-0.492-0.695-0.848c0-0.732,0.465-1.027,1.078-1.027c0.682,0,0.994,0.342,0.994,0.994
			v0.102h-0.408v-0.102c0-0.463-0.219-0.658-0.594-0.658c-0.477,0-0.66,0.248-0.66,0.605c0,0.248,0.08,0.441,0.49,0.598l0.592,0.223
			c0.492,0.182,0.676,0.518,0.676,0.906c0,0.611-0.355,1.063-1.117,1.063c-0.744,0-1.113-0.305-1.113-1.109v-0.115h0.41v0.094
			c0,0.525,0.232,0.793,0.695,0.793c0.436,0,0.717-0.242,0.717-0.637c0-0.316-0.131-0.518-0.492-0.658L210.312,76.565"/>
		<path d="M215.246,73.54h0.545l1.439,4.801h-0.463l-0.396-1.398h-1.703l-0.396,1.398h-0.463L215.246,73.54 M216.275,76.579
			l-0.748-2.703h-0.014l-0.75,2.703H216.275z"/>
		<path d="M217.865,73.54h0.406v0.688h-0.406V73.54z M217.865,74.771h0.406v3.57h-0.406V74.771z"/>
		<path d="M219.308,74.771h0.41v0.559h0.012c0.158-0.396,0.492-0.639,0.914-0.639l0.143,0.018v0.406
			c-0.066-0.014-0.137-0.021-0.197-0.021c-0.451,0-0.871,0.324-0.871,1.016v2.232h-0.41V74.771"/>
		<path d="M223.65,77.157c-0.063,0.76-0.484,1.264-1.166,1.264c-0.764,0-1.213-0.525-1.213-1.869c0-1.236,0.449-1.861,1.248-1.861
			c0.803,0,1.164,0.545,1.164,1.734v0.148h-1.977v0.166c0,1.029,0.369,1.344,0.771,1.344c0.428,0,0.695-0.301,0.764-0.926H223.65
			 M223.248,76.237c-0.014-0.889-0.266-1.211-0.77-1.211s-0.758,0.322-0.771,1.211H223.248z"/>
		<path d="M225.115,76.565c-0.51-0.195-0.695-0.492-0.695-0.848c0-0.732,0.463-1.027,1.078-1.027c0.68,0,0.994,0.342,0.994,0.994
			v0.102h-0.408v-0.102c0-0.463-0.219-0.658-0.594-0.658c-0.477,0-0.66,0.248-0.66,0.605c0,0.248,0.08,0.441,0.49,0.598l0.594,0.223
			c0.49,0.182,0.674,0.518,0.674,0.906c0,0.611-0.354,1.063-1.117,1.063c-0.742,0-1.111-0.305-1.111-1.109v-0.115h0.408v0.094
			c0,0.525,0.232,0.793,0.695,0.793c0.438,0,0.715-0.242,0.715-0.637c0-0.316-0.127-0.518-0.488-0.658L225.115,76.565"/>
	</g>
</g>
</svg>
